G04 #@! TF.GenerationSoftware,KiCad,Pcbnew,(5.1.0)-1*
G04 #@! TF.CreationDate,2019-05-06T16:05:47+08:00*
G04 #@! TF.ProjectId,rpi0_extern_board,72706930-5f65-4787-9465-726e5f626f61,rev?*
G04 #@! TF.SameCoordinates,Original*
G04 #@! TF.FileFunction,Soldermask,Bot*
G04 #@! TF.FilePolarity,Negative*
%FSLAX46Y46*%
G04 Gerber Fmt 4.6, Leading zero omitted, Abs format (unit mm)*
G04 Created by KiCad (PCBNEW (5.1.0)-1) date 2019-05-06 16:05:47*
%MOMM*%
%LPD*%
G04 APERTURE LIST*
%ADD10C,0.100000*%
G04 APERTURE END LIST*
D10*
G36*
X118736979Y-82668293D02*
G01*
X118870625Y-82708834D01*
X118993784Y-82774664D01*
X119101740Y-82863260D01*
X119190336Y-82971216D01*
X119256166Y-83094375D01*
X119296707Y-83228021D01*
X119311000Y-83373140D01*
X119311000Y-85536860D01*
X119296707Y-85681979D01*
X119256166Y-85815625D01*
X119190336Y-85938784D01*
X119101740Y-86046740D01*
X118993784Y-86135336D01*
X118870625Y-86201166D01*
X118736979Y-86241707D01*
X118591860Y-86256000D01*
X116928140Y-86256000D01*
X116783021Y-86241707D01*
X116649375Y-86201166D01*
X116526216Y-86135336D01*
X116418260Y-86046740D01*
X116329664Y-85938784D01*
X116263834Y-85815625D01*
X116223293Y-85681979D01*
X116209000Y-85536860D01*
X116209000Y-83373140D01*
X116223293Y-83228021D01*
X116263834Y-83094375D01*
X116329664Y-82971216D01*
X116418260Y-82863260D01*
X116526216Y-82774664D01*
X116649375Y-82708834D01*
X116783021Y-82668293D01*
X116928140Y-82654000D01*
X118591860Y-82654000D01*
X118736979Y-82668293D01*
X118736979Y-82668293D01*
G37*
G36*
X113561000Y-86256000D02*
G01*
X109959000Y-86256000D01*
X109959000Y-82654000D01*
X113561000Y-82654000D01*
X113561000Y-86256000D01*
X113561000Y-86256000D01*
G37*
G36*
X97900443Y-83560519D02*
G01*
X97966627Y-83567037D01*
X98136466Y-83618557D01*
X98292991Y-83702222D01*
X98328729Y-83731552D01*
X98430186Y-83814814D01*
X98513448Y-83916271D01*
X98542778Y-83952009D01*
X98626443Y-84108534D01*
X98677963Y-84278373D01*
X98695359Y-84455000D01*
X98677963Y-84631627D01*
X98626443Y-84801466D01*
X98542778Y-84957991D01*
X98513448Y-84993729D01*
X98430186Y-85095186D01*
X98328729Y-85178448D01*
X98292991Y-85207778D01*
X98136466Y-85291443D01*
X97966627Y-85342963D01*
X97900442Y-85349482D01*
X97834260Y-85356000D01*
X97745740Y-85356000D01*
X97679558Y-85349482D01*
X97613373Y-85342963D01*
X97443534Y-85291443D01*
X97287009Y-85207778D01*
X97251271Y-85178448D01*
X97149814Y-85095186D01*
X97066552Y-84993729D01*
X97037222Y-84957991D01*
X96953557Y-84801466D01*
X96902037Y-84631627D01*
X96884641Y-84455000D01*
X96902037Y-84278373D01*
X96953557Y-84108534D01*
X97037222Y-83952009D01*
X97066552Y-83916271D01*
X97149814Y-83814814D01*
X97251271Y-83731552D01*
X97287009Y-83702222D01*
X97443534Y-83618557D01*
X97613373Y-83567037D01*
X97679557Y-83560519D01*
X97745740Y-83554000D01*
X97834260Y-83554000D01*
X97900443Y-83560519D01*
X97900443Y-83560519D01*
G37*
G36*
X106790443Y-83560519D02*
G01*
X106856627Y-83567037D01*
X107026466Y-83618557D01*
X107182991Y-83702222D01*
X107218729Y-83731552D01*
X107320186Y-83814814D01*
X107403448Y-83916271D01*
X107432778Y-83952009D01*
X107516443Y-84108534D01*
X107567963Y-84278373D01*
X107585359Y-84455000D01*
X107567963Y-84631627D01*
X107516443Y-84801466D01*
X107432778Y-84957991D01*
X107403448Y-84993729D01*
X107320186Y-85095186D01*
X107218729Y-85178448D01*
X107182991Y-85207778D01*
X107026466Y-85291443D01*
X106856627Y-85342963D01*
X106790442Y-85349482D01*
X106724260Y-85356000D01*
X106635740Y-85356000D01*
X106569558Y-85349482D01*
X106503373Y-85342963D01*
X106333534Y-85291443D01*
X106177009Y-85207778D01*
X106141271Y-85178448D01*
X106039814Y-85095186D01*
X105956552Y-84993729D01*
X105927222Y-84957991D01*
X105843557Y-84801466D01*
X105792037Y-84631627D01*
X105774641Y-84455000D01*
X105792037Y-84278373D01*
X105843557Y-84108534D01*
X105927222Y-83952009D01*
X105956552Y-83916271D01*
X106039814Y-83814814D01*
X106141271Y-83731552D01*
X106177009Y-83702222D01*
X106333534Y-83618557D01*
X106503373Y-83567037D01*
X106569557Y-83560519D01*
X106635740Y-83554000D01*
X106724260Y-83554000D01*
X106790443Y-83560519D01*
X106790443Y-83560519D01*
G37*
G36*
X104250443Y-83560519D02*
G01*
X104316627Y-83567037D01*
X104486466Y-83618557D01*
X104642991Y-83702222D01*
X104678729Y-83731552D01*
X104780186Y-83814814D01*
X104863448Y-83916271D01*
X104892778Y-83952009D01*
X104976443Y-84108534D01*
X105027963Y-84278373D01*
X105045359Y-84455000D01*
X105027963Y-84631627D01*
X104976443Y-84801466D01*
X104892778Y-84957991D01*
X104863448Y-84993729D01*
X104780186Y-85095186D01*
X104678729Y-85178448D01*
X104642991Y-85207778D01*
X104486466Y-85291443D01*
X104316627Y-85342963D01*
X104250442Y-85349482D01*
X104184260Y-85356000D01*
X104095740Y-85356000D01*
X104029558Y-85349482D01*
X103963373Y-85342963D01*
X103793534Y-85291443D01*
X103637009Y-85207778D01*
X103601271Y-85178448D01*
X103499814Y-85095186D01*
X103416552Y-84993729D01*
X103387222Y-84957991D01*
X103303557Y-84801466D01*
X103252037Y-84631627D01*
X103234641Y-84455000D01*
X103252037Y-84278373D01*
X103303557Y-84108534D01*
X103387222Y-83952009D01*
X103416552Y-83916271D01*
X103499814Y-83814814D01*
X103601271Y-83731552D01*
X103637009Y-83702222D01*
X103793534Y-83618557D01*
X103963373Y-83567037D01*
X104029557Y-83560519D01*
X104095740Y-83554000D01*
X104184260Y-83554000D01*
X104250443Y-83560519D01*
X104250443Y-83560519D01*
G37*
G36*
X100440443Y-83560519D02*
G01*
X100506627Y-83567037D01*
X100676466Y-83618557D01*
X100832991Y-83702222D01*
X100868729Y-83731552D01*
X100970186Y-83814814D01*
X101053448Y-83916271D01*
X101082778Y-83952009D01*
X101166443Y-84108534D01*
X101217963Y-84278373D01*
X101235359Y-84455000D01*
X101217963Y-84631627D01*
X101166443Y-84801466D01*
X101082778Y-84957991D01*
X101053448Y-84993729D01*
X100970186Y-85095186D01*
X100868729Y-85178448D01*
X100832991Y-85207778D01*
X100676466Y-85291443D01*
X100506627Y-85342963D01*
X100440442Y-85349482D01*
X100374260Y-85356000D01*
X100285740Y-85356000D01*
X100219558Y-85349482D01*
X100153373Y-85342963D01*
X99983534Y-85291443D01*
X99827009Y-85207778D01*
X99791271Y-85178448D01*
X99689814Y-85095186D01*
X99606552Y-84993729D01*
X99577222Y-84957991D01*
X99493557Y-84801466D01*
X99442037Y-84631627D01*
X99424641Y-84455000D01*
X99442037Y-84278373D01*
X99493557Y-84108534D01*
X99577222Y-83952009D01*
X99606552Y-83916271D01*
X99689814Y-83814814D01*
X99791271Y-83731552D01*
X99827009Y-83702222D01*
X99983534Y-83618557D01*
X100153373Y-83567037D01*
X100219557Y-83560519D01*
X100285740Y-83554000D01*
X100374260Y-83554000D01*
X100440443Y-83560519D01*
X100440443Y-83560519D01*
G37*
G36*
X100440442Y-81020518D02*
G01*
X100506627Y-81027037D01*
X100676466Y-81078557D01*
X100832991Y-81162222D01*
X100858590Y-81183231D01*
X100970186Y-81274814D01*
X101053448Y-81376271D01*
X101082778Y-81412009D01*
X101166443Y-81568534D01*
X101217963Y-81738373D01*
X101235359Y-81915000D01*
X101217963Y-82091627D01*
X101166443Y-82261466D01*
X101082778Y-82417991D01*
X101053448Y-82453729D01*
X100970186Y-82555186D01*
X100868729Y-82638448D01*
X100832991Y-82667778D01*
X100676466Y-82751443D01*
X100506627Y-82802963D01*
X100440442Y-82809482D01*
X100374260Y-82816000D01*
X100285740Y-82816000D01*
X100219558Y-82809482D01*
X100153373Y-82802963D01*
X99983534Y-82751443D01*
X99827009Y-82667778D01*
X99791271Y-82638448D01*
X99689814Y-82555186D01*
X99606552Y-82453729D01*
X99577222Y-82417991D01*
X99493557Y-82261466D01*
X99442037Y-82091627D01*
X99424641Y-81915000D01*
X99442037Y-81738373D01*
X99493557Y-81568534D01*
X99577222Y-81412009D01*
X99606552Y-81376271D01*
X99689814Y-81274814D01*
X99801410Y-81183231D01*
X99827009Y-81162222D01*
X99983534Y-81078557D01*
X100153373Y-81027037D01*
X100219558Y-81020518D01*
X100285740Y-81014000D01*
X100374260Y-81014000D01*
X100440442Y-81020518D01*
X100440442Y-81020518D01*
G37*
G36*
X97900442Y-81020518D02*
G01*
X97966627Y-81027037D01*
X98136466Y-81078557D01*
X98292991Y-81162222D01*
X98318590Y-81183231D01*
X98430186Y-81274814D01*
X98513448Y-81376271D01*
X98542778Y-81412009D01*
X98626443Y-81568534D01*
X98677963Y-81738373D01*
X98695359Y-81915000D01*
X98677963Y-82091627D01*
X98626443Y-82261466D01*
X98542778Y-82417991D01*
X98513448Y-82453729D01*
X98430186Y-82555186D01*
X98328729Y-82638448D01*
X98292991Y-82667778D01*
X98136466Y-82751443D01*
X97966627Y-82802963D01*
X97900442Y-82809482D01*
X97834260Y-82816000D01*
X97745740Y-82816000D01*
X97679558Y-82809482D01*
X97613373Y-82802963D01*
X97443534Y-82751443D01*
X97287009Y-82667778D01*
X97251271Y-82638448D01*
X97149814Y-82555186D01*
X97066552Y-82453729D01*
X97037222Y-82417991D01*
X96953557Y-82261466D01*
X96902037Y-82091627D01*
X96884641Y-81915000D01*
X96902037Y-81738373D01*
X96953557Y-81568534D01*
X97037222Y-81412009D01*
X97066552Y-81376271D01*
X97149814Y-81274814D01*
X97261410Y-81183231D01*
X97287009Y-81162222D01*
X97443534Y-81078557D01*
X97613373Y-81027037D01*
X97679558Y-81020518D01*
X97745740Y-81014000D01*
X97834260Y-81014000D01*
X97900442Y-81020518D01*
X97900442Y-81020518D01*
G37*
G36*
X104250442Y-81020518D02*
G01*
X104316627Y-81027037D01*
X104486466Y-81078557D01*
X104642991Y-81162222D01*
X104668590Y-81183231D01*
X104780186Y-81274814D01*
X104863448Y-81376271D01*
X104892778Y-81412009D01*
X104976443Y-81568534D01*
X105027963Y-81738373D01*
X105045359Y-81915000D01*
X105027963Y-82091627D01*
X104976443Y-82261466D01*
X104892778Y-82417991D01*
X104863448Y-82453729D01*
X104780186Y-82555186D01*
X104678729Y-82638448D01*
X104642991Y-82667778D01*
X104486466Y-82751443D01*
X104316627Y-82802963D01*
X104250442Y-82809482D01*
X104184260Y-82816000D01*
X104095740Y-82816000D01*
X104029558Y-82809482D01*
X103963373Y-82802963D01*
X103793534Y-82751443D01*
X103637009Y-82667778D01*
X103601271Y-82638448D01*
X103499814Y-82555186D01*
X103416552Y-82453729D01*
X103387222Y-82417991D01*
X103303557Y-82261466D01*
X103252037Y-82091627D01*
X103234641Y-81915000D01*
X103252037Y-81738373D01*
X103303557Y-81568534D01*
X103387222Y-81412009D01*
X103416552Y-81376271D01*
X103499814Y-81274814D01*
X103611410Y-81183231D01*
X103637009Y-81162222D01*
X103793534Y-81078557D01*
X103963373Y-81027037D01*
X104029558Y-81020518D01*
X104095740Y-81014000D01*
X104184260Y-81014000D01*
X104250442Y-81020518D01*
X104250442Y-81020518D01*
G37*
G36*
X106790442Y-81020518D02*
G01*
X106856627Y-81027037D01*
X107026466Y-81078557D01*
X107182991Y-81162222D01*
X107208590Y-81183231D01*
X107320186Y-81274814D01*
X107403448Y-81376271D01*
X107432778Y-81412009D01*
X107516443Y-81568534D01*
X107567963Y-81738373D01*
X107585359Y-81915000D01*
X107567963Y-82091627D01*
X107516443Y-82261466D01*
X107432778Y-82417991D01*
X107403448Y-82453729D01*
X107320186Y-82555186D01*
X107218729Y-82638448D01*
X107182991Y-82667778D01*
X107026466Y-82751443D01*
X106856627Y-82802963D01*
X106790442Y-82809482D01*
X106724260Y-82816000D01*
X106635740Y-82816000D01*
X106569558Y-82809482D01*
X106503373Y-82802963D01*
X106333534Y-82751443D01*
X106177009Y-82667778D01*
X106141271Y-82638448D01*
X106039814Y-82555186D01*
X105956552Y-82453729D01*
X105927222Y-82417991D01*
X105843557Y-82261466D01*
X105792037Y-82091627D01*
X105774641Y-81915000D01*
X105792037Y-81738373D01*
X105843557Y-81568534D01*
X105927222Y-81412009D01*
X105956552Y-81376271D01*
X106039814Y-81274814D01*
X106151410Y-81183231D01*
X106177009Y-81162222D01*
X106333534Y-81078557D01*
X106503373Y-81027037D01*
X106569558Y-81020518D01*
X106635740Y-81014000D01*
X106724260Y-81014000D01*
X106790442Y-81020518D01*
X106790442Y-81020518D01*
G37*
G36*
X115886366Y-77970695D02*
G01*
X116043460Y-78018349D01*
X116188231Y-78095731D01*
X116315128Y-78199872D01*
X116419269Y-78326769D01*
X116496651Y-78471540D01*
X116544305Y-78628634D01*
X116561000Y-78798140D01*
X116561000Y-80711860D01*
X116544305Y-80881366D01*
X116496651Y-81038460D01*
X116419269Y-81183231D01*
X116315128Y-81310128D01*
X116188231Y-81414269D01*
X116043460Y-81491651D01*
X115886366Y-81539305D01*
X115716860Y-81556000D01*
X113803140Y-81556000D01*
X113633634Y-81539305D01*
X113476540Y-81491651D01*
X113331769Y-81414269D01*
X113204872Y-81310128D01*
X113100731Y-81183231D01*
X113023349Y-81038460D01*
X112975695Y-80881366D01*
X112959000Y-80711860D01*
X112959000Y-78798140D01*
X112975695Y-78628634D01*
X113023349Y-78471540D01*
X113100731Y-78326769D01*
X113204872Y-78199872D01*
X113331769Y-78095731D01*
X113476540Y-78018349D01*
X113633634Y-77970695D01*
X113803140Y-77954000D01*
X115716860Y-77954000D01*
X115886366Y-77970695D01*
X115886366Y-77970695D01*
G37*
G36*
X100440442Y-78480518D02*
G01*
X100506627Y-78487037D01*
X100676466Y-78538557D01*
X100832991Y-78622222D01*
X100868729Y-78651552D01*
X100970186Y-78734814D01*
X101053448Y-78836271D01*
X101082778Y-78872009D01*
X101166443Y-79028534D01*
X101217963Y-79198373D01*
X101235359Y-79375000D01*
X101217963Y-79551627D01*
X101166443Y-79721466D01*
X101082778Y-79877991D01*
X101053448Y-79913729D01*
X100970186Y-80015186D01*
X100868729Y-80098448D01*
X100832991Y-80127778D01*
X100676466Y-80211443D01*
X100506627Y-80262963D01*
X100440442Y-80269482D01*
X100374260Y-80276000D01*
X100285740Y-80276000D01*
X100219558Y-80269482D01*
X100153373Y-80262963D01*
X99983534Y-80211443D01*
X99827009Y-80127778D01*
X99791271Y-80098448D01*
X99689814Y-80015186D01*
X99606552Y-79913729D01*
X99577222Y-79877991D01*
X99493557Y-79721466D01*
X99442037Y-79551627D01*
X99424641Y-79375000D01*
X99442037Y-79198373D01*
X99493557Y-79028534D01*
X99577222Y-78872009D01*
X99606552Y-78836271D01*
X99689814Y-78734814D01*
X99791271Y-78651552D01*
X99827009Y-78622222D01*
X99983534Y-78538557D01*
X100153373Y-78487037D01*
X100219558Y-78480518D01*
X100285740Y-78474000D01*
X100374260Y-78474000D01*
X100440442Y-78480518D01*
X100440442Y-78480518D01*
G37*
G36*
X106790442Y-78480518D02*
G01*
X106856627Y-78487037D01*
X107026466Y-78538557D01*
X107182991Y-78622222D01*
X107218729Y-78651552D01*
X107320186Y-78734814D01*
X107403448Y-78836271D01*
X107432778Y-78872009D01*
X107516443Y-79028534D01*
X107567963Y-79198373D01*
X107585359Y-79375000D01*
X107567963Y-79551627D01*
X107516443Y-79721466D01*
X107432778Y-79877991D01*
X107403448Y-79913729D01*
X107320186Y-80015186D01*
X107218729Y-80098448D01*
X107182991Y-80127778D01*
X107026466Y-80211443D01*
X106856627Y-80262963D01*
X106790442Y-80269482D01*
X106724260Y-80276000D01*
X106635740Y-80276000D01*
X106569558Y-80269482D01*
X106503373Y-80262963D01*
X106333534Y-80211443D01*
X106177009Y-80127778D01*
X106141271Y-80098448D01*
X106039814Y-80015186D01*
X105956552Y-79913729D01*
X105927222Y-79877991D01*
X105843557Y-79721466D01*
X105792037Y-79551627D01*
X105774641Y-79375000D01*
X105792037Y-79198373D01*
X105843557Y-79028534D01*
X105927222Y-78872009D01*
X105956552Y-78836271D01*
X106039814Y-78734814D01*
X106141271Y-78651552D01*
X106177009Y-78622222D01*
X106333534Y-78538557D01*
X106503373Y-78487037D01*
X106569558Y-78480518D01*
X106635740Y-78474000D01*
X106724260Y-78474000D01*
X106790442Y-78480518D01*
X106790442Y-78480518D01*
G37*
G36*
X104250442Y-78480518D02*
G01*
X104316627Y-78487037D01*
X104486466Y-78538557D01*
X104642991Y-78622222D01*
X104678729Y-78651552D01*
X104780186Y-78734814D01*
X104863448Y-78836271D01*
X104892778Y-78872009D01*
X104976443Y-79028534D01*
X105027963Y-79198373D01*
X105045359Y-79375000D01*
X105027963Y-79551627D01*
X104976443Y-79721466D01*
X104892778Y-79877991D01*
X104863448Y-79913729D01*
X104780186Y-80015186D01*
X104678729Y-80098448D01*
X104642991Y-80127778D01*
X104486466Y-80211443D01*
X104316627Y-80262963D01*
X104250442Y-80269482D01*
X104184260Y-80276000D01*
X104095740Y-80276000D01*
X104029558Y-80269482D01*
X103963373Y-80262963D01*
X103793534Y-80211443D01*
X103637009Y-80127778D01*
X103601271Y-80098448D01*
X103499814Y-80015186D01*
X103416552Y-79913729D01*
X103387222Y-79877991D01*
X103303557Y-79721466D01*
X103252037Y-79551627D01*
X103234641Y-79375000D01*
X103252037Y-79198373D01*
X103303557Y-79028534D01*
X103387222Y-78872009D01*
X103416552Y-78836271D01*
X103499814Y-78734814D01*
X103601271Y-78651552D01*
X103637009Y-78622222D01*
X103793534Y-78538557D01*
X103963373Y-78487037D01*
X104029558Y-78480518D01*
X104095740Y-78474000D01*
X104184260Y-78474000D01*
X104250442Y-78480518D01*
X104250442Y-78480518D01*
G37*
G36*
X97900442Y-78480518D02*
G01*
X97966627Y-78487037D01*
X98136466Y-78538557D01*
X98292991Y-78622222D01*
X98328729Y-78651552D01*
X98430186Y-78734814D01*
X98513448Y-78836271D01*
X98542778Y-78872009D01*
X98626443Y-79028534D01*
X98677963Y-79198373D01*
X98695359Y-79375000D01*
X98677963Y-79551627D01*
X98626443Y-79721466D01*
X98542778Y-79877991D01*
X98513448Y-79913729D01*
X98430186Y-80015186D01*
X98328729Y-80098448D01*
X98292991Y-80127778D01*
X98136466Y-80211443D01*
X97966627Y-80262963D01*
X97900442Y-80269482D01*
X97834260Y-80276000D01*
X97745740Y-80276000D01*
X97679558Y-80269482D01*
X97613373Y-80262963D01*
X97443534Y-80211443D01*
X97287009Y-80127778D01*
X97251271Y-80098448D01*
X97149814Y-80015186D01*
X97066552Y-79913729D01*
X97037222Y-79877991D01*
X96953557Y-79721466D01*
X96902037Y-79551627D01*
X96884641Y-79375000D01*
X96902037Y-79198373D01*
X96953557Y-79028534D01*
X97037222Y-78872009D01*
X97066552Y-78836271D01*
X97149814Y-78734814D01*
X97251271Y-78651552D01*
X97287009Y-78622222D01*
X97443534Y-78538557D01*
X97613373Y-78487037D01*
X97679558Y-78480518D01*
X97745740Y-78474000D01*
X97834260Y-78474000D01*
X97900442Y-78480518D01*
X97900442Y-78480518D01*
G37*
G36*
X123610442Y-76055518D02*
G01*
X123676627Y-76062037D01*
X123846466Y-76113557D01*
X124002991Y-76197222D01*
X124038729Y-76226552D01*
X124140186Y-76309814D01*
X124223448Y-76411271D01*
X124252778Y-76447009D01*
X124336443Y-76603534D01*
X124387963Y-76773373D01*
X124405359Y-76950000D01*
X124387963Y-77126627D01*
X124336443Y-77296466D01*
X124252778Y-77452991D01*
X124234563Y-77475186D01*
X124140186Y-77590186D01*
X124041174Y-77671442D01*
X124002991Y-77702778D01*
X123846466Y-77786443D01*
X123676627Y-77837963D01*
X123610442Y-77844482D01*
X123544260Y-77851000D01*
X123455740Y-77851000D01*
X123389558Y-77844482D01*
X123323373Y-77837963D01*
X123153534Y-77786443D01*
X122997009Y-77702778D01*
X122958826Y-77671442D01*
X122859814Y-77590186D01*
X122765437Y-77475186D01*
X122747222Y-77452991D01*
X122663557Y-77296466D01*
X122612037Y-77126627D01*
X122594641Y-76950000D01*
X122612037Y-76773373D01*
X122663557Y-76603534D01*
X122747222Y-76447009D01*
X122776552Y-76411271D01*
X122859814Y-76309814D01*
X122961271Y-76226552D01*
X122997009Y-76197222D01*
X123153534Y-76113557D01*
X123323373Y-76062037D01*
X123389558Y-76055518D01*
X123455740Y-76049000D01*
X123544260Y-76049000D01*
X123610442Y-76055518D01*
X123610442Y-76055518D01*
G37*
G36*
X121070442Y-76055518D02*
G01*
X121136627Y-76062037D01*
X121306466Y-76113557D01*
X121462991Y-76197222D01*
X121498729Y-76226552D01*
X121600186Y-76309814D01*
X121683448Y-76411271D01*
X121712778Y-76447009D01*
X121796443Y-76603534D01*
X121847963Y-76773373D01*
X121865359Y-76950000D01*
X121847963Y-77126627D01*
X121796443Y-77296466D01*
X121712778Y-77452991D01*
X121694563Y-77475186D01*
X121600186Y-77590186D01*
X121501174Y-77671442D01*
X121462991Y-77702778D01*
X121306466Y-77786443D01*
X121136627Y-77837963D01*
X121070442Y-77844482D01*
X121004260Y-77851000D01*
X120915740Y-77851000D01*
X120849558Y-77844482D01*
X120783373Y-77837963D01*
X120613534Y-77786443D01*
X120457009Y-77702778D01*
X120418826Y-77671442D01*
X120319814Y-77590186D01*
X120225437Y-77475186D01*
X120207222Y-77452991D01*
X120123557Y-77296466D01*
X120072037Y-77126627D01*
X120054641Y-76950000D01*
X120072037Y-76773373D01*
X120123557Y-76603534D01*
X120207222Y-76447009D01*
X120236552Y-76411271D01*
X120319814Y-76309814D01*
X120421271Y-76226552D01*
X120457009Y-76197222D01*
X120613534Y-76113557D01*
X120783373Y-76062037D01*
X120849558Y-76055518D01*
X120915740Y-76049000D01*
X121004260Y-76049000D01*
X121070442Y-76055518D01*
X121070442Y-76055518D01*
G37*
G36*
X97900442Y-75940518D02*
G01*
X97966627Y-75947037D01*
X98136466Y-75998557D01*
X98292991Y-76082222D01*
X98328729Y-76111552D01*
X98430186Y-76194814D01*
X98513448Y-76296271D01*
X98542778Y-76332009D01*
X98626443Y-76488534D01*
X98677963Y-76658373D01*
X98695359Y-76835000D01*
X98677963Y-77011627D01*
X98626443Y-77181466D01*
X98542778Y-77337991D01*
X98513448Y-77373729D01*
X98430186Y-77475186D01*
X98328729Y-77558448D01*
X98292991Y-77587778D01*
X98136466Y-77671443D01*
X97966627Y-77722963D01*
X97900443Y-77729481D01*
X97834260Y-77736000D01*
X97745740Y-77736000D01*
X97679557Y-77729481D01*
X97613373Y-77722963D01*
X97443534Y-77671443D01*
X97287009Y-77587778D01*
X97251271Y-77558448D01*
X97149814Y-77475186D01*
X97066552Y-77373729D01*
X97037222Y-77337991D01*
X96953557Y-77181466D01*
X96902037Y-77011627D01*
X96884641Y-76835000D01*
X96902037Y-76658373D01*
X96953557Y-76488534D01*
X97037222Y-76332009D01*
X97066552Y-76296271D01*
X97149814Y-76194814D01*
X97251271Y-76111552D01*
X97287009Y-76082222D01*
X97443534Y-75998557D01*
X97613373Y-75947037D01*
X97679558Y-75940518D01*
X97745740Y-75934000D01*
X97834260Y-75934000D01*
X97900442Y-75940518D01*
X97900442Y-75940518D01*
G37*
G36*
X106790442Y-75940518D02*
G01*
X106856627Y-75947037D01*
X107026466Y-75998557D01*
X107182991Y-76082222D01*
X107218729Y-76111552D01*
X107320186Y-76194814D01*
X107403448Y-76296271D01*
X107432778Y-76332009D01*
X107516443Y-76488534D01*
X107567963Y-76658373D01*
X107585359Y-76835000D01*
X107567963Y-77011627D01*
X107516443Y-77181466D01*
X107432778Y-77337991D01*
X107403448Y-77373729D01*
X107320186Y-77475186D01*
X107218729Y-77558448D01*
X107182991Y-77587778D01*
X107026466Y-77671443D01*
X106856627Y-77722963D01*
X106790443Y-77729481D01*
X106724260Y-77736000D01*
X106635740Y-77736000D01*
X106569557Y-77729481D01*
X106503373Y-77722963D01*
X106333534Y-77671443D01*
X106177009Y-77587778D01*
X106141271Y-77558448D01*
X106039814Y-77475186D01*
X105956552Y-77373729D01*
X105927222Y-77337991D01*
X105843557Y-77181466D01*
X105792037Y-77011627D01*
X105774641Y-76835000D01*
X105792037Y-76658373D01*
X105843557Y-76488534D01*
X105927222Y-76332009D01*
X105956552Y-76296271D01*
X106039814Y-76194814D01*
X106141271Y-76111552D01*
X106177009Y-76082222D01*
X106333534Y-75998557D01*
X106503373Y-75947037D01*
X106569558Y-75940518D01*
X106635740Y-75934000D01*
X106724260Y-75934000D01*
X106790442Y-75940518D01*
X106790442Y-75940518D01*
G37*
G36*
X104250442Y-75940518D02*
G01*
X104316627Y-75947037D01*
X104486466Y-75998557D01*
X104642991Y-76082222D01*
X104678729Y-76111552D01*
X104780186Y-76194814D01*
X104863448Y-76296271D01*
X104892778Y-76332009D01*
X104976443Y-76488534D01*
X105027963Y-76658373D01*
X105045359Y-76835000D01*
X105027963Y-77011627D01*
X104976443Y-77181466D01*
X104892778Y-77337991D01*
X104863448Y-77373729D01*
X104780186Y-77475186D01*
X104678729Y-77558448D01*
X104642991Y-77587778D01*
X104486466Y-77671443D01*
X104316627Y-77722963D01*
X104250443Y-77729481D01*
X104184260Y-77736000D01*
X104095740Y-77736000D01*
X104029557Y-77729481D01*
X103963373Y-77722963D01*
X103793534Y-77671443D01*
X103637009Y-77587778D01*
X103601271Y-77558448D01*
X103499814Y-77475186D01*
X103416552Y-77373729D01*
X103387222Y-77337991D01*
X103303557Y-77181466D01*
X103252037Y-77011627D01*
X103234641Y-76835000D01*
X103252037Y-76658373D01*
X103303557Y-76488534D01*
X103387222Y-76332009D01*
X103416552Y-76296271D01*
X103499814Y-76194814D01*
X103601271Y-76111552D01*
X103637009Y-76082222D01*
X103793534Y-75998557D01*
X103963373Y-75947037D01*
X104029558Y-75940518D01*
X104095740Y-75934000D01*
X104184260Y-75934000D01*
X104250442Y-75940518D01*
X104250442Y-75940518D01*
G37*
G36*
X100440442Y-75940518D02*
G01*
X100506627Y-75947037D01*
X100676466Y-75998557D01*
X100832991Y-76082222D01*
X100868729Y-76111552D01*
X100970186Y-76194814D01*
X101053448Y-76296271D01*
X101082778Y-76332009D01*
X101166443Y-76488534D01*
X101217963Y-76658373D01*
X101235359Y-76835000D01*
X101217963Y-77011627D01*
X101166443Y-77181466D01*
X101082778Y-77337991D01*
X101053448Y-77373729D01*
X100970186Y-77475186D01*
X100868729Y-77558448D01*
X100832991Y-77587778D01*
X100676466Y-77671443D01*
X100506627Y-77722963D01*
X100440443Y-77729481D01*
X100374260Y-77736000D01*
X100285740Y-77736000D01*
X100219557Y-77729481D01*
X100153373Y-77722963D01*
X99983534Y-77671443D01*
X99827009Y-77587778D01*
X99791271Y-77558448D01*
X99689814Y-77475186D01*
X99606552Y-77373729D01*
X99577222Y-77337991D01*
X99493557Y-77181466D01*
X99442037Y-77011627D01*
X99424641Y-76835000D01*
X99442037Y-76658373D01*
X99493557Y-76488534D01*
X99577222Y-76332009D01*
X99606552Y-76296271D01*
X99689814Y-76194814D01*
X99791271Y-76111552D01*
X99827009Y-76082222D01*
X99983534Y-75998557D01*
X100153373Y-75947037D01*
X100219558Y-75940518D01*
X100285740Y-75934000D01*
X100374260Y-75934000D01*
X100440442Y-75940518D01*
X100440442Y-75940518D01*
G37*
G36*
X113931000Y-75831000D02*
G01*
X112129000Y-75831000D01*
X112129000Y-74029000D01*
X113931000Y-74029000D01*
X113931000Y-75831000D01*
X113931000Y-75831000D01*
G37*
G36*
X115680442Y-74035518D02*
G01*
X115746627Y-74042037D01*
X115916466Y-74093557D01*
X116072991Y-74177222D01*
X116108729Y-74206552D01*
X116210186Y-74289814D01*
X116293448Y-74391271D01*
X116322778Y-74427009D01*
X116406443Y-74583534D01*
X116457963Y-74753373D01*
X116475359Y-74930000D01*
X116457963Y-75106627D01*
X116406443Y-75276466D01*
X116322778Y-75432991D01*
X116293448Y-75468729D01*
X116210186Y-75570186D01*
X116108729Y-75653448D01*
X116072991Y-75682778D01*
X115916466Y-75766443D01*
X115746627Y-75817963D01*
X115680442Y-75824482D01*
X115614260Y-75831000D01*
X115525740Y-75831000D01*
X115459558Y-75824482D01*
X115393373Y-75817963D01*
X115223534Y-75766443D01*
X115067009Y-75682778D01*
X115031271Y-75653448D01*
X114929814Y-75570186D01*
X114846552Y-75468729D01*
X114817222Y-75432991D01*
X114733557Y-75276466D01*
X114682037Y-75106627D01*
X114664641Y-74930000D01*
X114682037Y-74753373D01*
X114733557Y-74583534D01*
X114817222Y-74427009D01*
X114846552Y-74391271D01*
X114929814Y-74289814D01*
X115031271Y-74206552D01*
X115067009Y-74177222D01*
X115223534Y-74093557D01*
X115393373Y-74042037D01*
X115459558Y-74035518D01*
X115525740Y-74029000D01*
X115614260Y-74029000D01*
X115680442Y-74035518D01*
X115680442Y-74035518D01*
G37*
G36*
X123610443Y-73515519D02*
G01*
X123676627Y-73522037D01*
X123846466Y-73573557D01*
X124002991Y-73657222D01*
X124038729Y-73686552D01*
X124140186Y-73769814D01*
X124223448Y-73871271D01*
X124252778Y-73907009D01*
X124336443Y-74063534D01*
X124387963Y-74233373D01*
X124405359Y-74410000D01*
X124387963Y-74586627D01*
X124336443Y-74756466D01*
X124252778Y-74912991D01*
X124234563Y-74935186D01*
X124140186Y-75050186D01*
X124071411Y-75106627D01*
X124002991Y-75162778D01*
X123846466Y-75246443D01*
X123676627Y-75297963D01*
X123610442Y-75304482D01*
X123544260Y-75311000D01*
X123455740Y-75311000D01*
X123389558Y-75304482D01*
X123323373Y-75297963D01*
X123153534Y-75246443D01*
X122997009Y-75162778D01*
X122928589Y-75106627D01*
X122859814Y-75050186D01*
X122765437Y-74935186D01*
X122747222Y-74912991D01*
X122663557Y-74756466D01*
X122612037Y-74586627D01*
X122594641Y-74410000D01*
X122612037Y-74233373D01*
X122663557Y-74063534D01*
X122747222Y-73907009D01*
X122776552Y-73871271D01*
X122859814Y-73769814D01*
X122961271Y-73686552D01*
X122997009Y-73657222D01*
X123153534Y-73573557D01*
X123323373Y-73522037D01*
X123389557Y-73515519D01*
X123455740Y-73509000D01*
X123544260Y-73509000D01*
X123610443Y-73515519D01*
X123610443Y-73515519D01*
G37*
G36*
X121070443Y-73515519D02*
G01*
X121136627Y-73522037D01*
X121306466Y-73573557D01*
X121462991Y-73657222D01*
X121498729Y-73686552D01*
X121600186Y-73769814D01*
X121683448Y-73871271D01*
X121712778Y-73907009D01*
X121796443Y-74063534D01*
X121847963Y-74233373D01*
X121865359Y-74410000D01*
X121847963Y-74586627D01*
X121796443Y-74756466D01*
X121712778Y-74912991D01*
X121694563Y-74935186D01*
X121600186Y-75050186D01*
X121531411Y-75106627D01*
X121462991Y-75162778D01*
X121306466Y-75246443D01*
X121136627Y-75297963D01*
X121070442Y-75304482D01*
X121004260Y-75311000D01*
X120915740Y-75311000D01*
X120849558Y-75304482D01*
X120783373Y-75297963D01*
X120613534Y-75246443D01*
X120457009Y-75162778D01*
X120388589Y-75106627D01*
X120319814Y-75050186D01*
X120225437Y-74935186D01*
X120207222Y-74912991D01*
X120123557Y-74756466D01*
X120072037Y-74586627D01*
X120054641Y-74410000D01*
X120072037Y-74233373D01*
X120123557Y-74063534D01*
X120207222Y-73907009D01*
X120236552Y-73871271D01*
X120319814Y-73769814D01*
X120421271Y-73686552D01*
X120457009Y-73657222D01*
X120613534Y-73573557D01*
X120783373Y-73522037D01*
X120849557Y-73515519D01*
X120915740Y-73509000D01*
X121004260Y-73509000D01*
X121070443Y-73515519D01*
X121070443Y-73515519D01*
G37*
G36*
X106790443Y-73400519D02*
G01*
X106856627Y-73407037D01*
X107026466Y-73458557D01*
X107182991Y-73542222D01*
X107218729Y-73571552D01*
X107320186Y-73654814D01*
X107403448Y-73756271D01*
X107432778Y-73792009D01*
X107516443Y-73948534D01*
X107567963Y-74118373D01*
X107585359Y-74295000D01*
X107567963Y-74471627D01*
X107516443Y-74641466D01*
X107432778Y-74797991D01*
X107403448Y-74833729D01*
X107320186Y-74935186D01*
X107218729Y-75018448D01*
X107182991Y-75047778D01*
X107026466Y-75131443D01*
X106856627Y-75182963D01*
X106790442Y-75189482D01*
X106724260Y-75196000D01*
X106635740Y-75196000D01*
X106569558Y-75189482D01*
X106503373Y-75182963D01*
X106333534Y-75131443D01*
X106177009Y-75047778D01*
X106141271Y-75018448D01*
X106039814Y-74935186D01*
X105956552Y-74833729D01*
X105927222Y-74797991D01*
X105843557Y-74641466D01*
X105792037Y-74471627D01*
X105774641Y-74295000D01*
X105792037Y-74118373D01*
X105843557Y-73948534D01*
X105927222Y-73792009D01*
X105956552Y-73756271D01*
X106039814Y-73654814D01*
X106141271Y-73571552D01*
X106177009Y-73542222D01*
X106333534Y-73458557D01*
X106503373Y-73407037D01*
X106569557Y-73400519D01*
X106635740Y-73394000D01*
X106724260Y-73394000D01*
X106790443Y-73400519D01*
X106790443Y-73400519D01*
G37*
G36*
X104250443Y-73400519D02*
G01*
X104316627Y-73407037D01*
X104486466Y-73458557D01*
X104642991Y-73542222D01*
X104678729Y-73571552D01*
X104780186Y-73654814D01*
X104863448Y-73756271D01*
X104892778Y-73792009D01*
X104976443Y-73948534D01*
X105027963Y-74118373D01*
X105045359Y-74295000D01*
X105027963Y-74471627D01*
X104976443Y-74641466D01*
X104892778Y-74797991D01*
X104863448Y-74833729D01*
X104780186Y-74935186D01*
X104678729Y-75018448D01*
X104642991Y-75047778D01*
X104486466Y-75131443D01*
X104316627Y-75182963D01*
X104250442Y-75189482D01*
X104184260Y-75196000D01*
X104095740Y-75196000D01*
X104029558Y-75189482D01*
X103963373Y-75182963D01*
X103793534Y-75131443D01*
X103637009Y-75047778D01*
X103601271Y-75018448D01*
X103499814Y-74935186D01*
X103416552Y-74833729D01*
X103387222Y-74797991D01*
X103303557Y-74641466D01*
X103252037Y-74471627D01*
X103234641Y-74295000D01*
X103252037Y-74118373D01*
X103303557Y-73948534D01*
X103387222Y-73792009D01*
X103416552Y-73756271D01*
X103499814Y-73654814D01*
X103601271Y-73571552D01*
X103637009Y-73542222D01*
X103793534Y-73458557D01*
X103963373Y-73407037D01*
X104029557Y-73400519D01*
X104095740Y-73394000D01*
X104184260Y-73394000D01*
X104250443Y-73400519D01*
X104250443Y-73400519D01*
G37*
G36*
X97900443Y-73400519D02*
G01*
X97966627Y-73407037D01*
X98136466Y-73458557D01*
X98292991Y-73542222D01*
X98328729Y-73571552D01*
X98430186Y-73654814D01*
X98513448Y-73756271D01*
X98542778Y-73792009D01*
X98626443Y-73948534D01*
X98677963Y-74118373D01*
X98695359Y-74295000D01*
X98677963Y-74471627D01*
X98626443Y-74641466D01*
X98542778Y-74797991D01*
X98513448Y-74833729D01*
X98430186Y-74935186D01*
X98328729Y-75018448D01*
X98292991Y-75047778D01*
X98136466Y-75131443D01*
X97966627Y-75182963D01*
X97900442Y-75189482D01*
X97834260Y-75196000D01*
X97745740Y-75196000D01*
X97679558Y-75189482D01*
X97613373Y-75182963D01*
X97443534Y-75131443D01*
X97287009Y-75047778D01*
X97251271Y-75018448D01*
X97149814Y-74935186D01*
X97066552Y-74833729D01*
X97037222Y-74797991D01*
X96953557Y-74641466D01*
X96902037Y-74471627D01*
X96884641Y-74295000D01*
X96902037Y-74118373D01*
X96953557Y-73948534D01*
X97037222Y-73792009D01*
X97066552Y-73756271D01*
X97149814Y-73654814D01*
X97251271Y-73571552D01*
X97287009Y-73542222D01*
X97443534Y-73458557D01*
X97613373Y-73407037D01*
X97679557Y-73400519D01*
X97745740Y-73394000D01*
X97834260Y-73394000D01*
X97900443Y-73400519D01*
X97900443Y-73400519D01*
G37*
G36*
X100440443Y-73400519D02*
G01*
X100506627Y-73407037D01*
X100676466Y-73458557D01*
X100832991Y-73542222D01*
X100868729Y-73571552D01*
X100970186Y-73654814D01*
X101053448Y-73756271D01*
X101082778Y-73792009D01*
X101166443Y-73948534D01*
X101217963Y-74118373D01*
X101235359Y-74295000D01*
X101217963Y-74471627D01*
X101166443Y-74641466D01*
X101082778Y-74797991D01*
X101053448Y-74833729D01*
X100970186Y-74935186D01*
X100868729Y-75018448D01*
X100832991Y-75047778D01*
X100676466Y-75131443D01*
X100506627Y-75182963D01*
X100440442Y-75189482D01*
X100374260Y-75196000D01*
X100285740Y-75196000D01*
X100219558Y-75189482D01*
X100153373Y-75182963D01*
X99983534Y-75131443D01*
X99827009Y-75047778D01*
X99791271Y-75018448D01*
X99689814Y-74935186D01*
X99606552Y-74833729D01*
X99577222Y-74797991D01*
X99493557Y-74641466D01*
X99442037Y-74471627D01*
X99424641Y-74295000D01*
X99442037Y-74118373D01*
X99493557Y-73948534D01*
X99577222Y-73792009D01*
X99606552Y-73756271D01*
X99689814Y-73654814D01*
X99791271Y-73571552D01*
X99827009Y-73542222D01*
X99983534Y-73458557D01*
X100153373Y-73407037D01*
X100219557Y-73400519D01*
X100285740Y-73394000D01*
X100374260Y-73394000D01*
X100440443Y-73400519D01*
X100440443Y-73400519D01*
G37*
G36*
X121070442Y-70975518D02*
G01*
X121136627Y-70982037D01*
X121306466Y-71033557D01*
X121462991Y-71117222D01*
X121498729Y-71146552D01*
X121600186Y-71229814D01*
X121683448Y-71331271D01*
X121712778Y-71367009D01*
X121796443Y-71523534D01*
X121847963Y-71693373D01*
X121865359Y-71870000D01*
X121847963Y-72046627D01*
X121796443Y-72216466D01*
X121712778Y-72372991D01*
X121694563Y-72395186D01*
X121600186Y-72510186D01*
X121501174Y-72591442D01*
X121462991Y-72622778D01*
X121306466Y-72706443D01*
X121136627Y-72757963D01*
X121070443Y-72764481D01*
X121004260Y-72771000D01*
X120915740Y-72771000D01*
X120849557Y-72764481D01*
X120783373Y-72757963D01*
X120613534Y-72706443D01*
X120457009Y-72622778D01*
X120418826Y-72591442D01*
X120319814Y-72510186D01*
X120225437Y-72395186D01*
X120207222Y-72372991D01*
X120123557Y-72216466D01*
X120072037Y-72046627D01*
X120054641Y-71870000D01*
X120072037Y-71693373D01*
X120123557Y-71523534D01*
X120207222Y-71367009D01*
X120236552Y-71331271D01*
X120319814Y-71229814D01*
X120421271Y-71146552D01*
X120457009Y-71117222D01*
X120613534Y-71033557D01*
X120783373Y-70982037D01*
X120849558Y-70975518D01*
X120915740Y-70969000D01*
X121004260Y-70969000D01*
X121070442Y-70975518D01*
X121070442Y-70975518D01*
G37*
G36*
X123610442Y-70975518D02*
G01*
X123676627Y-70982037D01*
X123846466Y-71033557D01*
X124002991Y-71117222D01*
X124038729Y-71146552D01*
X124140186Y-71229814D01*
X124223448Y-71331271D01*
X124252778Y-71367009D01*
X124336443Y-71523534D01*
X124387963Y-71693373D01*
X124405359Y-71870000D01*
X124387963Y-72046627D01*
X124336443Y-72216466D01*
X124252778Y-72372991D01*
X124234563Y-72395186D01*
X124140186Y-72510186D01*
X124041174Y-72591442D01*
X124002991Y-72622778D01*
X123846466Y-72706443D01*
X123676627Y-72757963D01*
X123610443Y-72764481D01*
X123544260Y-72771000D01*
X123455740Y-72771000D01*
X123389557Y-72764481D01*
X123323373Y-72757963D01*
X123153534Y-72706443D01*
X122997009Y-72622778D01*
X122958826Y-72591442D01*
X122859814Y-72510186D01*
X122765437Y-72395186D01*
X122747222Y-72372991D01*
X122663557Y-72216466D01*
X122612037Y-72046627D01*
X122594641Y-71870000D01*
X122612037Y-71693373D01*
X122663557Y-71523534D01*
X122747222Y-71367009D01*
X122776552Y-71331271D01*
X122859814Y-71229814D01*
X122961271Y-71146552D01*
X122997009Y-71117222D01*
X123153534Y-71033557D01*
X123323373Y-70982037D01*
X123389558Y-70975518D01*
X123455740Y-70969000D01*
X123544260Y-70969000D01*
X123610442Y-70975518D01*
X123610442Y-70975518D01*
G37*
G36*
X106790442Y-70860518D02*
G01*
X106856627Y-70867037D01*
X107026466Y-70918557D01*
X107182991Y-71002222D01*
X107218729Y-71031552D01*
X107320186Y-71114814D01*
X107403448Y-71216271D01*
X107432778Y-71252009D01*
X107516443Y-71408534D01*
X107567963Y-71578373D01*
X107585359Y-71755000D01*
X107567963Y-71931627D01*
X107516443Y-72101466D01*
X107432778Y-72257991D01*
X107403448Y-72293729D01*
X107320186Y-72395186D01*
X107218729Y-72478448D01*
X107182991Y-72507778D01*
X107026466Y-72591443D01*
X106856627Y-72642963D01*
X106790443Y-72649481D01*
X106724260Y-72656000D01*
X106635740Y-72656000D01*
X106569557Y-72649481D01*
X106503373Y-72642963D01*
X106333534Y-72591443D01*
X106177009Y-72507778D01*
X106141271Y-72478448D01*
X106039814Y-72395186D01*
X105956552Y-72293729D01*
X105927222Y-72257991D01*
X105843557Y-72101466D01*
X105792037Y-71931627D01*
X105774641Y-71755000D01*
X105792037Y-71578373D01*
X105843557Y-71408534D01*
X105927222Y-71252009D01*
X105956552Y-71216271D01*
X106039814Y-71114814D01*
X106141271Y-71031552D01*
X106177009Y-71002222D01*
X106333534Y-70918557D01*
X106503373Y-70867037D01*
X106569558Y-70860518D01*
X106635740Y-70854000D01*
X106724260Y-70854000D01*
X106790442Y-70860518D01*
X106790442Y-70860518D01*
G37*
G36*
X97900442Y-70860518D02*
G01*
X97966627Y-70867037D01*
X98136466Y-70918557D01*
X98292991Y-71002222D01*
X98328729Y-71031552D01*
X98430186Y-71114814D01*
X98513448Y-71216271D01*
X98542778Y-71252009D01*
X98626443Y-71408534D01*
X98677963Y-71578373D01*
X98695359Y-71755000D01*
X98677963Y-71931627D01*
X98626443Y-72101466D01*
X98542778Y-72257991D01*
X98513448Y-72293729D01*
X98430186Y-72395186D01*
X98328729Y-72478448D01*
X98292991Y-72507778D01*
X98136466Y-72591443D01*
X97966627Y-72642963D01*
X97900443Y-72649481D01*
X97834260Y-72656000D01*
X97745740Y-72656000D01*
X97679557Y-72649481D01*
X97613373Y-72642963D01*
X97443534Y-72591443D01*
X97287009Y-72507778D01*
X97251271Y-72478448D01*
X97149814Y-72395186D01*
X97066552Y-72293729D01*
X97037222Y-72257991D01*
X96953557Y-72101466D01*
X96902037Y-71931627D01*
X96884641Y-71755000D01*
X96902037Y-71578373D01*
X96953557Y-71408534D01*
X97037222Y-71252009D01*
X97066552Y-71216271D01*
X97149814Y-71114814D01*
X97251271Y-71031552D01*
X97287009Y-71002222D01*
X97443534Y-70918557D01*
X97613373Y-70867037D01*
X97679558Y-70860518D01*
X97745740Y-70854000D01*
X97834260Y-70854000D01*
X97900442Y-70860518D01*
X97900442Y-70860518D01*
G37*
G36*
X104250442Y-70860518D02*
G01*
X104316627Y-70867037D01*
X104486466Y-70918557D01*
X104642991Y-71002222D01*
X104678729Y-71031552D01*
X104780186Y-71114814D01*
X104863448Y-71216271D01*
X104892778Y-71252009D01*
X104976443Y-71408534D01*
X105027963Y-71578373D01*
X105045359Y-71755000D01*
X105027963Y-71931627D01*
X104976443Y-72101466D01*
X104892778Y-72257991D01*
X104863448Y-72293729D01*
X104780186Y-72395186D01*
X104678729Y-72478448D01*
X104642991Y-72507778D01*
X104486466Y-72591443D01*
X104316627Y-72642963D01*
X104250443Y-72649481D01*
X104184260Y-72656000D01*
X104095740Y-72656000D01*
X104029557Y-72649481D01*
X103963373Y-72642963D01*
X103793534Y-72591443D01*
X103637009Y-72507778D01*
X103601271Y-72478448D01*
X103499814Y-72395186D01*
X103416552Y-72293729D01*
X103387222Y-72257991D01*
X103303557Y-72101466D01*
X103252037Y-71931627D01*
X103234641Y-71755000D01*
X103252037Y-71578373D01*
X103303557Y-71408534D01*
X103387222Y-71252009D01*
X103416552Y-71216271D01*
X103499814Y-71114814D01*
X103601271Y-71031552D01*
X103637009Y-71002222D01*
X103793534Y-70918557D01*
X103963373Y-70867037D01*
X104029558Y-70860518D01*
X104095740Y-70854000D01*
X104184260Y-70854000D01*
X104250442Y-70860518D01*
X104250442Y-70860518D01*
G37*
G36*
X100440442Y-70860518D02*
G01*
X100506627Y-70867037D01*
X100676466Y-70918557D01*
X100832991Y-71002222D01*
X100868729Y-71031552D01*
X100970186Y-71114814D01*
X101053448Y-71216271D01*
X101082778Y-71252009D01*
X101166443Y-71408534D01*
X101217963Y-71578373D01*
X101235359Y-71755000D01*
X101217963Y-71931627D01*
X101166443Y-72101466D01*
X101082778Y-72257991D01*
X101053448Y-72293729D01*
X100970186Y-72395186D01*
X100868729Y-72478448D01*
X100832991Y-72507778D01*
X100676466Y-72591443D01*
X100506627Y-72642963D01*
X100440443Y-72649481D01*
X100374260Y-72656000D01*
X100285740Y-72656000D01*
X100219557Y-72649481D01*
X100153373Y-72642963D01*
X99983534Y-72591443D01*
X99827009Y-72507778D01*
X99791271Y-72478448D01*
X99689814Y-72395186D01*
X99606552Y-72293729D01*
X99577222Y-72257991D01*
X99493557Y-72101466D01*
X99442037Y-71931627D01*
X99424641Y-71755000D01*
X99442037Y-71578373D01*
X99493557Y-71408534D01*
X99577222Y-71252009D01*
X99606552Y-71216271D01*
X99689814Y-71114814D01*
X99791271Y-71031552D01*
X99827009Y-71002222D01*
X99983534Y-70918557D01*
X100153373Y-70867037D01*
X100219558Y-70860518D01*
X100285740Y-70854000D01*
X100374260Y-70854000D01*
X100440442Y-70860518D01*
X100440442Y-70860518D01*
G37*
G36*
X121070442Y-68435518D02*
G01*
X121136627Y-68442037D01*
X121306466Y-68493557D01*
X121462991Y-68577222D01*
X121498729Y-68606552D01*
X121600186Y-68689814D01*
X121683448Y-68791271D01*
X121712778Y-68827009D01*
X121796443Y-68983534D01*
X121847963Y-69153373D01*
X121865359Y-69330000D01*
X121847963Y-69506627D01*
X121796443Y-69676466D01*
X121712778Y-69832991D01*
X121694563Y-69855186D01*
X121600186Y-69970186D01*
X121501174Y-70051442D01*
X121462991Y-70082778D01*
X121306466Y-70166443D01*
X121136627Y-70217963D01*
X121070442Y-70224482D01*
X121004260Y-70231000D01*
X120915740Y-70231000D01*
X120849558Y-70224482D01*
X120783373Y-70217963D01*
X120613534Y-70166443D01*
X120457009Y-70082778D01*
X120418826Y-70051442D01*
X120319814Y-69970186D01*
X120225437Y-69855186D01*
X120207222Y-69832991D01*
X120123557Y-69676466D01*
X120072037Y-69506627D01*
X120054641Y-69330000D01*
X120072037Y-69153373D01*
X120123557Y-68983534D01*
X120207222Y-68827009D01*
X120236552Y-68791271D01*
X120319814Y-68689814D01*
X120421271Y-68606552D01*
X120457009Y-68577222D01*
X120613534Y-68493557D01*
X120783373Y-68442037D01*
X120849558Y-68435518D01*
X120915740Y-68429000D01*
X121004260Y-68429000D01*
X121070442Y-68435518D01*
X121070442Y-68435518D01*
G37*
G36*
X123610442Y-68435518D02*
G01*
X123676627Y-68442037D01*
X123846466Y-68493557D01*
X124002991Y-68577222D01*
X124038729Y-68606552D01*
X124140186Y-68689814D01*
X124223448Y-68791271D01*
X124252778Y-68827009D01*
X124336443Y-68983534D01*
X124387963Y-69153373D01*
X124405359Y-69330000D01*
X124387963Y-69506627D01*
X124336443Y-69676466D01*
X124252778Y-69832991D01*
X124234563Y-69855186D01*
X124140186Y-69970186D01*
X124041174Y-70051442D01*
X124002991Y-70082778D01*
X123846466Y-70166443D01*
X123676627Y-70217963D01*
X123610442Y-70224482D01*
X123544260Y-70231000D01*
X123455740Y-70231000D01*
X123389558Y-70224482D01*
X123323373Y-70217963D01*
X123153534Y-70166443D01*
X122997009Y-70082778D01*
X122958826Y-70051442D01*
X122859814Y-69970186D01*
X122765437Y-69855186D01*
X122747222Y-69832991D01*
X122663557Y-69676466D01*
X122612037Y-69506627D01*
X122594641Y-69330000D01*
X122612037Y-69153373D01*
X122663557Y-68983534D01*
X122747222Y-68827009D01*
X122776552Y-68791271D01*
X122859814Y-68689814D01*
X122961271Y-68606552D01*
X122997009Y-68577222D01*
X123153534Y-68493557D01*
X123323373Y-68442037D01*
X123389558Y-68435518D01*
X123455740Y-68429000D01*
X123544260Y-68429000D01*
X123610442Y-68435518D01*
X123610442Y-68435518D01*
G37*
G36*
X104250442Y-68320518D02*
G01*
X104316627Y-68327037D01*
X104486466Y-68378557D01*
X104642991Y-68462222D01*
X104678729Y-68491552D01*
X104780186Y-68574814D01*
X104863448Y-68676271D01*
X104892778Y-68712009D01*
X104976443Y-68868534D01*
X105027963Y-69038373D01*
X105045359Y-69215000D01*
X105027963Y-69391627D01*
X104976443Y-69561466D01*
X104892778Y-69717991D01*
X104863448Y-69753729D01*
X104780186Y-69855186D01*
X104678729Y-69938448D01*
X104642991Y-69967778D01*
X104486466Y-70051443D01*
X104316627Y-70102963D01*
X104250442Y-70109482D01*
X104184260Y-70116000D01*
X104095740Y-70116000D01*
X104029558Y-70109482D01*
X103963373Y-70102963D01*
X103793534Y-70051443D01*
X103637009Y-69967778D01*
X103601271Y-69938448D01*
X103499814Y-69855186D01*
X103416552Y-69753729D01*
X103387222Y-69717991D01*
X103303557Y-69561466D01*
X103252037Y-69391627D01*
X103234641Y-69215000D01*
X103252037Y-69038373D01*
X103303557Y-68868534D01*
X103387222Y-68712009D01*
X103416552Y-68676271D01*
X103499814Y-68574814D01*
X103601271Y-68491552D01*
X103637009Y-68462222D01*
X103793534Y-68378557D01*
X103963373Y-68327037D01*
X104029558Y-68320518D01*
X104095740Y-68314000D01*
X104184260Y-68314000D01*
X104250442Y-68320518D01*
X104250442Y-68320518D01*
G37*
G36*
X97900442Y-68320518D02*
G01*
X97966627Y-68327037D01*
X98136466Y-68378557D01*
X98292991Y-68462222D01*
X98328729Y-68491552D01*
X98430186Y-68574814D01*
X98513448Y-68676271D01*
X98542778Y-68712009D01*
X98626443Y-68868534D01*
X98677963Y-69038373D01*
X98695359Y-69215000D01*
X98677963Y-69391627D01*
X98626443Y-69561466D01*
X98542778Y-69717991D01*
X98513448Y-69753729D01*
X98430186Y-69855186D01*
X98328729Y-69938448D01*
X98292991Y-69967778D01*
X98136466Y-70051443D01*
X97966627Y-70102963D01*
X97900442Y-70109482D01*
X97834260Y-70116000D01*
X97745740Y-70116000D01*
X97679558Y-70109482D01*
X97613373Y-70102963D01*
X97443534Y-70051443D01*
X97287009Y-69967778D01*
X97251271Y-69938448D01*
X97149814Y-69855186D01*
X97066552Y-69753729D01*
X97037222Y-69717991D01*
X96953557Y-69561466D01*
X96902037Y-69391627D01*
X96884641Y-69215000D01*
X96902037Y-69038373D01*
X96953557Y-68868534D01*
X97037222Y-68712009D01*
X97066552Y-68676271D01*
X97149814Y-68574814D01*
X97251271Y-68491552D01*
X97287009Y-68462222D01*
X97443534Y-68378557D01*
X97613373Y-68327037D01*
X97679558Y-68320518D01*
X97745740Y-68314000D01*
X97834260Y-68314000D01*
X97900442Y-68320518D01*
X97900442Y-68320518D01*
G37*
G36*
X100440442Y-68320518D02*
G01*
X100506627Y-68327037D01*
X100676466Y-68378557D01*
X100832991Y-68462222D01*
X100868729Y-68491552D01*
X100970186Y-68574814D01*
X101053448Y-68676271D01*
X101082778Y-68712009D01*
X101166443Y-68868534D01*
X101217963Y-69038373D01*
X101235359Y-69215000D01*
X101217963Y-69391627D01*
X101166443Y-69561466D01*
X101082778Y-69717991D01*
X101053448Y-69753729D01*
X100970186Y-69855186D01*
X100868729Y-69938448D01*
X100832991Y-69967778D01*
X100676466Y-70051443D01*
X100506627Y-70102963D01*
X100440442Y-70109482D01*
X100374260Y-70116000D01*
X100285740Y-70116000D01*
X100219558Y-70109482D01*
X100153373Y-70102963D01*
X99983534Y-70051443D01*
X99827009Y-69967778D01*
X99791271Y-69938448D01*
X99689814Y-69855186D01*
X99606552Y-69753729D01*
X99577222Y-69717991D01*
X99493557Y-69561466D01*
X99442037Y-69391627D01*
X99424641Y-69215000D01*
X99442037Y-69038373D01*
X99493557Y-68868534D01*
X99577222Y-68712009D01*
X99606552Y-68676271D01*
X99689814Y-68574814D01*
X99791271Y-68491552D01*
X99827009Y-68462222D01*
X99983534Y-68378557D01*
X100153373Y-68327037D01*
X100219558Y-68320518D01*
X100285740Y-68314000D01*
X100374260Y-68314000D01*
X100440442Y-68320518D01*
X100440442Y-68320518D01*
G37*
G36*
X106790442Y-68320518D02*
G01*
X106856627Y-68327037D01*
X107026466Y-68378557D01*
X107182991Y-68462222D01*
X107218729Y-68491552D01*
X107320186Y-68574814D01*
X107403448Y-68676271D01*
X107432778Y-68712009D01*
X107516443Y-68868534D01*
X107567963Y-69038373D01*
X107585359Y-69215000D01*
X107567963Y-69391627D01*
X107516443Y-69561466D01*
X107432778Y-69717991D01*
X107403448Y-69753729D01*
X107320186Y-69855186D01*
X107218729Y-69938448D01*
X107182991Y-69967778D01*
X107026466Y-70051443D01*
X106856627Y-70102963D01*
X106790442Y-70109482D01*
X106724260Y-70116000D01*
X106635740Y-70116000D01*
X106569558Y-70109482D01*
X106503373Y-70102963D01*
X106333534Y-70051443D01*
X106177009Y-69967778D01*
X106141271Y-69938448D01*
X106039814Y-69855186D01*
X105956552Y-69753729D01*
X105927222Y-69717991D01*
X105843557Y-69561466D01*
X105792037Y-69391627D01*
X105774641Y-69215000D01*
X105792037Y-69038373D01*
X105843557Y-68868534D01*
X105927222Y-68712009D01*
X105956552Y-68676271D01*
X106039814Y-68574814D01*
X106141271Y-68491552D01*
X106177009Y-68462222D01*
X106333534Y-68378557D01*
X106503373Y-68327037D01*
X106569558Y-68320518D01*
X106635740Y-68314000D01*
X106724260Y-68314000D01*
X106790442Y-68320518D01*
X106790442Y-68320518D01*
G37*
G36*
X121070442Y-65895518D02*
G01*
X121136627Y-65902037D01*
X121306466Y-65953557D01*
X121462991Y-66037222D01*
X121498729Y-66066552D01*
X121600186Y-66149814D01*
X121683448Y-66251271D01*
X121712778Y-66287009D01*
X121796443Y-66443534D01*
X121847963Y-66613373D01*
X121865359Y-66790000D01*
X121847963Y-66966627D01*
X121796443Y-67136466D01*
X121712778Y-67292991D01*
X121694563Y-67315186D01*
X121600186Y-67430186D01*
X121501174Y-67511442D01*
X121462991Y-67542778D01*
X121306466Y-67626443D01*
X121136627Y-67677963D01*
X121070442Y-67684482D01*
X121004260Y-67691000D01*
X120915740Y-67691000D01*
X120849558Y-67684482D01*
X120783373Y-67677963D01*
X120613534Y-67626443D01*
X120457009Y-67542778D01*
X120418826Y-67511442D01*
X120319814Y-67430186D01*
X120225437Y-67315186D01*
X120207222Y-67292991D01*
X120123557Y-67136466D01*
X120072037Y-66966627D01*
X120054641Y-66790000D01*
X120072037Y-66613373D01*
X120123557Y-66443534D01*
X120207222Y-66287009D01*
X120236552Y-66251271D01*
X120319814Y-66149814D01*
X120421271Y-66066552D01*
X120457009Y-66037222D01*
X120613534Y-65953557D01*
X120783373Y-65902037D01*
X120849558Y-65895518D01*
X120915740Y-65889000D01*
X121004260Y-65889000D01*
X121070442Y-65895518D01*
X121070442Y-65895518D01*
G37*
G36*
X123610442Y-65895518D02*
G01*
X123676627Y-65902037D01*
X123846466Y-65953557D01*
X124002991Y-66037222D01*
X124038729Y-66066552D01*
X124140186Y-66149814D01*
X124223448Y-66251271D01*
X124252778Y-66287009D01*
X124336443Y-66443534D01*
X124387963Y-66613373D01*
X124405359Y-66790000D01*
X124387963Y-66966627D01*
X124336443Y-67136466D01*
X124252778Y-67292991D01*
X124234563Y-67315186D01*
X124140186Y-67430186D01*
X124041174Y-67511442D01*
X124002991Y-67542778D01*
X123846466Y-67626443D01*
X123676627Y-67677963D01*
X123610442Y-67684482D01*
X123544260Y-67691000D01*
X123455740Y-67691000D01*
X123389558Y-67684482D01*
X123323373Y-67677963D01*
X123153534Y-67626443D01*
X122997009Y-67542778D01*
X122958826Y-67511442D01*
X122859814Y-67430186D01*
X122765437Y-67315186D01*
X122747222Y-67292991D01*
X122663557Y-67136466D01*
X122612037Y-66966627D01*
X122594641Y-66790000D01*
X122612037Y-66613373D01*
X122663557Y-66443534D01*
X122747222Y-66287009D01*
X122776552Y-66251271D01*
X122859814Y-66149814D01*
X122961271Y-66066552D01*
X122997009Y-66037222D01*
X123153534Y-65953557D01*
X123323373Y-65902037D01*
X123389558Y-65895518D01*
X123455740Y-65889000D01*
X123544260Y-65889000D01*
X123610442Y-65895518D01*
X123610442Y-65895518D01*
G37*
G36*
X100440443Y-65780519D02*
G01*
X100506627Y-65787037D01*
X100676466Y-65838557D01*
X100832991Y-65922222D01*
X100868729Y-65951552D01*
X100970186Y-66034814D01*
X101053448Y-66136271D01*
X101082778Y-66172009D01*
X101166443Y-66328534D01*
X101217963Y-66498373D01*
X101235359Y-66675000D01*
X101217963Y-66851627D01*
X101166443Y-67021466D01*
X101082778Y-67177991D01*
X101053448Y-67213729D01*
X100970186Y-67315186D01*
X100868729Y-67398448D01*
X100832991Y-67427778D01*
X100676466Y-67511443D01*
X100506627Y-67562963D01*
X100440443Y-67569481D01*
X100374260Y-67576000D01*
X100285740Y-67576000D01*
X100219557Y-67569481D01*
X100153373Y-67562963D01*
X99983534Y-67511443D01*
X99827009Y-67427778D01*
X99791271Y-67398448D01*
X99689814Y-67315186D01*
X99606552Y-67213729D01*
X99577222Y-67177991D01*
X99493557Y-67021466D01*
X99442037Y-66851627D01*
X99424641Y-66675000D01*
X99442037Y-66498373D01*
X99493557Y-66328534D01*
X99577222Y-66172009D01*
X99606552Y-66136271D01*
X99689814Y-66034814D01*
X99791271Y-65951552D01*
X99827009Y-65922222D01*
X99983534Y-65838557D01*
X100153373Y-65787037D01*
X100219557Y-65780519D01*
X100285740Y-65774000D01*
X100374260Y-65774000D01*
X100440443Y-65780519D01*
X100440443Y-65780519D01*
G37*
G36*
X97900443Y-65780519D02*
G01*
X97966627Y-65787037D01*
X98136466Y-65838557D01*
X98292991Y-65922222D01*
X98328729Y-65951552D01*
X98430186Y-66034814D01*
X98513448Y-66136271D01*
X98542778Y-66172009D01*
X98626443Y-66328534D01*
X98677963Y-66498373D01*
X98695359Y-66675000D01*
X98677963Y-66851627D01*
X98626443Y-67021466D01*
X98542778Y-67177991D01*
X98513448Y-67213729D01*
X98430186Y-67315186D01*
X98328729Y-67398448D01*
X98292991Y-67427778D01*
X98136466Y-67511443D01*
X97966627Y-67562963D01*
X97900443Y-67569481D01*
X97834260Y-67576000D01*
X97745740Y-67576000D01*
X97679557Y-67569481D01*
X97613373Y-67562963D01*
X97443534Y-67511443D01*
X97287009Y-67427778D01*
X97251271Y-67398448D01*
X97149814Y-67315186D01*
X97066552Y-67213729D01*
X97037222Y-67177991D01*
X96953557Y-67021466D01*
X96902037Y-66851627D01*
X96884641Y-66675000D01*
X96902037Y-66498373D01*
X96953557Y-66328534D01*
X97037222Y-66172009D01*
X97066552Y-66136271D01*
X97149814Y-66034814D01*
X97251271Y-65951552D01*
X97287009Y-65922222D01*
X97443534Y-65838557D01*
X97613373Y-65787037D01*
X97679557Y-65780519D01*
X97745740Y-65774000D01*
X97834260Y-65774000D01*
X97900443Y-65780519D01*
X97900443Y-65780519D01*
G37*
G36*
X104250443Y-65780519D02*
G01*
X104316627Y-65787037D01*
X104486466Y-65838557D01*
X104642991Y-65922222D01*
X104678729Y-65951552D01*
X104780186Y-66034814D01*
X104863448Y-66136271D01*
X104892778Y-66172009D01*
X104976443Y-66328534D01*
X105027963Y-66498373D01*
X105045359Y-66675000D01*
X105027963Y-66851627D01*
X104976443Y-67021466D01*
X104892778Y-67177991D01*
X104863448Y-67213729D01*
X104780186Y-67315186D01*
X104678729Y-67398448D01*
X104642991Y-67427778D01*
X104486466Y-67511443D01*
X104316627Y-67562963D01*
X104250443Y-67569481D01*
X104184260Y-67576000D01*
X104095740Y-67576000D01*
X104029557Y-67569481D01*
X103963373Y-67562963D01*
X103793534Y-67511443D01*
X103637009Y-67427778D01*
X103601271Y-67398448D01*
X103499814Y-67315186D01*
X103416552Y-67213729D01*
X103387222Y-67177991D01*
X103303557Y-67021466D01*
X103252037Y-66851627D01*
X103234641Y-66675000D01*
X103252037Y-66498373D01*
X103303557Y-66328534D01*
X103387222Y-66172009D01*
X103416552Y-66136271D01*
X103499814Y-66034814D01*
X103601271Y-65951552D01*
X103637009Y-65922222D01*
X103793534Y-65838557D01*
X103963373Y-65787037D01*
X104029557Y-65780519D01*
X104095740Y-65774000D01*
X104184260Y-65774000D01*
X104250443Y-65780519D01*
X104250443Y-65780519D01*
G37*
G36*
X106790443Y-65780519D02*
G01*
X106856627Y-65787037D01*
X107026466Y-65838557D01*
X107182991Y-65922222D01*
X107218729Y-65951552D01*
X107320186Y-66034814D01*
X107403448Y-66136271D01*
X107432778Y-66172009D01*
X107516443Y-66328534D01*
X107567963Y-66498373D01*
X107585359Y-66675000D01*
X107567963Y-66851627D01*
X107516443Y-67021466D01*
X107432778Y-67177991D01*
X107403448Y-67213729D01*
X107320186Y-67315186D01*
X107218729Y-67398448D01*
X107182991Y-67427778D01*
X107026466Y-67511443D01*
X106856627Y-67562963D01*
X106790443Y-67569481D01*
X106724260Y-67576000D01*
X106635740Y-67576000D01*
X106569557Y-67569481D01*
X106503373Y-67562963D01*
X106333534Y-67511443D01*
X106177009Y-67427778D01*
X106141271Y-67398448D01*
X106039814Y-67315186D01*
X105956552Y-67213729D01*
X105927222Y-67177991D01*
X105843557Y-67021466D01*
X105792037Y-66851627D01*
X105774641Y-66675000D01*
X105792037Y-66498373D01*
X105843557Y-66328534D01*
X105927222Y-66172009D01*
X105956552Y-66136271D01*
X106039814Y-66034814D01*
X106141271Y-65951552D01*
X106177009Y-65922222D01*
X106333534Y-65838557D01*
X106503373Y-65787037D01*
X106569557Y-65780519D01*
X106635740Y-65774000D01*
X106724260Y-65774000D01*
X106790443Y-65780519D01*
X106790443Y-65780519D01*
G37*
G36*
X123610443Y-63355519D02*
G01*
X123676627Y-63362037D01*
X123846466Y-63413557D01*
X124002991Y-63497222D01*
X124038729Y-63526552D01*
X124140186Y-63609814D01*
X124223448Y-63711271D01*
X124252778Y-63747009D01*
X124336443Y-63903534D01*
X124387963Y-64073373D01*
X124405359Y-64250000D01*
X124387963Y-64426627D01*
X124336443Y-64596466D01*
X124252778Y-64752991D01*
X124234563Y-64775186D01*
X124140186Y-64890186D01*
X124041174Y-64971442D01*
X124002991Y-65002778D01*
X123846466Y-65086443D01*
X123676627Y-65137963D01*
X123610443Y-65144481D01*
X123544260Y-65151000D01*
X123455740Y-65151000D01*
X123389557Y-65144481D01*
X123323373Y-65137963D01*
X123153534Y-65086443D01*
X122997009Y-65002778D01*
X122958826Y-64971442D01*
X122859814Y-64890186D01*
X122765437Y-64775186D01*
X122747222Y-64752991D01*
X122663557Y-64596466D01*
X122612037Y-64426627D01*
X122594641Y-64250000D01*
X122612037Y-64073373D01*
X122663557Y-63903534D01*
X122747222Y-63747009D01*
X122776552Y-63711271D01*
X122859814Y-63609814D01*
X122961271Y-63526552D01*
X122997009Y-63497222D01*
X123153534Y-63413557D01*
X123323373Y-63362037D01*
X123389557Y-63355519D01*
X123455740Y-63349000D01*
X123544260Y-63349000D01*
X123610443Y-63355519D01*
X123610443Y-63355519D01*
G37*
G36*
X121070443Y-63355519D02*
G01*
X121136627Y-63362037D01*
X121306466Y-63413557D01*
X121462991Y-63497222D01*
X121498729Y-63526552D01*
X121600186Y-63609814D01*
X121683448Y-63711271D01*
X121712778Y-63747009D01*
X121796443Y-63903534D01*
X121847963Y-64073373D01*
X121865359Y-64250000D01*
X121847963Y-64426627D01*
X121796443Y-64596466D01*
X121712778Y-64752991D01*
X121694563Y-64775186D01*
X121600186Y-64890186D01*
X121501174Y-64971442D01*
X121462991Y-65002778D01*
X121306466Y-65086443D01*
X121136627Y-65137963D01*
X121070443Y-65144481D01*
X121004260Y-65151000D01*
X120915740Y-65151000D01*
X120849557Y-65144481D01*
X120783373Y-65137963D01*
X120613534Y-65086443D01*
X120457009Y-65002778D01*
X120418826Y-64971442D01*
X120319814Y-64890186D01*
X120225437Y-64775186D01*
X120207222Y-64752991D01*
X120123557Y-64596466D01*
X120072037Y-64426627D01*
X120054641Y-64250000D01*
X120072037Y-64073373D01*
X120123557Y-63903534D01*
X120207222Y-63747009D01*
X120236552Y-63711271D01*
X120319814Y-63609814D01*
X120421271Y-63526552D01*
X120457009Y-63497222D01*
X120613534Y-63413557D01*
X120783373Y-63362037D01*
X120849557Y-63355519D01*
X120915740Y-63349000D01*
X121004260Y-63349000D01*
X121070443Y-63355519D01*
X121070443Y-63355519D01*
G37*
G36*
X106790443Y-63240519D02*
G01*
X106856627Y-63247037D01*
X107026466Y-63298557D01*
X107182991Y-63382222D01*
X107218729Y-63411552D01*
X107320186Y-63494814D01*
X107403448Y-63596271D01*
X107432778Y-63632009D01*
X107516443Y-63788534D01*
X107567963Y-63958373D01*
X107585359Y-64135000D01*
X107567963Y-64311627D01*
X107516443Y-64481466D01*
X107432778Y-64637991D01*
X107403448Y-64673729D01*
X107320186Y-64775186D01*
X107218729Y-64858448D01*
X107182991Y-64887778D01*
X107026466Y-64971443D01*
X106856627Y-65022963D01*
X106790442Y-65029482D01*
X106724260Y-65036000D01*
X106635740Y-65036000D01*
X106569558Y-65029482D01*
X106503373Y-65022963D01*
X106333534Y-64971443D01*
X106177009Y-64887778D01*
X106141271Y-64858448D01*
X106039814Y-64775186D01*
X105956552Y-64673729D01*
X105927222Y-64637991D01*
X105843557Y-64481466D01*
X105792037Y-64311627D01*
X105774641Y-64135000D01*
X105792037Y-63958373D01*
X105843557Y-63788534D01*
X105927222Y-63632009D01*
X105956552Y-63596271D01*
X106039814Y-63494814D01*
X106141271Y-63411552D01*
X106177009Y-63382222D01*
X106333534Y-63298557D01*
X106503373Y-63247037D01*
X106569557Y-63240519D01*
X106635740Y-63234000D01*
X106724260Y-63234000D01*
X106790443Y-63240519D01*
X106790443Y-63240519D01*
G37*
G36*
X100440443Y-63240519D02*
G01*
X100506627Y-63247037D01*
X100676466Y-63298557D01*
X100832991Y-63382222D01*
X100868729Y-63411552D01*
X100970186Y-63494814D01*
X101053448Y-63596271D01*
X101082778Y-63632009D01*
X101166443Y-63788534D01*
X101217963Y-63958373D01*
X101235359Y-64135000D01*
X101217963Y-64311627D01*
X101166443Y-64481466D01*
X101082778Y-64637991D01*
X101053448Y-64673729D01*
X100970186Y-64775186D01*
X100868729Y-64858448D01*
X100832991Y-64887778D01*
X100676466Y-64971443D01*
X100506627Y-65022963D01*
X100440442Y-65029482D01*
X100374260Y-65036000D01*
X100285740Y-65036000D01*
X100219558Y-65029482D01*
X100153373Y-65022963D01*
X99983534Y-64971443D01*
X99827009Y-64887778D01*
X99791271Y-64858448D01*
X99689814Y-64775186D01*
X99606552Y-64673729D01*
X99577222Y-64637991D01*
X99493557Y-64481466D01*
X99442037Y-64311627D01*
X99424641Y-64135000D01*
X99442037Y-63958373D01*
X99493557Y-63788534D01*
X99577222Y-63632009D01*
X99606552Y-63596271D01*
X99689814Y-63494814D01*
X99791271Y-63411552D01*
X99827009Y-63382222D01*
X99983534Y-63298557D01*
X100153373Y-63247037D01*
X100219557Y-63240519D01*
X100285740Y-63234000D01*
X100374260Y-63234000D01*
X100440443Y-63240519D01*
X100440443Y-63240519D01*
G37*
G36*
X97900443Y-63240519D02*
G01*
X97966627Y-63247037D01*
X98136466Y-63298557D01*
X98292991Y-63382222D01*
X98328729Y-63411552D01*
X98430186Y-63494814D01*
X98513448Y-63596271D01*
X98542778Y-63632009D01*
X98626443Y-63788534D01*
X98677963Y-63958373D01*
X98695359Y-64135000D01*
X98677963Y-64311627D01*
X98626443Y-64481466D01*
X98542778Y-64637991D01*
X98513448Y-64673729D01*
X98430186Y-64775186D01*
X98328729Y-64858448D01*
X98292991Y-64887778D01*
X98136466Y-64971443D01*
X97966627Y-65022963D01*
X97900442Y-65029482D01*
X97834260Y-65036000D01*
X97745740Y-65036000D01*
X97679558Y-65029482D01*
X97613373Y-65022963D01*
X97443534Y-64971443D01*
X97287009Y-64887778D01*
X97251271Y-64858448D01*
X97149814Y-64775186D01*
X97066552Y-64673729D01*
X97037222Y-64637991D01*
X96953557Y-64481466D01*
X96902037Y-64311627D01*
X96884641Y-64135000D01*
X96902037Y-63958373D01*
X96953557Y-63788534D01*
X97037222Y-63632009D01*
X97066552Y-63596271D01*
X97149814Y-63494814D01*
X97251271Y-63411552D01*
X97287009Y-63382222D01*
X97443534Y-63298557D01*
X97613373Y-63247037D01*
X97679557Y-63240519D01*
X97745740Y-63234000D01*
X97834260Y-63234000D01*
X97900443Y-63240519D01*
X97900443Y-63240519D01*
G37*
G36*
X104250443Y-63240519D02*
G01*
X104316627Y-63247037D01*
X104486466Y-63298557D01*
X104642991Y-63382222D01*
X104678729Y-63411552D01*
X104780186Y-63494814D01*
X104863448Y-63596271D01*
X104892778Y-63632009D01*
X104976443Y-63788534D01*
X105027963Y-63958373D01*
X105045359Y-64135000D01*
X105027963Y-64311627D01*
X104976443Y-64481466D01*
X104892778Y-64637991D01*
X104863448Y-64673729D01*
X104780186Y-64775186D01*
X104678729Y-64858448D01*
X104642991Y-64887778D01*
X104486466Y-64971443D01*
X104316627Y-65022963D01*
X104250442Y-65029482D01*
X104184260Y-65036000D01*
X104095740Y-65036000D01*
X104029558Y-65029482D01*
X103963373Y-65022963D01*
X103793534Y-64971443D01*
X103637009Y-64887778D01*
X103601271Y-64858448D01*
X103499814Y-64775186D01*
X103416552Y-64673729D01*
X103387222Y-64637991D01*
X103303557Y-64481466D01*
X103252037Y-64311627D01*
X103234641Y-64135000D01*
X103252037Y-63958373D01*
X103303557Y-63788534D01*
X103387222Y-63632009D01*
X103416552Y-63596271D01*
X103499814Y-63494814D01*
X103601271Y-63411552D01*
X103637009Y-63382222D01*
X103793534Y-63298557D01*
X103963373Y-63247037D01*
X104029557Y-63240519D01*
X104095740Y-63234000D01*
X104184260Y-63234000D01*
X104250443Y-63240519D01*
X104250443Y-63240519D01*
G37*
G36*
X121070443Y-60815519D02*
G01*
X121136627Y-60822037D01*
X121306466Y-60873557D01*
X121462991Y-60957222D01*
X121498729Y-60986552D01*
X121600186Y-61069814D01*
X121683448Y-61171271D01*
X121712778Y-61207009D01*
X121796443Y-61363534D01*
X121847963Y-61533373D01*
X121865359Y-61710000D01*
X121847963Y-61886627D01*
X121796443Y-62056466D01*
X121712778Y-62212991D01*
X121694563Y-62235186D01*
X121600186Y-62350186D01*
X121501174Y-62431442D01*
X121462991Y-62462778D01*
X121306466Y-62546443D01*
X121136627Y-62597963D01*
X121070443Y-62604481D01*
X121004260Y-62611000D01*
X120915740Y-62611000D01*
X120849557Y-62604481D01*
X120783373Y-62597963D01*
X120613534Y-62546443D01*
X120457009Y-62462778D01*
X120418826Y-62431442D01*
X120319814Y-62350186D01*
X120225437Y-62235186D01*
X120207222Y-62212991D01*
X120123557Y-62056466D01*
X120072037Y-61886627D01*
X120054641Y-61710000D01*
X120072037Y-61533373D01*
X120123557Y-61363534D01*
X120207222Y-61207009D01*
X120236552Y-61171271D01*
X120319814Y-61069814D01*
X120421271Y-60986552D01*
X120457009Y-60957222D01*
X120613534Y-60873557D01*
X120783373Y-60822037D01*
X120849557Y-60815519D01*
X120915740Y-60809000D01*
X121004260Y-60809000D01*
X121070443Y-60815519D01*
X121070443Y-60815519D01*
G37*
G36*
X123610443Y-60815519D02*
G01*
X123676627Y-60822037D01*
X123846466Y-60873557D01*
X124002991Y-60957222D01*
X124038729Y-60986552D01*
X124140186Y-61069814D01*
X124223448Y-61171271D01*
X124252778Y-61207009D01*
X124336443Y-61363534D01*
X124387963Y-61533373D01*
X124405359Y-61710000D01*
X124387963Y-61886627D01*
X124336443Y-62056466D01*
X124252778Y-62212991D01*
X124234563Y-62235186D01*
X124140186Y-62350186D01*
X124041174Y-62431442D01*
X124002991Y-62462778D01*
X123846466Y-62546443D01*
X123676627Y-62597963D01*
X123610443Y-62604481D01*
X123544260Y-62611000D01*
X123455740Y-62611000D01*
X123389557Y-62604481D01*
X123323373Y-62597963D01*
X123153534Y-62546443D01*
X122997009Y-62462778D01*
X122958826Y-62431442D01*
X122859814Y-62350186D01*
X122765437Y-62235186D01*
X122747222Y-62212991D01*
X122663557Y-62056466D01*
X122612037Y-61886627D01*
X122594641Y-61710000D01*
X122612037Y-61533373D01*
X122663557Y-61363534D01*
X122747222Y-61207009D01*
X122776552Y-61171271D01*
X122859814Y-61069814D01*
X122961271Y-60986552D01*
X122997009Y-60957222D01*
X123153534Y-60873557D01*
X123323373Y-60822037D01*
X123389557Y-60815519D01*
X123455740Y-60809000D01*
X123544260Y-60809000D01*
X123610443Y-60815519D01*
X123610443Y-60815519D01*
G37*
G36*
X105041000Y-62496000D02*
G01*
X103239000Y-62496000D01*
X103239000Y-60694000D01*
X105041000Y-60694000D01*
X105041000Y-62496000D01*
X105041000Y-62496000D01*
G37*
G36*
X106790443Y-60700519D02*
G01*
X106856627Y-60707037D01*
X107026466Y-60758557D01*
X107182991Y-60842222D01*
X107218729Y-60871552D01*
X107320186Y-60954814D01*
X107403448Y-61056271D01*
X107432778Y-61092009D01*
X107516443Y-61248534D01*
X107567963Y-61418373D01*
X107585359Y-61595000D01*
X107567963Y-61771627D01*
X107516443Y-61941466D01*
X107432778Y-62097991D01*
X107403448Y-62133729D01*
X107320186Y-62235186D01*
X107218729Y-62318448D01*
X107182991Y-62347778D01*
X107026466Y-62431443D01*
X106856627Y-62482963D01*
X106790443Y-62489481D01*
X106724260Y-62496000D01*
X106635740Y-62496000D01*
X106569557Y-62489481D01*
X106503373Y-62482963D01*
X106333534Y-62431443D01*
X106177009Y-62347778D01*
X106141271Y-62318448D01*
X106039814Y-62235186D01*
X105956552Y-62133729D01*
X105927222Y-62097991D01*
X105843557Y-61941466D01*
X105792037Y-61771627D01*
X105774641Y-61595000D01*
X105792037Y-61418373D01*
X105843557Y-61248534D01*
X105927222Y-61092009D01*
X105956552Y-61056271D01*
X106039814Y-60954814D01*
X106141271Y-60871552D01*
X106177009Y-60842222D01*
X106333534Y-60758557D01*
X106503373Y-60707037D01*
X106569557Y-60700519D01*
X106635740Y-60694000D01*
X106724260Y-60694000D01*
X106790443Y-60700519D01*
X106790443Y-60700519D01*
G37*
G36*
X100440443Y-60700519D02*
G01*
X100506627Y-60707037D01*
X100676466Y-60758557D01*
X100832991Y-60842222D01*
X100868729Y-60871552D01*
X100970186Y-60954814D01*
X101053448Y-61056271D01*
X101082778Y-61092009D01*
X101166443Y-61248534D01*
X101217963Y-61418373D01*
X101235359Y-61595000D01*
X101217963Y-61771627D01*
X101166443Y-61941466D01*
X101082778Y-62097991D01*
X101053448Y-62133729D01*
X100970186Y-62235186D01*
X100868729Y-62318448D01*
X100832991Y-62347778D01*
X100676466Y-62431443D01*
X100506627Y-62482963D01*
X100440443Y-62489481D01*
X100374260Y-62496000D01*
X100285740Y-62496000D01*
X100219557Y-62489481D01*
X100153373Y-62482963D01*
X99983534Y-62431443D01*
X99827009Y-62347778D01*
X99791271Y-62318448D01*
X99689814Y-62235186D01*
X99606552Y-62133729D01*
X99577222Y-62097991D01*
X99493557Y-61941466D01*
X99442037Y-61771627D01*
X99424641Y-61595000D01*
X99442037Y-61418373D01*
X99493557Y-61248534D01*
X99577222Y-61092009D01*
X99606552Y-61056271D01*
X99689814Y-60954814D01*
X99791271Y-60871552D01*
X99827009Y-60842222D01*
X99983534Y-60758557D01*
X100153373Y-60707037D01*
X100219557Y-60700519D01*
X100285740Y-60694000D01*
X100374260Y-60694000D01*
X100440443Y-60700519D01*
X100440443Y-60700519D01*
G37*
G36*
X98691000Y-62496000D02*
G01*
X96889000Y-62496000D01*
X96889000Y-60694000D01*
X98691000Y-60694000D01*
X98691000Y-62496000D01*
X98691000Y-62496000D01*
G37*
G36*
X123610443Y-58275519D02*
G01*
X123676627Y-58282037D01*
X123846466Y-58333557D01*
X124002991Y-58417222D01*
X124038729Y-58446552D01*
X124140186Y-58529814D01*
X124223448Y-58631271D01*
X124252778Y-58667009D01*
X124336443Y-58823534D01*
X124387963Y-58993373D01*
X124405359Y-59170000D01*
X124387963Y-59346627D01*
X124336443Y-59516466D01*
X124252778Y-59672991D01*
X124223448Y-59708729D01*
X124140186Y-59810186D01*
X124038729Y-59893448D01*
X124002991Y-59922778D01*
X123846466Y-60006443D01*
X123676627Y-60057963D01*
X123610442Y-60064482D01*
X123544260Y-60071000D01*
X123455740Y-60071000D01*
X123389558Y-60064482D01*
X123323373Y-60057963D01*
X123153534Y-60006443D01*
X122997009Y-59922778D01*
X122961271Y-59893448D01*
X122859814Y-59810186D01*
X122776552Y-59708729D01*
X122747222Y-59672991D01*
X122663557Y-59516466D01*
X122612037Y-59346627D01*
X122594641Y-59170000D01*
X122612037Y-58993373D01*
X122663557Y-58823534D01*
X122747222Y-58667009D01*
X122776552Y-58631271D01*
X122859814Y-58529814D01*
X122961271Y-58446552D01*
X122997009Y-58417222D01*
X123153534Y-58333557D01*
X123323373Y-58282037D01*
X123389557Y-58275519D01*
X123455740Y-58269000D01*
X123544260Y-58269000D01*
X123610443Y-58275519D01*
X123610443Y-58275519D01*
G37*
G36*
X121861000Y-60071000D02*
G01*
X120059000Y-60071000D01*
X120059000Y-58269000D01*
X121861000Y-58269000D01*
X121861000Y-60071000D01*
X121861000Y-60071000D01*
G37*
G36*
X115045442Y-51810518D02*
G01*
X115111627Y-51817037D01*
X115281466Y-51868557D01*
X115437991Y-51952222D01*
X115473729Y-51981552D01*
X115575186Y-52064814D01*
X115658448Y-52166271D01*
X115687778Y-52202009D01*
X115771443Y-52358534D01*
X115822963Y-52528373D01*
X115840359Y-52705000D01*
X115822963Y-52881627D01*
X115771443Y-53051466D01*
X115687778Y-53207991D01*
X115658448Y-53243729D01*
X115575186Y-53345186D01*
X115473729Y-53428448D01*
X115437991Y-53457778D01*
X115281466Y-53541443D01*
X115111627Y-53592963D01*
X115045442Y-53599482D01*
X114979260Y-53606000D01*
X114890740Y-53606000D01*
X114824558Y-53599482D01*
X114758373Y-53592963D01*
X114588534Y-53541443D01*
X114432009Y-53457778D01*
X114396271Y-53428448D01*
X114294814Y-53345186D01*
X114211552Y-53243729D01*
X114182222Y-53207991D01*
X114098557Y-53051466D01*
X114047037Y-52881627D01*
X114029641Y-52705000D01*
X114047037Y-52528373D01*
X114098557Y-52358534D01*
X114182222Y-52202009D01*
X114211552Y-52166271D01*
X114294814Y-52064814D01*
X114396271Y-51981552D01*
X114432009Y-51952222D01*
X114588534Y-51868557D01*
X114758373Y-51817037D01*
X114824558Y-51810518D01*
X114890740Y-51804000D01*
X114979260Y-51804000D01*
X115045442Y-51810518D01*
X115045442Y-51810518D01*
G37*
G36*
X113296000Y-53606000D02*
G01*
X111494000Y-53606000D01*
X111494000Y-51804000D01*
X113296000Y-51804000D01*
X113296000Y-53606000D01*
X113296000Y-53606000D01*
G37*
M02*
