G04 #@! TF.GenerationSoftware,KiCad,Pcbnew,(5.1.0)-1*
G04 #@! TF.CreationDate,2019-05-06T16:05:47+08:00*
G04 #@! TF.ProjectId,rpi0_extern_board,72706930-5f65-4787-9465-726e5f626f61,rev?*
G04 #@! TF.SameCoordinates,Original*
G04 #@! TF.FileFunction,Legend,Top*
G04 #@! TF.FilePolarity,Positive*
%FSLAX46Y46*%
G04 Gerber Fmt 4.6, Leading zero omitted, Abs format (unit mm)*
G04 Created by KiCad (PCBNEW (5.1.0)-1) date 2019-05-06 16:05:47*
%MOMM*%
%LPD*%
G04 APERTURE LIST*
%ADD10C,0.120000*%
%ADD11C,0.150000*%
G04 APERTURE END LIST*
D10*
X115903749Y-66100001D02*
X116426253Y-66100001D01*
X115903749Y-64680001D02*
X116426253Y-64680001D01*
X115903749Y-67235000D02*
X116426253Y-67235000D01*
X115903749Y-68655000D02*
X116426253Y-68655000D01*
X110860000Y-89055000D02*
X110860000Y-86455000D01*
X125560000Y-89055000D02*
X110860000Y-89055000D01*
X110860000Y-79855000D02*
X112760000Y-79855000D01*
X110860000Y-82555000D02*
X110860000Y-79855000D01*
X125560000Y-79855000D02*
X125560000Y-89055000D01*
X116760000Y-79855000D02*
X125560000Y-79855000D01*
X111710000Y-89255000D02*
X110660000Y-89255000D01*
X110660000Y-88205000D02*
X110660000Y-89255000D01*
X112760000Y-64445000D02*
X109900000Y-64445000D01*
X109900000Y-64445000D02*
X109900000Y-66365000D01*
X109900000Y-66365000D02*
X112760000Y-66365000D01*
X112021252Y-68655000D02*
X111498748Y-68655000D01*
X112021252Y-67235000D02*
X111498748Y-67235000D01*
X102810000Y-60265000D02*
X104140000Y-60265000D01*
X102810000Y-61595000D02*
X102810000Y-60265000D01*
X105410000Y-60265000D02*
X108010000Y-60265000D01*
X105410000Y-62865000D02*
X105410000Y-60265000D01*
X102810000Y-62865000D02*
X105410000Y-62865000D01*
X108010000Y-60265000D02*
X108010000Y-85785000D01*
X102810000Y-62865000D02*
X102810000Y-85785000D01*
X102810000Y-85785000D02*
X108010000Y-85785000D01*
X96460000Y-60265000D02*
X97790000Y-60265000D01*
X96460000Y-61595000D02*
X96460000Y-60265000D01*
X99060000Y-60265000D02*
X101660000Y-60265000D01*
X99060000Y-62865000D02*
X99060000Y-60265000D01*
X96460000Y-62865000D02*
X99060000Y-62865000D01*
X101660000Y-60265000D02*
X101660000Y-85785000D01*
X96460000Y-62865000D02*
X96460000Y-85785000D01*
X96460000Y-85785000D02*
X101660000Y-85785000D01*
X113697936Y-72665000D02*
X114902064Y-72665000D01*
X113697936Y-70845000D02*
X114902064Y-70845000D01*
X119630000Y-57840000D02*
X120960000Y-57840000D01*
X119630000Y-59170000D02*
X119630000Y-57840000D01*
X122230000Y-57840000D02*
X124830000Y-57840000D01*
X122230000Y-60440000D02*
X122230000Y-57840000D01*
X119630000Y-60440000D02*
X122230000Y-60440000D01*
X124830000Y-57840000D02*
X124830000Y-78280000D01*
X119630000Y-60440000D02*
X119630000Y-78280000D01*
X119630000Y-78280000D02*
X124830000Y-78280000D01*
X116265000Y-54035000D02*
X116265000Y-51375000D01*
X113665000Y-54035000D02*
X116265000Y-54035000D01*
X113665000Y-51375000D02*
X116265000Y-51375000D01*
X113665000Y-54035000D02*
X113665000Y-51375000D01*
X112395000Y-54035000D02*
X111065000Y-54035000D01*
X111065000Y-54035000D02*
X111065000Y-52705000D01*
X116900000Y-76260000D02*
X116900000Y-73600000D01*
X114300000Y-76260000D02*
X116900000Y-76260000D01*
X114300000Y-73600000D02*
X116900000Y-73600000D01*
X114300000Y-76260000D02*
X114300000Y-73600000D01*
X113030000Y-76260000D02*
X111700000Y-76260000D01*
X111700000Y-76260000D02*
X111700000Y-74930000D01*
D11*
X116540000Y-62880000D02*
X116540000Y-62530000D01*
X110790000Y-62880000D02*
X110790000Y-62430000D01*
X110790000Y-55230000D02*
X110790000Y-55680000D01*
X116540000Y-55230000D02*
X116540000Y-55680000D01*
X116540000Y-62880000D02*
X110790000Y-62880000D01*
X116540000Y-55230000D02*
X110790000Y-55230000D01*
X116540000Y-62530000D02*
X118140000Y-62530000D01*
X119102142Y-65571666D02*
X119149761Y-65619285D01*
X119197380Y-65762142D01*
X119197380Y-65857380D01*
X119149761Y-66000238D01*
X119054523Y-66095476D01*
X118959285Y-66143095D01*
X118768809Y-66190714D01*
X118625952Y-66190714D01*
X118435476Y-66143095D01*
X118340238Y-66095476D01*
X118245000Y-66000238D01*
X118197380Y-65857380D01*
X118197380Y-65762142D01*
X118245000Y-65619285D01*
X118292619Y-65571666D01*
X118292619Y-65190714D02*
X118245000Y-65143095D01*
X118197380Y-65047857D01*
X118197380Y-64809761D01*
X118245000Y-64714523D01*
X118292619Y-64666904D01*
X118387857Y-64619285D01*
X118483095Y-64619285D01*
X118625952Y-64666904D01*
X119197380Y-65238333D01*
X119197380Y-64619285D01*
X119102142Y-68111666D02*
X119149761Y-68159285D01*
X119197380Y-68302142D01*
X119197380Y-68397380D01*
X119149761Y-68540238D01*
X119054523Y-68635476D01*
X118959285Y-68683095D01*
X118768809Y-68730714D01*
X118625952Y-68730714D01*
X118435476Y-68683095D01*
X118340238Y-68635476D01*
X118245000Y-68540238D01*
X118197380Y-68397380D01*
X118197380Y-68302142D01*
X118245000Y-68159285D01*
X118292619Y-68111666D01*
X118197380Y-67778333D02*
X118197380Y-67159285D01*
X118578333Y-67492619D01*
X118578333Y-67349761D01*
X118625952Y-67254523D01*
X118673571Y-67206904D01*
X118768809Y-67159285D01*
X119006904Y-67159285D01*
X119102142Y-67206904D01*
X119149761Y-67254523D01*
X119197380Y-67349761D01*
X119197380Y-67635476D01*
X119149761Y-67730714D01*
X119102142Y-67778333D01*
X117689380Y-78438333D02*
X118403666Y-78438333D01*
X118546523Y-78485952D01*
X118641761Y-78581190D01*
X118689380Y-78724047D01*
X118689380Y-78819285D01*
X117689380Y-78057380D02*
X117689380Y-77438333D01*
X118070333Y-77771666D01*
X118070333Y-77628809D01*
X118117952Y-77533571D01*
X118165571Y-77485952D01*
X118260809Y-77438333D01*
X118498904Y-77438333D01*
X118594142Y-77485952D01*
X118641761Y-77533571D01*
X118689380Y-77628809D01*
X118689380Y-77914523D01*
X118641761Y-78009761D01*
X118594142Y-78057380D01*
X109672380Y-66143095D02*
X108672380Y-66143095D01*
X108672380Y-65905000D01*
X108720000Y-65762142D01*
X108815238Y-65666904D01*
X108910476Y-65619285D01*
X109100952Y-65571666D01*
X109243809Y-65571666D01*
X109434285Y-65619285D01*
X109529523Y-65666904D01*
X109624761Y-65762142D01*
X109672380Y-65905000D01*
X109672380Y-66143095D01*
X109672380Y-64619285D02*
X109672380Y-65190714D01*
X109672380Y-64905000D02*
X108672380Y-64905000D01*
X108815238Y-65000238D01*
X108910476Y-65095476D01*
X108958095Y-65190714D01*
X109672380Y-68111666D02*
X109196190Y-68445000D01*
X109672380Y-68683095D02*
X108672380Y-68683095D01*
X108672380Y-68302142D01*
X108720000Y-68206904D01*
X108767619Y-68159285D01*
X108862857Y-68111666D01*
X109005714Y-68111666D01*
X109100952Y-68159285D01*
X109148571Y-68206904D01*
X109196190Y-68302142D01*
X109196190Y-68683095D01*
X109672380Y-67159285D02*
X109672380Y-67730714D01*
X109672380Y-67445000D02*
X108672380Y-67445000D01*
X108815238Y-67540238D01*
X108910476Y-67635476D01*
X108958095Y-67730714D01*
X105076666Y-57872380D02*
X105076666Y-58586666D01*
X105029047Y-58729523D01*
X104933809Y-58824761D01*
X104790952Y-58872380D01*
X104695714Y-58872380D01*
X105981428Y-57872380D02*
X105790952Y-57872380D01*
X105695714Y-57920000D01*
X105648095Y-57967619D01*
X105552857Y-58110476D01*
X105505238Y-58300952D01*
X105505238Y-58681904D01*
X105552857Y-58777142D01*
X105600476Y-58824761D01*
X105695714Y-58872380D01*
X105886190Y-58872380D01*
X105981428Y-58824761D01*
X106029047Y-58777142D01*
X106076666Y-58681904D01*
X106076666Y-58443809D01*
X106029047Y-58348571D01*
X105981428Y-58300952D01*
X105886190Y-58253333D01*
X105695714Y-58253333D01*
X105600476Y-58300952D01*
X105552857Y-58348571D01*
X105505238Y-58443809D01*
X98726666Y-57872380D02*
X98726666Y-58586666D01*
X98679047Y-58729523D01*
X98583809Y-58824761D01*
X98440952Y-58872380D01*
X98345714Y-58872380D01*
X99679047Y-57872380D02*
X99202857Y-57872380D01*
X99155238Y-58348571D01*
X99202857Y-58300952D01*
X99298095Y-58253333D01*
X99536190Y-58253333D01*
X99631428Y-58300952D01*
X99679047Y-58348571D01*
X99726666Y-58443809D01*
X99726666Y-58681904D01*
X99679047Y-58777142D01*
X99631428Y-58824761D01*
X99536190Y-58872380D01*
X99298095Y-58872380D01*
X99202857Y-58824761D01*
X99155238Y-58777142D01*
X117832142Y-71921666D02*
X117879761Y-71969285D01*
X117927380Y-72112142D01*
X117927380Y-72207380D01*
X117879761Y-72350238D01*
X117784523Y-72445476D01*
X117689285Y-72493095D01*
X117498809Y-72540714D01*
X117355952Y-72540714D01*
X117165476Y-72493095D01*
X117070238Y-72445476D01*
X116975000Y-72350238D01*
X116927380Y-72207380D01*
X116927380Y-72112142D01*
X116975000Y-71969285D01*
X117022619Y-71921666D01*
X117260714Y-71064523D02*
X117927380Y-71064523D01*
X116879761Y-71302619D02*
X117594047Y-71540714D01*
X117594047Y-70921666D01*
X108418380Y-88471333D02*
X109132666Y-88471333D01*
X109275523Y-88518952D01*
X109370761Y-88614190D01*
X109418380Y-88757047D01*
X109418380Y-88852285D01*
X109418380Y-87471333D02*
X109418380Y-88042761D01*
X109418380Y-87757047D02*
X108418380Y-87757047D01*
X108561238Y-87852285D01*
X108656476Y-87947523D01*
X108704095Y-88042761D01*
X108672380Y-53038333D02*
X109386666Y-53038333D01*
X109529523Y-53085952D01*
X109624761Y-53181190D01*
X109672380Y-53324047D01*
X109672380Y-53419285D01*
X108767619Y-52609761D02*
X108720000Y-52562142D01*
X108672380Y-52466904D01*
X108672380Y-52228809D01*
X108720000Y-52133571D01*
X108767619Y-52085952D01*
X108862857Y-52038333D01*
X108958095Y-52038333D01*
X109100952Y-52085952D01*
X109672380Y-52657380D01*
X109672380Y-52038333D01*
X110152380Y-75263333D02*
X110866666Y-75263333D01*
X111009523Y-75310952D01*
X111104761Y-75406190D01*
X111152380Y-75549047D01*
X111152380Y-75644285D01*
X110152380Y-74882380D02*
X110152380Y-74215714D01*
X111152380Y-74644285D01*
X106553095Y-55332380D02*
X106553095Y-56141904D01*
X106600714Y-56237142D01*
X106648333Y-56284761D01*
X106743571Y-56332380D01*
X106934047Y-56332380D01*
X107029285Y-56284761D01*
X107076904Y-56237142D01*
X107124523Y-56141904D01*
X107124523Y-55332380D01*
X108124523Y-56332380D02*
X107553095Y-56332380D01*
X107838809Y-56332380D02*
X107838809Y-55332380D01*
X107743571Y-55475238D01*
X107648333Y-55570476D01*
X107553095Y-55618095D01*
M02*
