M48
; DRILL file {KiCad (5.1.0)-1} date 2019/5/6 16:05:57
; FORMAT={-:-/ absolute / inch / decimal}
; #@! TF.CreationDate,2019-05-06T16:05:57+08:00
; #@! TF.GenerationSoftware,Kicad,Pcbnew,(5.1.0)-1
; #@! TF.FileFunction,Plated,1,2,PTH
FMAT,2
INCH
T1C0.0157
T2C0.0394
T3C0.0984
%
G90
G05
T1
X4.65Y-2.5
T2
X3.85Y-2.425
X3.85Y-2.525
X3.85Y-2.625
X3.85Y-2.725
X3.85Y-2.825
X3.85Y-2.925
X3.85Y-3.025
X3.85Y-3.125
X3.85Y-3.225
X3.85Y-3.325
X3.95Y-2.425
X3.95Y-2.525
X3.95Y-2.625
X3.95Y-2.725
X3.95Y-2.825
X3.95Y-2.925
X3.95Y-3.025
X3.95Y-3.125
X3.95Y-3.225
X3.95Y-3.325
X4.7622Y-2.3295
X4.7622Y-2.4295
X4.7622Y-2.5295
X4.7622Y-2.6295
X4.7622Y-2.7295
X4.7622Y-2.8295
X4.7622Y-2.9295
X4.7622Y-3.0295
X4.8622Y-2.3295
X4.8622Y-2.4295
X4.8622Y-2.5295
X4.8622Y-2.6295
X4.8622Y-2.7295
X4.8622Y-2.8295
X4.8622Y-2.9295
X4.8622Y-3.0295
X4.45Y-2.95
X4.55Y-2.95
X4.1Y-2.425
X4.1Y-2.525
X4.1Y-2.625
X4.1Y-2.725
X4.1Y-2.825
X4.1Y-2.925
X4.1Y-3.025
X4.1Y-3.125
X4.1Y-3.225
X4.1Y-3.325
X4.2Y-2.425
X4.2Y-2.525
X4.2Y-2.625
X4.2Y-2.725
X4.2Y-2.825
X4.2Y-2.925
X4.2Y-3.025
X4.2Y-3.125
X4.2Y-3.225
X4.2Y-3.325
X4.425Y-2.075
X4.525Y-2.075
T3
X3.9067Y-2.1378
X4.8122Y-2.1378
T2
G00X4.4Y-3.3644
M15
G01X4.4Y-3.2856
M16
G05
G00X4.5575Y-3.14
M15
G01X4.4787Y-3.14
M16
G05
G00X4.6362Y-3.3644
M15
G01X4.6362Y-3.2856
M16
G05
T0
M30
