G04 #@! TF.GenerationSoftware,KiCad,Pcbnew,(5.1.0)-1*
G04 #@! TF.CreationDate,2019-05-06T16:05:47+08:00*
G04 #@! TF.ProjectId,rpi0_extern_board,72706930-5f65-4787-9465-726e5f626f61,rev?*
G04 #@! TF.SameCoordinates,Original*
G04 #@! TF.FileFunction,Copper,L2,Bot*
G04 #@! TF.FilePolarity,Positive*
%FSLAX46Y46*%
G04 Gerber Fmt 4.6, Leading zero omitted, Abs format (unit mm)*
G04 Created by KiCad (PCBNEW (5.1.0)-1) date 2019-05-06 16:05:47*
%MOMM*%
%LPD*%
G04 APERTURE LIST*
%ADD10C,0.100000*%
%ADD11C,3.500000*%
%ADD12C,3.000000*%
%ADD13R,3.500000X3.500000*%
%ADD14O,1.700000X1.700000*%
%ADD15R,1.700000X1.700000*%
%ADD16C,6.000000*%
%ADD17C,0.800000*%
%ADD18C,0.508000*%
%ADD19C,0.254000*%
G04 APERTURE END LIST*
D10*
G36*
X115720765Y-78009213D02*
G01*
X115805704Y-78021813D01*
X115888999Y-78042677D01*
X115969848Y-78071605D01*
X116047472Y-78108319D01*
X116121124Y-78152464D01*
X116190094Y-78203616D01*
X116253718Y-78261282D01*
X116311384Y-78324906D01*
X116362536Y-78393876D01*
X116406681Y-78467528D01*
X116443395Y-78545152D01*
X116472323Y-78626001D01*
X116493187Y-78709296D01*
X116505787Y-78794235D01*
X116510000Y-78880000D01*
X116510000Y-80630000D01*
X116505787Y-80715765D01*
X116493187Y-80800704D01*
X116472323Y-80883999D01*
X116443395Y-80964848D01*
X116406681Y-81042472D01*
X116362536Y-81116124D01*
X116311384Y-81185094D01*
X116253718Y-81248718D01*
X116190094Y-81306384D01*
X116121124Y-81357536D01*
X116047472Y-81401681D01*
X115969848Y-81438395D01*
X115888999Y-81467323D01*
X115805704Y-81488187D01*
X115720765Y-81500787D01*
X115635000Y-81505000D01*
X113885000Y-81505000D01*
X113799235Y-81500787D01*
X113714296Y-81488187D01*
X113631001Y-81467323D01*
X113550152Y-81438395D01*
X113472528Y-81401681D01*
X113398876Y-81357536D01*
X113329906Y-81306384D01*
X113266282Y-81248718D01*
X113208616Y-81185094D01*
X113157464Y-81116124D01*
X113113319Y-81042472D01*
X113076605Y-80964848D01*
X113047677Y-80883999D01*
X113026813Y-80800704D01*
X113014213Y-80715765D01*
X113010000Y-80630000D01*
X113010000Y-78880000D01*
X113014213Y-78794235D01*
X113026813Y-78709296D01*
X113047677Y-78626001D01*
X113076605Y-78545152D01*
X113113319Y-78467528D01*
X113157464Y-78393876D01*
X113208616Y-78324906D01*
X113266282Y-78261282D01*
X113329906Y-78203616D01*
X113398876Y-78152464D01*
X113472528Y-78108319D01*
X113550152Y-78071605D01*
X113631001Y-78042677D01*
X113714296Y-78021813D01*
X113799235Y-78009213D01*
X113885000Y-78005000D01*
X115635000Y-78005000D01*
X115720765Y-78009213D01*
X115720765Y-78009213D01*
G37*
D11*
X114760000Y-79755000D03*
D10*
G36*
X118583513Y-82708611D02*
G01*
X118656318Y-82719411D01*
X118727714Y-82737295D01*
X118797013Y-82762090D01*
X118863548Y-82793559D01*
X118926678Y-82831398D01*
X118985795Y-82875242D01*
X119040330Y-82924670D01*
X119089758Y-82979205D01*
X119133602Y-83038322D01*
X119171441Y-83101452D01*
X119202910Y-83167987D01*
X119227705Y-83237286D01*
X119245589Y-83308682D01*
X119256389Y-83381487D01*
X119260000Y-83455000D01*
X119260000Y-85455000D01*
X119256389Y-85528513D01*
X119245589Y-85601318D01*
X119227705Y-85672714D01*
X119202910Y-85742013D01*
X119171441Y-85808548D01*
X119133602Y-85871678D01*
X119089758Y-85930795D01*
X119040330Y-85985330D01*
X118985795Y-86034758D01*
X118926678Y-86078602D01*
X118863548Y-86116441D01*
X118797013Y-86147910D01*
X118727714Y-86172705D01*
X118656318Y-86190589D01*
X118583513Y-86201389D01*
X118510000Y-86205000D01*
X117010000Y-86205000D01*
X116936487Y-86201389D01*
X116863682Y-86190589D01*
X116792286Y-86172705D01*
X116722987Y-86147910D01*
X116656452Y-86116441D01*
X116593322Y-86078602D01*
X116534205Y-86034758D01*
X116479670Y-85985330D01*
X116430242Y-85930795D01*
X116386398Y-85871678D01*
X116348559Y-85808548D01*
X116317090Y-85742013D01*
X116292295Y-85672714D01*
X116274411Y-85601318D01*
X116263611Y-85528513D01*
X116260000Y-85455000D01*
X116260000Y-83455000D01*
X116263611Y-83381487D01*
X116274411Y-83308682D01*
X116292295Y-83237286D01*
X116317090Y-83167987D01*
X116348559Y-83101452D01*
X116386398Y-83038322D01*
X116430242Y-82979205D01*
X116479670Y-82924670D01*
X116534205Y-82875242D01*
X116593322Y-82831398D01*
X116656452Y-82793559D01*
X116722987Y-82762090D01*
X116792286Y-82737295D01*
X116863682Y-82719411D01*
X116936487Y-82708611D01*
X117010000Y-82705000D01*
X118510000Y-82705000D01*
X118583513Y-82708611D01*
X118583513Y-82708611D01*
G37*
D12*
X117760000Y-84455000D03*
D13*
X111760000Y-84455000D03*
D14*
X106680000Y-84455000D03*
X104140000Y-84455000D03*
X106680000Y-81915000D03*
X104140000Y-81915000D03*
X106680000Y-79375000D03*
X104140000Y-79375000D03*
X106680000Y-76835000D03*
X104140000Y-76835000D03*
X106680000Y-74295000D03*
X104140000Y-74295000D03*
X106680000Y-71755000D03*
X104140000Y-71755000D03*
X106680000Y-69215000D03*
X104140000Y-69215000D03*
X106680000Y-66675000D03*
X104140000Y-66675000D03*
X106680000Y-64135000D03*
X104140000Y-64135000D03*
X106680000Y-61595000D03*
D15*
X104140000Y-61595000D03*
D14*
X100330000Y-84455000D03*
X97790000Y-84455000D03*
X100330000Y-81915000D03*
X97790000Y-81915000D03*
X100330000Y-79375000D03*
X97790000Y-79375000D03*
X100330000Y-76835000D03*
X97790000Y-76835000D03*
X100330000Y-74295000D03*
X97790000Y-74295000D03*
X100330000Y-71755000D03*
X97790000Y-71755000D03*
X100330000Y-69215000D03*
X97790000Y-69215000D03*
X100330000Y-66675000D03*
X97790000Y-66675000D03*
X100330000Y-64135000D03*
X97790000Y-64135000D03*
X100330000Y-61595000D03*
D15*
X97790000Y-61595000D03*
D14*
X123500000Y-76950000D03*
X120960000Y-76950000D03*
X123500000Y-74410000D03*
X120960000Y-74410000D03*
X123500000Y-71870000D03*
X120960000Y-71870000D03*
X123500000Y-69330000D03*
X120960000Y-69330000D03*
X123500000Y-66790000D03*
X120960000Y-66790000D03*
X123500000Y-64250000D03*
X120960000Y-64250000D03*
X123500000Y-61710000D03*
X120960000Y-61710000D03*
X123500000Y-59170000D03*
D15*
X120960000Y-59170000D03*
X112395000Y-52705000D03*
D14*
X114935000Y-52705000D03*
D15*
X113030000Y-74930000D03*
D14*
X115570000Y-74930000D03*
D16*
X99230000Y-54300000D03*
X122230000Y-54300000D03*
D17*
X118110000Y-63500000D03*
D18*
X100330000Y-64135000D02*
X101532081Y-64135000D01*
X101532081Y-64135000D02*
X101858540Y-63808541D01*
D19*
G36*
X111014463Y-51500506D02*
G01*
X110955498Y-51610820D01*
X110919188Y-51730518D01*
X110906928Y-51855000D01*
X110906928Y-53555000D01*
X110919188Y-53679482D01*
X110955498Y-53799180D01*
X111014463Y-53909494D01*
X111093815Y-54006185D01*
X111190506Y-54085537D01*
X111300820Y-54144502D01*
X111420518Y-54180812D01*
X111545000Y-54193072D01*
X113245000Y-54193072D01*
X113369482Y-54180812D01*
X113489180Y-54144502D01*
X113599494Y-54085537D01*
X113696185Y-54006185D01*
X113775537Y-53909494D01*
X113834502Y-53799180D01*
X113858966Y-53718534D01*
X113934731Y-53802588D01*
X114168080Y-53976641D01*
X114430901Y-54101825D01*
X114578110Y-54146476D01*
X114808000Y-54025155D01*
X114808000Y-52832000D01*
X115062000Y-52832000D01*
X115062000Y-54025155D01*
X115291890Y-54146476D01*
X115439099Y-54101825D01*
X115701920Y-53976641D01*
X115935269Y-53802588D01*
X116130178Y-53586355D01*
X116279157Y-53336252D01*
X116376481Y-53061891D01*
X116255814Y-52832000D01*
X115062000Y-52832000D01*
X114808000Y-52832000D01*
X114788000Y-52832000D01*
X114788000Y-52578000D01*
X114808000Y-52578000D01*
X114808000Y-52558000D01*
X115062000Y-52558000D01*
X115062000Y-52578000D01*
X116255814Y-52578000D01*
X116376481Y-52348109D01*
X116279157Y-52073748D01*
X116130178Y-51823645D01*
X115935269Y-51607412D01*
X115737637Y-51460000D01*
X119937533Y-51460000D01*
X119912823Y-51476511D01*
X119406511Y-51982823D01*
X119008705Y-52578182D01*
X118734691Y-53239710D01*
X118595000Y-53941984D01*
X118595000Y-54658016D01*
X118734691Y-55360290D01*
X119008705Y-56021818D01*
X119406511Y-56617177D01*
X119912823Y-57123489D01*
X120508182Y-57521295D01*
X120895984Y-57681928D01*
X120110000Y-57681928D01*
X119985518Y-57694188D01*
X119865820Y-57730498D01*
X119755506Y-57789463D01*
X119658815Y-57868815D01*
X119579463Y-57965506D01*
X119520498Y-58075820D01*
X119484188Y-58195518D01*
X119471928Y-58320000D01*
X119471928Y-60020000D01*
X119484188Y-60144482D01*
X119520498Y-60264180D01*
X119579463Y-60374494D01*
X119658815Y-60471185D01*
X119755506Y-60550537D01*
X119865820Y-60609502D01*
X119934687Y-60630393D01*
X119904866Y-60654866D01*
X119719294Y-60880986D01*
X119581401Y-61138966D01*
X119496487Y-61418889D01*
X119467815Y-61710000D01*
X119496487Y-62001111D01*
X119581401Y-62281034D01*
X119719294Y-62539014D01*
X119904866Y-62765134D01*
X120130986Y-62950706D01*
X120185791Y-62980000D01*
X120130986Y-63009294D01*
X119904866Y-63194866D01*
X119719294Y-63420986D01*
X119581401Y-63678966D01*
X119496487Y-63958889D01*
X119467815Y-64250000D01*
X119496487Y-64541111D01*
X119581401Y-64821034D01*
X119719294Y-65079014D01*
X119904866Y-65305134D01*
X120130986Y-65490706D01*
X120185791Y-65520000D01*
X120130986Y-65549294D01*
X119904866Y-65734866D01*
X119719294Y-65960986D01*
X119581401Y-66218966D01*
X119496487Y-66498889D01*
X119467815Y-66790000D01*
X119496487Y-67081111D01*
X119581401Y-67361034D01*
X119719294Y-67619014D01*
X119904866Y-67845134D01*
X120130986Y-68030706D01*
X120195523Y-68065201D01*
X120078645Y-68134822D01*
X119862412Y-68329731D01*
X119688359Y-68563080D01*
X119563175Y-68825901D01*
X119518524Y-68973110D01*
X119639845Y-69203000D01*
X120833000Y-69203000D01*
X120833000Y-69183000D01*
X121087000Y-69183000D01*
X121087000Y-69203000D01*
X121107000Y-69203000D01*
X121107000Y-69457000D01*
X121087000Y-69457000D01*
X121087000Y-69477000D01*
X120833000Y-69477000D01*
X120833000Y-69457000D01*
X119639845Y-69457000D01*
X119518524Y-69686890D01*
X119563175Y-69834099D01*
X119688359Y-70096920D01*
X119862412Y-70330269D01*
X120078645Y-70525178D01*
X120195523Y-70594799D01*
X120130986Y-70629294D01*
X119904866Y-70814866D01*
X119719294Y-71040986D01*
X119581401Y-71298966D01*
X119496487Y-71578889D01*
X119467815Y-71870000D01*
X119496487Y-72161111D01*
X119581401Y-72441034D01*
X119719294Y-72699014D01*
X119904866Y-72925134D01*
X120130986Y-73110706D01*
X120185791Y-73140000D01*
X120130986Y-73169294D01*
X119904866Y-73354866D01*
X119719294Y-73580986D01*
X119581401Y-73838966D01*
X119496487Y-74118889D01*
X119467815Y-74410000D01*
X119496487Y-74701111D01*
X119581401Y-74981034D01*
X119719294Y-75239014D01*
X119904866Y-75465134D01*
X120130986Y-75650706D01*
X120185791Y-75680000D01*
X120130986Y-75709294D01*
X119904866Y-75894866D01*
X119719294Y-76120986D01*
X119581401Y-76378966D01*
X119496487Y-76658889D01*
X119467815Y-76950000D01*
X119496487Y-77241111D01*
X119581401Y-77521034D01*
X119719294Y-77779014D01*
X119904866Y-78005134D01*
X120130986Y-78190706D01*
X120388966Y-78328599D01*
X120668889Y-78413513D01*
X120887050Y-78435000D01*
X121032950Y-78435000D01*
X121251111Y-78413513D01*
X121531034Y-78328599D01*
X121789014Y-78190706D01*
X122015134Y-78005134D01*
X122200706Y-77779014D01*
X122230000Y-77724209D01*
X122259294Y-77779014D01*
X122444866Y-78005134D01*
X122670986Y-78190706D01*
X122928966Y-78328599D01*
X123208889Y-78413513D01*
X123427050Y-78435000D01*
X123572950Y-78435000D01*
X123791111Y-78413513D01*
X124071034Y-78328599D01*
X124329014Y-78190706D01*
X124555134Y-78005134D01*
X124740706Y-77779014D01*
X124878599Y-77521034D01*
X124963513Y-77241111D01*
X124992185Y-76950000D01*
X124963513Y-76658889D01*
X124878599Y-76378966D01*
X124740706Y-76120986D01*
X124555134Y-75894866D01*
X124329014Y-75709294D01*
X124264477Y-75674799D01*
X124381355Y-75605178D01*
X124597588Y-75410269D01*
X124771641Y-75176920D01*
X124896825Y-74914099D01*
X124941476Y-74766890D01*
X124820155Y-74537000D01*
X123627000Y-74537000D01*
X123627000Y-74557000D01*
X123373000Y-74557000D01*
X123373000Y-74537000D01*
X123353000Y-74537000D01*
X123353000Y-74283000D01*
X123373000Y-74283000D01*
X123373000Y-74263000D01*
X123627000Y-74263000D01*
X123627000Y-74283000D01*
X124820155Y-74283000D01*
X124941476Y-74053110D01*
X124896825Y-73905901D01*
X124771641Y-73643080D01*
X124597588Y-73409731D01*
X124381355Y-73214822D01*
X124264477Y-73145201D01*
X124329014Y-73110706D01*
X124555134Y-72925134D01*
X124740706Y-72699014D01*
X124878599Y-72441034D01*
X124963513Y-72161111D01*
X124992185Y-71870000D01*
X124963513Y-71578889D01*
X124878599Y-71298966D01*
X124740706Y-71040986D01*
X124555134Y-70814866D01*
X124329014Y-70629294D01*
X124274209Y-70600000D01*
X124329014Y-70570706D01*
X124555134Y-70385134D01*
X124740706Y-70159014D01*
X124878599Y-69901034D01*
X124963513Y-69621111D01*
X124992185Y-69330000D01*
X124963513Y-69038889D01*
X124878599Y-68758966D01*
X124740706Y-68500986D01*
X124555134Y-68274866D01*
X124329014Y-68089294D01*
X124274209Y-68060000D01*
X124329014Y-68030706D01*
X124555134Y-67845134D01*
X124740706Y-67619014D01*
X124878599Y-67361034D01*
X124963513Y-67081111D01*
X124992185Y-66790000D01*
X124963513Y-66498889D01*
X124878599Y-66218966D01*
X124740706Y-65960986D01*
X124555134Y-65734866D01*
X124329014Y-65549294D01*
X124264477Y-65514799D01*
X124381355Y-65445178D01*
X124597588Y-65250269D01*
X124771641Y-65016920D01*
X124896825Y-64754099D01*
X124941476Y-64606890D01*
X124820155Y-64377000D01*
X123627000Y-64377000D01*
X123627000Y-64397000D01*
X123373000Y-64397000D01*
X123373000Y-64377000D01*
X123353000Y-64377000D01*
X123353000Y-64123000D01*
X123373000Y-64123000D01*
X123373000Y-64103000D01*
X123627000Y-64103000D01*
X123627000Y-64123000D01*
X124820155Y-64123000D01*
X124941476Y-63893110D01*
X124896825Y-63745901D01*
X124771641Y-63483080D01*
X124597588Y-63249731D01*
X124381355Y-63054822D01*
X124264477Y-62985201D01*
X124329014Y-62950706D01*
X124555134Y-62765134D01*
X124740706Y-62539014D01*
X124878599Y-62281034D01*
X124963513Y-62001111D01*
X124992185Y-61710000D01*
X124963513Y-61418889D01*
X124878599Y-61138966D01*
X124740706Y-60880986D01*
X124555134Y-60654866D01*
X124329014Y-60469294D01*
X124274209Y-60440000D01*
X124329014Y-60410706D01*
X124555134Y-60225134D01*
X124740706Y-59999014D01*
X124878599Y-59741034D01*
X124963513Y-59461111D01*
X124992185Y-59170000D01*
X124963513Y-58878889D01*
X124878599Y-58598966D01*
X124740706Y-58340986D01*
X124555134Y-58114866D01*
X124329014Y-57929294D01*
X124071034Y-57791401D01*
X123791111Y-57706487D01*
X123572950Y-57685000D01*
X123556599Y-57685000D01*
X123951818Y-57521295D01*
X124547177Y-57123489D01*
X125053489Y-56617177D01*
X125070001Y-56592465D01*
X125070000Y-87027418D01*
X125070001Y-87027428D01*
X125070000Y-88875000D01*
X96390000Y-88875000D01*
X96390000Y-84955485D01*
X96411401Y-85026034D01*
X96549294Y-85284014D01*
X96734866Y-85510134D01*
X96960986Y-85695706D01*
X97218966Y-85833599D01*
X97498889Y-85918513D01*
X97717050Y-85940000D01*
X97862950Y-85940000D01*
X98081111Y-85918513D01*
X98361034Y-85833599D01*
X98619014Y-85695706D01*
X98845134Y-85510134D01*
X99030706Y-85284014D01*
X99061584Y-85226244D01*
X99232412Y-85455269D01*
X99448645Y-85650178D01*
X99698748Y-85799157D01*
X99973109Y-85896481D01*
X100203000Y-85775814D01*
X100203000Y-84582000D01*
X100457000Y-84582000D01*
X100457000Y-85775814D01*
X100686891Y-85896481D01*
X100961252Y-85799157D01*
X101211355Y-85650178D01*
X101427588Y-85455269D01*
X101601641Y-85221920D01*
X101726825Y-84959099D01*
X101771476Y-84811890D01*
X101650155Y-84582000D01*
X100457000Y-84582000D01*
X100203000Y-84582000D01*
X100183000Y-84582000D01*
X100183000Y-84328000D01*
X100203000Y-84328000D01*
X100203000Y-82042000D01*
X100457000Y-82042000D01*
X100457000Y-84328000D01*
X101650155Y-84328000D01*
X101771476Y-84098110D01*
X101726825Y-83950901D01*
X101601641Y-83688080D01*
X101427588Y-83454731D01*
X101211355Y-83259822D01*
X101085745Y-83185000D01*
X101211355Y-83110178D01*
X101427588Y-82915269D01*
X101601641Y-82681920D01*
X101726825Y-82419099D01*
X101771476Y-82271890D01*
X101650155Y-82042000D01*
X100457000Y-82042000D01*
X100203000Y-82042000D01*
X100183000Y-82042000D01*
X100183000Y-81788000D01*
X100203000Y-81788000D01*
X100203000Y-79502000D01*
X100457000Y-79502000D01*
X100457000Y-81788000D01*
X101650155Y-81788000D01*
X101771476Y-81558110D01*
X101726825Y-81410901D01*
X101601641Y-81148080D01*
X101427588Y-80914731D01*
X101211355Y-80719822D01*
X101085745Y-80645000D01*
X101211355Y-80570178D01*
X101427588Y-80375269D01*
X101601641Y-80141920D01*
X101726825Y-79879099D01*
X101771476Y-79731890D01*
X101650155Y-79502000D01*
X100457000Y-79502000D01*
X100203000Y-79502000D01*
X100183000Y-79502000D01*
X100183000Y-79248000D01*
X100203000Y-79248000D01*
X100203000Y-76962000D01*
X100457000Y-76962000D01*
X100457000Y-79248000D01*
X101650155Y-79248000D01*
X101771476Y-79018110D01*
X101726825Y-78870901D01*
X101601641Y-78608080D01*
X101427588Y-78374731D01*
X101211355Y-78179822D01*
X101085745Y-78105000D01*
X101211355Y-78030178D01*
X101427588Y-77835269D01*
X101601641Y-77601920D01*
X101726825Y-77339099D01*
X101771476Y-77191890D01*
X101650155Y-76962000D01*
X100457000Y-76962000D01*
X100203000Y-76962000D01*
X100183000Y-76962000D01*
X100183000Y-76708000D01*
X100203000Y-76708000D01*
X100203000Y-74422000D01*
X100457000Y-74422000D01*
X100457000Y-76708000D01*
X101650155Y-76708000D01*
X101771476Y-76478110D01*
X101726825Y-76330901D01*
X101601641Y-76068080D01*
X101427588Y-75834731D01*
X101211355Y-75639822D01*
X101085745Y-75565000D01*
X101211355Y-75490178D01*
X101427588Y-75295269D01*
X101601641Y-75061920D01*
X101726825Y-74799099D01*
X101771476Y-74651890D01*
X101650155Y-74422000D01*
X100457000Y-74422000D01*
X100203000Y-74422000D01*
X100183000Y-74422000D01*
X100183000Y-74168000D01*
X100203000Y-74168000D01*
X100203000Y-71882000D01*
X100457000Y-71882000D01*
X100457000Y-74168000D01*
X101650155Y-74168000D01*
X101771476Y-73938110D01*
X101726825Y-73790901D01*
X101601641Y-73528080D01*
X101427588Y-73294731D01*
X101211355Y-73099822D01*
X101085745Y-73025000D01*
X101211355Y-72950178D01*
X101427588Y-72755269D01*
X101601641Y-72521920D01*
X101726825Y-72259099D01*
X101771476Y-72111890D01*
X101650155Y-71882000D01*
X100457000Y-71882000D01*
X100203000Y-71882000D01*
X100183000Y-71882000D01*
X100183000Y-71628000D01*
X100203000Y-71628000D01*
X100203000Y-69342000D01*
X100457000Y-69342000D01*
X100457000Y-71628000D01*
X101650155Y-71628000D01*
X101771476Y-71398110D01*
X101726825Y-71250901D01*
X101601641Y-70988080D01*
X101427588Y-70754731D01*
X101211355Y-70559822D01*
X101085745Y-70485000D01*
X101211355Y-70410178D01*
X101427588Y-70215269D01*
X101601641Y-69981920D01*
X101726825Y-69719099D01*
X101771476Y-69571890D01*
X101650155Y-69342000D01*
X100457000Y-69342000D01*
X100203000Y-69342000D01*
X100183000Y-69342000D01*
X100183000Y-69088000D01*
X100203000Y-69088000D01*
X100203000Y-66802000D01*
X100457000Y-66802000D01*
X100457000Y-69088000D01*
X101650155Y-69088000D01*
X101771476Y-68858110D01*
X101726825Y-68710901D01*
X101601641Y-68448080D01*
X101427588Y-68214731D01*
X101211355Y-68019822D01*
X101085745Y-67945000D01*
X101211355Y-67870178D01*
X101427588Y-67675269D01*
X101601641Y-67441920D01*
X101726825Y-67179099D01*
X101771476Y-67031890D01*
X101650155Y-66802000D01*
X100457000Y-66802000D01*
X100203000Y-66802000D01*
X100183000Y-66802000D01*
X100183000Y-66548000D01*
X100203000Y-66548000D01*
X100203000Y-64262000D01*
X100183000Y-64262000D01*
X100183000Y-64008000D01*
X100203000Y-64008000D01*
X100203000Y-61722000D01*
X100457000Y-61722000D01*
X100457000Y-64008000D01*
X100477000Y-64008000D01*
X100477000Y-64262000D01*
X100457000Y-64262000D01*
X100457000Y-66548000D01*
X101650155Y-66548000D01*
X101771476Y-66318110D01*
X101726825Y-66170901D01*
X101601641Y-65908080D01*
X101427588Y-65674731D01*
X101211355Y-65479822D01*
X101085745Y-65405000D01*
X101211355Y-65330178D01*
X101427588Y-65135269D01*
X101601641Y-64901920D01*
X101726825Y-64639099D01*
X101771476Y-64491890D01*
X101650156Y-64262002D01*
X101815000Y-64262002D01*
X101815000Y-64135000D01*
X102647815Y-64135000D01*
X102676487Y-64426111D01*
X102761401Y-64706034D01*
X102899294Y-64964014D01*
X103084866Y-65190134D01*
X103310986Y-65375706D01*
X103365791Y-65405000D01*
X103310986Y-65434294D01*
X103084866Y-65619866D01*
X102899294Y-65845986D01*
X102761401Y-66103966D01*
X102676487Y-66383889D01*
X102647815Y-66675000D01*
X102676487Y-66966111D01*
X102761401Y-67246034D01*
X102899294Y-67504014D01*
X103084866Y-67730134D01*
X103310986Y-67915706D01*
X103365791Y-67945000D01*
X103310986Y-67974294D01*
X103084866Y-68159866D01*
X102899294Y-68385986D01*
X102761401Y-68643966D01*
X102676487Y-68923889D01*
X102647815Y-69215000D01*
X102676487Y-69506111D01*
X102761401Y-69786034D01*
X102899294Y-70044014D01*
X103084866Y-70270134D01*
X103310986Y-70455706D01*
X103365791Y-70485000D01*
X103310986Y-70514294D01*
X103084866Y-70699866D01*
X102899294Y-70925986D01*
X102761401Y-71183966D01*
X102676487Y-71463889D01*
X102647815Y-71755000D01*
X102676487Y-72046111D01*
X102761401Y-72326034D01*
X102899294Y-72584014D01*
X103084866Y-72810134D01*
X103310986Y-72995706D01*
X103365791Y-73025000D01*
X103310986Y-73054294D01*
X103084866Y-73239866D01*
X102899294Y-73465986D01*
X102761401Y-73723966D01*
X102676487Y-74003889D01*
X102647815Y-74295000D01*
X102676487Y-74586111D01*
X102761401Y-74866034D01*
X102899294Y-75124014D01*
X103084866Y-75350134D01*
X103310986Y-75535706D01*
X103365791Y-75565000D01*
X103310986Y-75594294D01*
X103084866Y-75779866D01*
X102899294Y-76005986D01*
X102761401Y-76263966D01*
X102676487Y-76543889D01*
X102647815Y-76835000D01*
X102676487Y-77126111D01*
X102761401Y-77406034D01*
X102899294Y-77664014D01*
X103084866Y-77890134D01*
X103310986Y-78075706D01*
X103365791Y-78105000D01*
X103310986Y-78134294D01*
X103084866Y-78319866D01*
X102899294Y-78545986D01*
X102761401Y-78803966D01*
X102676487Y-79083889D01*
X102647815Y-79375000D01*
X102676487Y-79666111D01*
X102761401Y-79946034D01*
X102899294Y-80204014D01*
X103084866Y-80430134D01*
X103310986Y-80615706D01*
X103365791Y-80645000D01*
X103310986Y-80674294D01*
X103084866Y-80859866D01*
X102899294Y-81085986D01*
X102761401Y-81343966D01*
X102676487Y-81623889D01*
X102647815Y-81915000D01*
X102676487Y-82206111D01*
X102761401Y-82486034D01*
X102899294Y-82744014D01*
X103084866Y-82970134D01*
X103310986Y-83155706D01*
X103365791Y-83185000D01*
X103310986Y-83214294D01*
X103084866Y-83399866D01*
X102899294Y-83625986D01*
X102761401Y-83883966D01*
X102676487Y-84163889D01*
X102647815Y-84455000D01*
X102676487Y-84746111D01*
X102761401Y-85026034D01*
X102899294Y-85284014D01*
X103084866Y-85510134D01*
X103310986Y-85695706D01*
X103568966Y-85833599D01*
X103848889Y-85918513D01*
X104067050Y-85940000D01*
X104212950Y-85940000D01*
X104431111Y-85918513D01*
X104711034Y-85833599D01*
X104969014Y-85695706D01*
X105195134Y-85510134D01*
X105380706Y-85284014D01*
X105411584Y-85226244D01*
X105582412Y-85455269D01*
X105798645Y-85650178D01*
X106048748Y-85799157D01*
X106323109Y-85896481D01*
X106553000Y-85775814D01*
X106553000Y-84582000D01*
X106807000Y-84582000D01*
X106807000Y-85775814D01*
X107036891Y-85896481D01*
X107311252Y-85799157D01*
X107561355Y-85650178D01*
X107777588Y-85455269D01*
X107951641Y-85221920D01*
X108076825Y-84959099D01*
X108121476Y-84811890D01*
X108000155Y-84582000D01*
X106807000Y-84582000D01*
X106553000Y-84582000D01*
X106533000Y-84582000D01*
X106533000Y-84328000D01*
X106553000Y-84328000D01*
X106553000Y-82042000D01*
X106807000Y-82042000D01*
X106807000Y-84328000D01*
X108000155Y-84328000D01*
X108121476Y-84098110D01*
X108076825Y-83950901D01*
X107951641Y-83688080D01*
X107777588Y-83454731D01*
X107561355Y-83259822D01*
X107435745Y-83185000D01*
X107561355Y-83110178D01*
X107777588Y-82915269D01*
X107934425Y-82705000D01*
X109371928Y-82705000D01*
X109371928Y-86205000D01*
X109384188Y-86329482D01*
X109420498Y-86449180D01*
X109479463Y-86559494D01*
X109558815Y-86656185D01*
X109655506Y-86735537D01*
X109765820Y-86794502D01*
X109885518Y-86830812D01*
X110010000Y-86843072D01*
X113510000Y-86843072D01*
X113634482Y-86830812D01*
X113754180Y-86794502D01*
X113864494Y-86735537D01*
X113961185Y-86656185D01*
X114040537Y-86559494D01*
X114099502Y-86449180D01*
X114135812Y-86329482D01*
X114148072Y-86205000D01*
X115621928Y-86205000D01*
X115634188Y-86329482D01*
X115670498Y-86449180D01*
X115729463Y-86559494D01*
X115808815Y-86656185D01*
X115905506Y-86735537D01*
X116015820Y-86794502D01*
X116135518Y-86830812D01*
X116260000Y-86843072D01*
X117474250Y-86840000D01*
X117633000Y-86681250D01*
X117633000Y-84582000D01*
X117887000Y-84582000D01*
X117887000Y-86681250D01*
X118045750Y-86840000D01*
X119260000Y-86843072D01*
X119384482Y-86830812D01*
X119504180Y-86794502D01*
X119614494Y-86735537D01*
X119711185Y-86656185D01*
X119790537Y-86559494D01*
X119849502Y-86449180D01*
X119885812Y-86329482D01*
X119898072Y-86205000D01*
X119895000Y-84740750D01*
X119736250Y-84582000D01*
X117887000Y-84582000D01*
X117633000Y-84582000D01*
X115783750Y-84582000D01*
X115625000Y-84740750D01*
X115621928Y-86205000D01*
X114148072Y-86205000D01*
X114148072Y-82705000D01*
X115621928Y-82705000D01*
X115625000Y-84169250D01*
X115783750Y-84328000D01*
X117633000Y-84328000D01*
X117633000Y-82228750D01*
X117887000Y-82228750D01*
X117887000Y-84328000D01*
X119736250Y-84328000D01*
X119895000Y-84169250D01*
X119898072Y-82705000D01*
X119885812Y-82580518D01*
X119849502Y-82460820D01*
X119790537Y-82350506D01*
X119711185Y-82253815D01*
X119614494Y-82174463D01*
X119504180Y-82115498D01*
X119384482Y-82079188D01*
X119260000Y-82066928D01*
X118045750Y-82070000D01*
X117887000Y-82228750D01*
X117633000Y-82228750D01*
X117474250Y-82070000D01*
X116260000Y-82066928D01*
X116135518Y-82079188D01*
X116015820Y-82115498D01*
X115905506Y-82174463D01*
X115808815Y-82253815D01*
X115729463Y-82350506D01*
X115670498Y-82460820D01*
X115634188Y-82580518D01*
X115621928Y-82705000D01*
X114148072Y-82705000D01*
X114135812Y-82580518D01*
X114099502Y-82460820D01*
X114040537Y-82350506D01*
X113961185Y-82253815D01*
X113864494Y-82174463D01*
X113787869Y-82133506D01*
X113885000Y-82143072D01*
X115635000Y-82143072D01*
X115930186Y-82113999D01*
X116214028Y-82027896D01*
X116475618Y-81888073D01*
X116704903Y-81699903D01*
X116893073Y-81470618D01*
X117032896Y-81209028D01*
X117118999Y-80925186D01*
X117148072Y-80630000D01*
X117148072Y-78880000D01*
X117118999Y-78584814D01*
X117032896Y-78300972D01*
X116893073Y-78039382D01*
X116704903Y-77810097D01*
X116475618Y-77621927D01*
X116214028Y-77482104D01*
X115930186Y-77396001D01*
X115635000Y-77366928D01*
X113885000Y-77366928D01*
X113589814Y-77396001D01*
X113305972Y-77482104D01*
X113044382Y-77621927D01*
X112815097Y-77810097D01*
X112626927Y-78039382D01*
X112487104Y-78300972D01*
X112401001Y-78584814D01*
X112371928Y-78880000D01*
X112371928Y-80630000D01*
X112401001Y-80925186D01*
X112487104Y-81209028D01*
X112626927Y-81470618D01*
X112815097Y-81699903D01*
X113044382Y-81888073D01*
X113305972Y-82027896D01*
X113434643Y-82066928D01*
X110010000Y-82066928D01*
X109885518Y-82079188D01*
X109765820Y-82115498D01*
X109655506Y-82174463D01*
X109558815Y-82253815D01*
X109479463Y-82350506D01*
X109420498Y-82460820D01*
X109384188Y-82580518D01*
X109371928Y-82705000D01*
X107934425Y-82705000D01*
X107951641Y-82681920D01*
X108076825Y-82419099D01*
X108121476Y-82271890D01*
X108000155Y-82042000D01*
X106807000Y-82042000D01*
X106553000Y-82042000D01*
X106533000Y-82042000D01*
X106533000Y-81788000D01*
X106553000Y-81788000D01*
X106553000Y-79502000D01*
X106807000Y-79502000D01*
X106807000Y-81788000D01*
X108000155Y-81788000D01*
X108121476Y-81558110D01*
X108076825Y-81410901D01*
X107951641Y-81148080D01*
X107777588Y-80914731D01*
X107561355Y-80719822D01*
X107435745Y-80645000D01*
X107561355Y-80570178D01*
X107777588Y-80375269D01*
X107951641Y-80141920D01*
X108076825Y-79879099D01*
X108121476Y-79731890D01*
X108000155Y-79502000D01*
X106807000Y-79502000D01*
X106553000Y-79502000D01*
X106533000Y-79502000D01*
X106533000Y-79248000D01*
X106553000Y-79248000D01*
X106553000Y-76962000D01*
X106807000Y-76962000D01*
X106807000Y-79248000D01*
X108000155Y-79248000D01*
X108121476Y-79018110D01*
X108076825Y-78870901D01*
X107951641Y-78608080D01*
X107777588Y-78374731D01*
X107561355Y-78179822D01*
X107435745Y-78105000D01*
X107561355Y-78030178D01*
X107777588Y-77835269D01*
X107951641Y-77601920D01*
X108076825Y-77339099D01*
X108121476Y-77191890D01*
X108000155Y-76962000D01*
X106807000Y-76962000D01*
X106553000Y-76962000D01*
X106533000Y-76962000D01*
X106533000Y-76708000D01*
X106553000Y-76708000D01*
X106553000Y-74422000D01*
X106807000Y-74422000D01*
X106807000Y-76708000D01*
X108000155Y-76708000D01*
X108121476Y-76478110D01*
X108076825Y-76330901D01*
X107951641Y-76068080D01*
X107777588Y-75834731D01*
X107561355Y-75639822D01*
X107435745Y-75565000D01*
X107561355Y-75490178D01*
X107777588Y-75295269D01*
X107951641Y-75061920D01*
X108076825Y-74799099D01*
X108121476Y-74651890D01*
X108000155Y-74422000D01*
X106807000Y-74422000D01*
X106553000Y-74422000D01*
X106533000Y-74422000D01*
X106533000Y-74168000D01*
X106553000Y-74168000D01*
X106553000Y-71882000D01*
X106807000Y-71882000D01*
X106807000Y-74168000D01*
X108000155Y-74168000D01*
X108046595Y-74080000D01*
X111541928Y-74080000D01*
X111541928Y-75780000D01*
X111554188Y-75904482D01*
X111590498Y-76024180D01*
X111649463Y-76134494D01*
X111728815Y-76231185D01*
X111825506Y-76310537D01*
X111935820Y-76369502D01*
X112055518Y-76405812D01*
X112180000Y-76418072D01*
X113880000Y-76418072D01*
X114004482Y-76405812D01*
X114124180Y-76369502D01*
X114234494Y-76310537D01*
X114331185Y-76231185D01*
X114410537Y-76134494D01*
X114469502Y-76024180D01*
X114493966Y-75943534D01*
X114569731Y-76027588D01*
X114803080Y-76201641D01*
X115065901Y-76326825D01*
X115213110Y-76371476D01*
X115443000Y-76250155D01*
X115443000Y-75057000D01*
X115697000Y-75057000D01*
X115697000Y-76250155D01*
X115926890Y-76371476D01*
X116074099Y-76326825D01*
X116336920Y-76201641D01*
X116570269Y-76027588D01*
X116765178Y-75811355D01*
X116914157Y-75561252D01*
X117011481Y-75286891D01*
X116890814Y-75057000D01*
X115697000Y-75057000D01*
X115443000Y-75057000D01*
X115423000Y-75057000D01*
X115423000Y-74803000D01*
X115443000Y-74803000D01*
X115443000Y-73609845D01*
X115697000Y-73609845D01*
X115697000Y-74803000D01*
X116890814Y-74803000D01*
X117011481Y-74573109D01*
X116914157Y-74298748D01*
X116765178Y-74048645D01*
X116570269Y-73832412D01*
X116336920Y-73658359D01*
X116074099Y-73533175D01*
X115926890Y-73488524D01*
X115697000Y-73609845D01*
X115443000Y-73609845D01*
X115213110Y-73488524D01*
X115065901Y-73533175D01*
X114803080Y-73658359D01*
X114569731Y-73832412D01*
X114493966Y-73916466D01*
X114469502Y-73835820D01*
X114410537Y-73725506D01*
X114331185Y-73628815D01*
X114234494Y-73549463D01*
X114124180Y-73490498D01*
X114004482Y-73454188D01*
X113880000Y-73441928D01*
X112180000Y-73441928D01*
X112055518Y-73454188D01*
X111935820Y-73490498D01*
X111825506Y-73549463D01*
X111728815Y-73628815D01*
X111649463Y-73725506D01*
X111590498Y-73835820D01*
X111554188Y-73955518D01*
X111541928Y-74080000D01*
X108046595Y-74080000D01*
X108121476Y-73938110D01*
X108076825Y-73790901D01*
X107951641Y-73528080D01*
X107777588Y-73294731D01*
X107561355Y-73099822D01*
X107435745Y-73025000D01*
X107561355Y-72950178D01*
X107777588Y-72755269D01*
X107951641Y-72521920D01*
X108076825Y-72259099D01*
X108121476Y-72111890D01*
X108000155Y-71882000D01*
X106807000Y-71882000D01*
X106553000Y-71882000D01*
X106533000Y-71882000D01*
X106533000Y-71628000D01*
X106553000Y-71628000D01*
X106553000Y-69342000D01*
X106807000Y-69342000D01*
X106807000Y-71628000D01*
X108000155Y-71628000D01*
X108121476Y-71398110D01*
X108076825Y-71250901D01*
X107951641Y-70988080D01*
X107777588Y-70754731D01*
X107561355Y-70559822D01*
X107435745Y-70485000D01*
X107561355Y-70410178D01*
X107777588Y-70215269D01*
X107951641Y-69981920D01*
X108076825Y-69719099D01*
X108121476Y-69571890D01*
X108000155Y-69342000D01*
X106807000Y-69342000D01*
X106553000Y-69342000D01*
X106533000Y-69342000D01*
X106533000Y-69088000D01*
X106553000Y-69088000D01*
X106553000Y-66802000D01*
X106807000Y-66802000D01*
X106807000Y-69088000D01*
X108000155Y-69088000D01*
X108121476Y-68858110D01*
X108076825Y-68710901D01*
X107951641Y-68448080D01*
X107777588Y-68214731D01*
X107561355Y-68019822D01*
X107435745Y-67945000D01*
X107561355Y-67870178D01*
X107777588Y-67675269D01*
X107951641Y-67441920D01*
X108076825Y-67179099D01*
X108121476Y-67031890D01*
X108000155Y-66802000D01*
X106807000Y-66802000D01*
X106553000Y-66802000D01*
X106533000Y-66802000D01*
X106533000Y-66548000D01*
X106553000Y-66548000D01*
X106553000Y-64262000D01*
X106807000Y-64262000D01*
X106807000Y-66548000D01*
X108000155Y-66548000D01*
X108121476Y-66318110D01*
X108076825Y-66170901D01*
X107951641Y-65908080D01*
X107777588Y-65674731D01*
X107561355Y-65479822D01*
X107435745Y-65405000D01*
X107561355Y-65330178D01*
X107777588Y-65135269D01*
X107951641Y-64901920D01*
X108076825Y-64639099D01*
X108121476Y-64491890D01*
X108000155Y-64262000D01*
X106807000Y-64262000D01*
X106553000Y-64262000D01*
X106533000Y-64262000D01*
X106533000Y-64008000D01*
X106553000Y-64008000D01*
X106553000Y-61722000D01*
X106807000Y-61722000D01*
X106807000Y-64008000D01*
X108000155Y-64008000D01*
X108121476Y-63778110D01*
X108076825Y-63630901D01*
X107951641Y-63368080D01*
X107777588Y-63134731D01*
X107561355Y-62939822D01*
X107435745Y-62865000D01*
X107561355Y-62790178D01*
X107777588Y-62595269D01*
X107951641Y-62361920D01*
X108076825Y-62099099D01*
X108121476Y-61951890D01*
X108000155Y-61722000D01*
X106807000Y-61722000D01*
X106553000Y-61722000D01*
X106533000Y-61722000D01*
X106533000Y-61468000D01*
X106553000Y-61468000D01*
X106553000Y-60274186D01*
X106807000Y-60274186D01*
X106807000Y-61468000D01*
X108000155Y-61468000D01*
X108121476Y-61238110D01*
X108076825Y-61090901D01*
X107951641Y-60828080D01*
X107777588Y-60594731D01*
X107561355Y-60399822D01*
X107311252Y-60250843D01*
X107036891Y-60153519D01*
X106807000Y-60274186D01*
X106553000Y-60274186D01*
X106323109Y-60153519D01*
X106048748Y-60250843D01*
X105798645Y-60399822D01*
X105602498Y-60576626D01*
X105579502Y-60500820D01*
X105520537Y-60390506D01*
X105441185Y-60293815D01*
X105344494Y-60214463D01*
X105234180Y-60155498D01*
X105114482Y-60119188D01*
X104990000Y-60106928D01*
X103290000Y-60106928D01*
X103165518Y-60119188D01*
X103045820Y-60155498D01*
X102935506Y-60214463D01*
X102838815Y-60293815D01*
X102759463Y-60390506D01*
X102700498Y-60500820D01*
X102664188Y-60620518D01*
X102651928Y-60745000D01*
X102651928Y-62445000D01*
X102664188Y-62569482D01*
X102700498Y-62689180D01*
X102759463Y-62799494D01*
X102838815Y-62896185D01*
X102935506Y-62975537D01*
X103045820Y-63034502D01*
X103114687Y-63055393D01*
X103084866Y-63079866D01*
X102899294Y-63305986D01*
X102761401Y-63563966D01*
X102676487Y-63843889D01*
X102647815Y-64135000D01*
X101815000Y-64135000D01*
X101815000Y-64007998D01*
X101650156Y-64007998D01*
X101771476Y-63778110D01*
X101726825Y-63630901D01*
X101601641Y-63368080D01*
X101427588Y-63134731D01*
X101211355Y-62939822D01*
X101085745Y-62865000D01*
X101211355Y-62790178D01*
X101427588Y-62595269D01*
X101601641Y-62361920D01*
X101726825Y-62099099D01*
X101771476Y-61951890D01*
X101650155Y-61722000D01*
X100457000Y-61722000D01*
X100203000Y-61722000D01*
X100183000Y-61722000D01*
X100183000Y-61468000D01*
X100203000Y-61468000D01*
X100203000Y-60274186D01*
X100457000Y-60274186D01*
X100457000Y-61468000D01*
X101650155Y-61468000D01*
X101771476Y-61238110D01*
X101726825Y-61090901D01*
X101601641Y-60828080D01*
X101427588Y-60594731D01*
X101211355Y-60399822D01*
X100961252Y-60250843D01*
X100686891Y-60153519D01*
X100457000Y-60274186D01*
X100203000Y-60274186D01*
X99973109Y-60153519D01*
X99698748Y-60250843D01*
X99448645Y-60399822D01*
X99252498Y-60576626D01*
X99229502Y-60500820D01*
X99170537Y-60390506D01*
X99091185Y-60293815D01*
X98994494Y-60214463D01*
X98884180Y-60155498D01*
X98764482Y-60119188D01*
X98640000Y-60106928D01*
X96940000Y-60106928D01*
X96815518Y-60119188D01*
X96695820Y-60155498D01*
X96585506Y-60214463D01*
X96488815Y-60293815D01*
X96409463Y-60390506D01*
X96390000Y-60426918D01*
X96390000Y-56592467D01*
X96406511Y-56617177D01*
X96912823Y-57123489D01*
X97508182Y-57521295D01*
X98169710Y-57795309D01*
X98871984Y-57935000D01*
X99588016Y-57935000D01*
X100290290Y-57795309D01*
X100951818Y-57521295D01*
X101547177Y-57123489D01*
X102053489Y-56617177D01*
X102451295Y-56021818D01*
X102725309Y-55360290D01*
X102865000Y-54658016D01*
X102865000Y-53941984D01*
X102725309Y-53239710D01*
X102451295Y-52578182D01*
X102053489Y-51982823D01*
X101547177Y-51476511D01*
X101522467Y-51460000D01*
X111047705Y-51460000D01*
X111014463Y-51500506D01*
X111014463Y-51500506D01*
G37*
X111014463Y-51500506D02*
X110955498Y-51610820D01*
X110919188Y-51730518D01*
X110906928Y-51855000D01*
X110906928Y-53555000D01*
X110919188Y-53679482D01*
X110955498Y-53799180D01*
X111014463Y-53909494D01*
X111093815Y-54006185D01*
X111190506Y-54085537D01*
X111300820Y-54144502D01*
X111420518Y-54180812D01*
X111545000Y-54193072D01*
X113245000Y-54193072D01*
X113369482Y-54180812D01*
X113489180Y-54144502D01*
X113599494Y-54085537D01*
X113696185Y-54006185D01*
X113775537Y-53909494D01*
X113834502Y-53799180D01*
X113858966Y-53718534D01*
X113934731Y-53802588D01*
X114168080Y-53976641D01*
X114430901Y-54101825D01*
X114578110Y-54146476D01*
X114808000Y-54025155D01*
X114808000Y-52832000D01*
X115062000Y-52832000D01*
X115062000Y-54025155D01*
X115291890Y-54146476D01*
X115439099Y-54101825D01*
X115701920Y-53976641D01*
X115935269Y-53802588D01*
X116130178Y-53586355D01*
X116279157Y-53336252D01*
X116376481Y-53061891D01*
X116255814Y-52832000D01*
X115062000Y-52832000D01*
X114808000Y-52832000D01*
X114788000Y-52832000D01*
X114788000Y-52578000D01*
X114808000Y-52578000D01*
X114808000Y-52558000D01*
X115062000Y-52558000D01*
X115062000Y-52578000D01*
X116255814Y-52578000D01*
X116376481Y-52348109D01*
X116279157Y-52073748D01*
X116130178Y-51823645D01*
X115935269Y-51607412D01*
X115737637Y-51460000D01*
X119937533Y-51460000D01*
X119912823Y-51476511D01*
X119406511Y-51982823D01*
X119008705Y-52578182D01*
X118734691Y-53239710D01*
X118595000Y-53941984D01*
X118595000Y-54658016D01*
X118734691Y-55360290D01*
X119008705Y-56021818D01*
X119406511Y-56617177D01*
X119912823Y-57123489D01*
X120508182Y-57521295D01*
X120895984Y-57681928D01*
X120110000Y-57681928D01*
X119985518Y-57694188D01*
X119865820Y-57730498D01*
X119755506Y-57789463D01*
X119658815Y-57868815D01*
X119579463Y-57965506D01*
X119520498Y-58075820D01*
X119484188Y-58195518D01*
X119471928Y-58320000D01*
X119471928Y-60020000D01*
X119484188Y-60144482D01*
X119520498Y-60264180D01*
X119579463Y-60374494D01*
X119658815Y-60471185D01*
X119755506Y-60550537D01*
X119865820Y-60609502D01*
X119934687Y-60630393D01*
X119904866Y-60654866D01*
X119719294Y-60880986D01*
X119581401Y-61138966D01*
X119496487Y-61418889D01*
X119467815Y-61710000D01*
X119496487Y-62001111D01*
X119581401Y-62281034D01*
X119719294Y-62539014D01*
X119904866Y-62765134D01*
X120130986Y-62950706D01*
X120185791Y-62980000D01*
X120130986Y-63009294D01*
X119904866Y-63194866D01*
X119719294Y-63420986D01*
X119581401Y-63678966D01*
X119496487Y-63958889D01*
X119467815Y-64250000D01*
X119496487Y-64541111D01*
X119581401Y-64821034D01*
X119719294Y-65079014D01*
X119904866Y-65305134D01*
X120130986Y-65490706D01*
X120185791Y-65520000D01*
X120130986Y-65549294D01*
X119904866Y-65734866D01*
X119719294Y-65960986D01*
X119581401Y-66218966D01*
X119496487Y-66498889D01*
X119467815Y-66790000D01*
X119496487Y-67081111D01*
X119581401Y-67361034D01*
X119719294Y-67619014D01*
X119904866Y-67845134D01*
X120130986Y-68030706D01*
X120195523Y-68065201D01*
X120078645Y-68134822D01*
X119862412Y-68329731D01*
X119688359Y-68563080D01*
X119563175Y-68825901D01*
X119518524Y-68973110D01*
X119639845Y-69203000D01*
X120833000Y-69203000D01*
X120833000Y-69183000D01*
X121087000Y-69183000D01*
X121087000Y-69203000D01*
X121107000Y-69203000D01*
X121107000Y-69457000D01*
X121087000Y-69457000D01*
X121087000Y-69477000D01*
X120833000Y-69477000D01*
X120833000Y-69457000D01*
X119639845Y-69457000D01*
X119518524Y-69686890D01*
X119563175Y-69834099D01*
X119688359Y-70096920D01*
X119862412Y-70330269D01*
X120078645Y-70525178D01*
X120195523Y-70594799D01*
X120130986Y-70629294D01*
X119904866Y-70814866D01*
X119719294Y-71040986D01*
X119581401Y-71298966D01*
X119496487Y-71578889D01*
X119467815Y-71870000D01*
X119496487Y-72161111D01*
X119581401Y-72441034D01*
X119719294Y-72699014D01*
X119904866Y-72925134D01*
X120130986Y-73110706D01*
X120185791Y-73140000D01*
X120130986Y-73169294D01*
X119904866Y-73354866D01*
X119719294Y-73580986D01*
X119581401Y-73838966D01*
X119496487Y-74118889D01*
X119467815Y-74410000D01*
X119496487Y-74701111D01*
X119581401Y-74981034D01*
X119719294Y-75239014D01*
X119904866Y-75465134D01*
X120130986Y-75650706D01*
X120185791Y-75680000D01*
X120130986Y-75709294D01*
X119904866Y-75894866D01*
X119719294Y-76120986D01*
X119581401Y-76378966D01*
X119496487Y-76658889D01*
X119467815Y-76950000D01*
X119496487Y-77241111D01*
X119581401Y-77521034D01*
X119719294Y-77779014D01*
X119904866Y-78005134D01*
X120130986Y-78190706D01*
X120388966Y-78328599D01*
X120668889Y-78413513D01*
X120887050Y-78435000D01*
X121032950Y-78435000D01*
X121251111Y-78413513D01*
X121531034Y-78328599D01*
X121789014Y-78190706D01*
X122015134Y-78005134D01*
X122200706Y-77779014D01*
X122230000Y-77724209D01*
X122259294Y-77779014D01*
X122444866Y-78005134D01*
X122670986Y-78190706D01*
X122928966Y-78328599D01*
X123208889Y-78413513D01*
X123427050Y-78435000D01*
X123572950Y-78435000D01*
X123791111Y-78413513D01*
X124071034Y-78328599D01*
X124329014Y-78190706D01*
X124555134Y-78005134D01*
X124740706Y-77779014D01*
X124878599Y-77521034D01*
X124963513Y-77241111D01*
X124992185Y-76950000D01*
X124963513Y-76658889D01*
X124878599Y-76378966D01*
X124740706Y-76120986D01*
X124555134Y-75894866D01*
X124329014Y-75709294D01*
X124264477Y-75674799D01*
X124381355Y-75605178D01*
X124597588Y-75410269D01*
X124771641Y-75176920D01*
X124896825Y-74914099D01*
X124941476Y-74766890D01*
X124820155Y-74537000D01*
X123627000Y-74537000D01*
X123627000Y-74557000D01*
X123373000Y-74557000D01*
X123373000Y-74537000D01*
X123353000Y-74537000D01*
X123353000Y-74283000D01*
X123373000Y-74283000D01*
X123373000Y-74263000D01*
X123627000Y-74263000D01*
X123627000Y-74283000D01*
X124820155Y-74283000D01*
X124941476Y-74053110D01*
X124896825Y-73905901D01*
X124771641Y-73643080D01*
X124597588Y-73409731D01*
X124381355Y-73214822D01*
X124264477Y-73145201D01*
X124329014Y-73110706D01*
X124555134Y-72925134D01*
X124740706Y-72699014D01*
X124878599Y-72441034D01*
X124963513Y-72161111D01*
X124992185Y-71870000D01*
X124963513Y-71578889D01*
X124878599Y-71298966D01*
X124740706Y-71040986D01*
X124555134Y-70814866D01*
X124329014Y-70629294D01*
X124274209Y-70600000D01*
X124329014Y-70570706D01*
X124555134Y-70385134D01*
X124740706Y-70159014D01*
X124878599Y-69901034D01*
X124963513Y-69621111D01*
X124992185Y-69330000D01*
X124963513Y-69038889D01*
X124878599Y-68758966D01*
X124740706Y-68500986D01*
X124555134Y-68274866D01*
X124329014Y-68089294D01*
X124274209Y-68060000D01*
X124329014Y-68030706D01*
X124555134Y-67845134D01*
X124740706Y-67619014D01*
X124878599Y-67361034D01*
X124963513Y-67081111D01*
X124992185Y-66790000D01*
X124963513Y-66498889D01*
X124878599Y-66218966D01*
X124740706Y-65960986D01*
X124555134Y-65734866D01*
X124329014Y-65549294D01*
X124264477Y-65514799D01*
X124381355Y-65445178D01*
X124597588Y-65250269D01*
X124771641Y-65016920D01*
X124896825Y-64754099D01*
X124941476Y-64606890D01*
X124820155Y-64377000D01*
X123627000Y-64377000D01*
X123627000Y-64397000D01*
X123373000Y-64397000D01*
X123373000Y-64377000D01*
X123353000Y-64377000D01*
X123353000Y-64123000D01*
X123373000Y-64123000D01*
X123373000Y-64103000D01*
X123627000Y-64103000D01*
X123627000Y-64123000D01*
X124820155Y-64123000D01*
X124941476Y-63893110D01*
X124896825Y-63745901D01*
X124771641Y-63483080D01*
X124597588Y-63249731D01*
X124381355Y-63054822D01*
X124264477Y-62985201D01*
X124329014Y-62950706D01*
X124555134Y-62765134D01*
X124740706Y-62539014D01*
X124878599Y-62281034D01*
X124963513Y-62001111D01*
X124992185Y-61710000D01*
X124963513Y-61418889D01*
X124878599Y-61138966D01*
X124740706Y-60880986D01*
X124555134Y-60654866D01*
X124329014Y-60469294D01*
X124274209Y-60440000D01*
X124329014Y-60410706D01*
X124555134Y-60225134D01*
X124740706Y-59999014D01*
X124878599Y-59741034D01*
X124963513Y-59461111D01*
X124992185Y-59170000D01*
X124963513Y-58878889D01*
X124878599Y-58598966D01*
X124740706Y-58340986D01*
X124555134Y-58114866D01*
X124329014Y-57929294D01*
X124071034Y-57791401D01*
X123791111Y-57706487D01*
X123572950Y-57685000D01*
X123556599Y-57685000D01*
X123951818Y-57521295D01*
X124547177Y-57123489D01*
X125053489Y-56617177D01*
X125070001Y-56592465D01*
X125070000Y-87027418D01*
X125070001Y-87027428D01*
X125070000Y-88875000D01*
X96390000Y-88875000D01*
X96390000Y-84955485D01*
X96411401Y-85026034D01*
X96549294Y-85284014D01*
X96734866Y-85510134D01*
X96960986Y-85695706D01*
X97218966Y-85833599D01*
X97498889Y-85918513D01*
X97717050Y-85940000D01*
X97862950Y-85940000D01*
X98081111Y-85918513D01*
X98361034Y-85833599D01*
X98619014Y-85695706D01*
X98845134Y-85510134D01*
X99030706Y-85284014D01*
X99061584Y-85226244D01*
X99232412Y-85455269D01*
X99448645Y-85650178D01*
X99698748Y-85799157D01*
X99973109Y-85896481D01*
X100203000Y-85775814D01*
X100203000Y-84582000D01*
X100457000Y-84582000D01*
X100457000Y-85775814D01*
X100686891Y-85896481D01*
X100961252Y-85799157D01*
X101211355Y-85650178D01*
X101427588Y-85455269D01*
X101601641Y-85221920D01*
X101726825Y-84959099D01*
X101771476Y-84811890D01*
X101650155Y-84582000D01*
X100457000Y-84582000D01*
X100203000Y-84582000D01*
X100183000Y-84582000D01*
X100183000Y-84328000D01*
X100203000Y-84328000D01*
X100203000Y-82042000D01*
X100457000Y-82042000D01*
X100457000Y-84328000D01*
X101650155Y-84328000D01*
X101771476Y-84098110D01*
X101726825Y-83950901D01*
X101601641Y-83688080D01*
X101427588Y-83454731D01*
X101211355Y-83259822D01*
X101085745Y-83185000D01*
X101211355Y-83110178D01*
X101427588Y-82915269D01*
X101601641Y-82681920D01*
X101726825Y-82419099D01*
X101771476Y-82271890D01*
X101650155Y-82042000D01*
X100457000Y-82042000D01*
X100203000Y-82042000D01*
X100183000Y-82042000D01*
X100183000Y-81788000D01*
X100203000Y-81788000D01*
X100203000Y-79502000D01*
X100457000Y-79502000D01*
X100457000Y-81788000D01*
X101650155Y-81788000D01*
X101771476Y-81558110D01*
X101726825Y-81410901D01*
X101601641Y-81148080D01*
X101427588Y-80914731D01*
X101211355Y-80719822D01*
X101085745Y-80645000D01*
X101211355Y-80570178D01*
X101427588Y-80375269D01*
X101601641Y-80141920D01*
X101726825Y-79879099D01*
X101771476Y-79731890D01*
X101650155Y-79502000D01*
X100457000Y-79502000D01*
X100203000Y-79502000D01*
X100183000Y-79502000D01*
X100183000Y-79248000D01*
X100203000Y-79248000D01*
X100203000Y-76962000D01*
X100457000Y-76962000D01*
X100457000Y-79248000D01*
X101650155Y-79248000D01*
X101771476Y-79018110D01*
X101726825Y-78870901D01*
X101601641Y-78608080D01*
X101427588Y-78374731D01*
X101211355Y-78179822D01*
X101085745Y-78105000D01*
X101211355Y-78030178D01*
X101427588Y-77835269D01*
X101601641Y-77601920D01*
X101726825Y-77339099D01*
X101771476Y-77191890D01*
X101650155Y-76962000D01*
X100457000Y-76962000D01*
X100203000Y-76962000D01*
X100183000Y-76962000D01*
X100183000Y-76708000D01*
X100203000Y-76708000D01*
X100203000Y-74422000D01*
X100457000Y-74422000D01*
X100457000Y-76708000D01*
X101650155Y-76708000D01*
X101771476Y-76478110D01*
X101726825Y-76330901D01*
X101601641Y-76068080D01*
X101427588Y-75834731D01*
X101211355Y-75639822D01*
X101085745Y-75565000D01*
X101211355Y-75490178D01*
X101427588Y-75295269D01*
X101601641Y-75061920D01*
X101726825Y-74799099D01*
X101771476Y-74651890D01*
X101650155Y-74422000D01*
X100457000Y-74422000D01*
X100203000Y-74422000D01*
X100183000Y-74422000D01*
X100183000Y-74168000D01*
X100203000Y-74168000D01*
X100203000Y-71882000D01*
X100457000Y-71882000D01*
X100457000Y-74168000D01*
X101650155Y-74168000D01*
X101771476Y-73938110D01*
X101726825Y-73790901D01*
X101601641Y-73528080D01*
X101427588Y-73294731D01*
X101211355Y-73099822D01*
X101085745Y-73025000D01*
X101211355Y-72950178D01*
X101427588Y-72755269D01*
X101601641Y-72521920D01*
X101726825Y-72259099D01*
X101771476Y-72111890D01*
X101650155Y-71882000D01*
X100457000Y-71882000D01*
X100203000Y-71882000D01*
X100183000Y-71882000D01*
X100183000Y-71628000D01*
X100203000Y-71628000D01*
X100203000Y-69342000D01*
X100457000Y-69342000D01*
X100457000Y-71628000D01*
X101650155Y-71628000D01*
X101771476Y-71398110D01*
X101726825Y-71250901D01*
X101601641Y-70988080D01*
X101427588Y-70754731D01*
X101211355Y-70559822D01*
X101085745Y-70485000D01*
X101211355Y-70410178D01*
X101427588Y-70215269D01*
X101601641Y-69981920D01*
X101726825Y-69719099D01*
X101771476Y-69571890D01*
X101650155Y-69342000D01*
X100457000Y-69342000D01*
X100203000Y-69342000D01*
X100183000Y-69342000D01*
X100183000Y-69088000D01*
X100203000Y-69088000D01*
X100203000Y-66802000D01*
X100457000Y-66802000D01*
X100457000Y-69088000D01*
X101650155Y-69088000D01*
X101771476Y-68858110D01*
X101726825Y-68710901D01*
X101601641Y-68448080D01*
X101427588Y-68214731D01*
X101211355Y-68019822D01*
X101085745Y-67945000D01*
X101211355Y-67870178D01*
X101427588Y-67675269D01*
X101601641Y-67441920D01*
X101726825Y-67179099D01*
X101771476Y-67031890D01*
X101650155Y-66802000D01*
X100457000Y-66802000D01*
X100203000Y-66802000D01*
X100183000Y-66802000D01*
X100183000Y-66548000D01*
X100203000Y-66548000D01*
X100203000Y-64262000D01*
X100183000Y-64262000D01*
X100183000Y-64008000D01*
X100203000Y-64008000D01*
X100203000Y-61722000D01*
X100457000Y-61722000D01*
X100457000Y-64008000D01*
X100477000Y-64008000D01*
X100477000Y-64262000D01*
X100457000Y-64262000D01*
X100457000Y-66548000D01*
X101650155Y-66548000D01*
X101771476Y-66318110D01*
X101726825Y-66170901D01*
X101601641Y-65908080D01*
X101427588Y-65674731D01*
X101211355Y-65479822D01*
X101085745Y-65405000D01*
X101211355Y-65330178D01*
X101427588Y-65135269D01*
X101601641Y-64901920D01*
X101726825Y-64639099D01*
X101771476Y-64491890D01*
X101650156Y-64262002D01*
X101815000Y-64262002D01*
X101815000Y-64135000D01*
X102647815Y-64135000D01*
X102676487Y-64426111D01*
X102761401Y-64706034D01*
X102899294Y-64964014D01*
X103084866Y-65190134D01*
X103310986Y-65375706D01*
X103365791Y-65405000D01*
X103310986Y-65434294D01*
X103084866Y-65619866D01*
X102899294Y-65845986D01*
X102761401Y-66103966D01*
X102676487Y-66383889D01*
X102647815Y-66675000D01*
X102676487Y-66966111D01*
X102761401Y-67246034D01*
X102899294Y-67504014D01*
X103084866Y-67730134D01*
X103310986Y-67915706D01*
X103365791Y-67945000D01*
X103310986Y-67974294D01*
X103084866Y-68159866D01*
X102899294Y-68385986D01*
X102761401Y-68643966D01*
X102676487Y-68923889D01*
X102647815Y-69215000D01*
X102676487Y-69506111D01*
X102761401Y-69786034D01*
X102899294Y-70044014D01*
X103084866Y-70270134D01*
X103310986Y-70455706D01*
X103365791Y-70485000D01*
X103310986Y-70514294D01*
X103084866Y-70699866D01*
X102899294Y-70925986D01*
X102761401Y-71183966D01*
X102676487Y-71463889D01*
X102647815Y-71755000D01*
X102676487Y-72046111D01*
X102761401Y-72326034D01*
X102899294Y-72584014D01*
X103084866Y-72810134D01*
X103310986Y-72995706D01*
X103365791Y-73025000D01*
X103310986Y-73054294D01*
X103084866Y-73239866D01*
X102899294Y-73465986D01*
X102761401Y-73723966D01*
X102676487Y-74003889D01*
X102647815Y-74295000D01*
X102676487Y-74586111D01*
X102761401Y-74866034D01*
X102899294Y-75124014D01*
X103084866Y-75350134D01*
X103310986Y-75535706D01*
X103365791Y-75565000D01*
X103310986Y-75594294D01*
X103084866Y-75779866D01*
X102899294Y-76005986D01*
X102761401Y-76263966D01*
X102676487Y-76543889D01*
X102647815Y-76835000D01*
X102676487Y-77126111D01*
X102761401Y-77406034D01*
X102899294Y-77664014D01*
X103084866Y-77890134D01*
X103310986Y-78075706D01*
X103365791Y-78105000D01*
X103310986Y-78134294D01*
X103084866Y-78319866D01*
X102899294Y-78545986D01*
X102761401Y-78803966D01*
X102676487Y-79083889D01*
X102647815Y-79375000D01*
X102676487Y-79666111D01*
X102761401Y-79946034D01*
X102899294Y-80204014D01*
X103084866Y-80430134D01*
X103310986Y-80615706D01*
X103365791Y-80645000D01*
X103310986Y-80674294D01*
X103084866Y-80859866D01*
X102899294Y-81085986D01*
X102761401Y-81343966D01*
X102676487Y-81623889D01*
X102647815Y-81915000D01*
X102676487Y-82206111D01*
X102761401Y-82486034D01*
X102899294Y-82744014D01*
X103084866Y-82970134D01*
X103310986Y-83155706D01*
X103365791Y-83185000D01*
X103310986Y-83214294D01*
X103084866Y-83399866D01*
X102899294Y-83625986D01*
X102761401Y-83883966D01*
X102676487Y-84163889D01*
X102647815Y-84455000D01*
X102676487Y-84746111D01*
X102761401Y-85026034D01*
X102899294Y-85284014D01*
X103084866Y-85510134D01*
X103310986Y-85695706D01*
X103568966Y-85833599D01*
X103848889Y-85918513D01*
X104067050Y-85940000D01*
X104212950Y-85940000D01*
X104431111Y-85918513D01*
X104711034Y-85833599D01*
X104969014Y-85695706D01*
X105195134Y-85510134D01*
X105380706Y-85284014D01*
X105411584Y-85226244D01*
X105582412Y-85455269D01*
X105798645Y-85650178D01*
X106048748Y-85799157D01*
X106323109Y-85896481D01*
X106553000Y-85775814D01*
X106553000Y-84582000D01*
X106807000Y-84582000D01*
X106807000Y-85775814D01*
X107036891Y-85896481D01*
X107311252Y-85799157D01*
X107561355Y-85650178D01*
X107777588Y-85455269D01*
X107951641Y-85221920D01*
X108076825Y-84959099D01*
X108121476Y-84811890D01*
X108000155Y-84582000D01*
X106807000Y-84582000D01*
X106553000Y-84582000D01*
X106533000Y-84582000D01*
X106533000Y-84328000D01*
X106553000Y-84328000D01*
X106553000Y-82042000D01*
X106807000Y-82042000D01*
X106807000Y-84328000D01*
X108000155Y-84328000D01*
X108121476Y-84098110D01*
X108076825Y-83950901D01*
X107951641Y-83688080D01*
X107777588Y-83454731D01*
X107561355Y-83259822D01*
X107435745Y-83185000D01*
X107561355Y-83110178D01*
X107777588Y-82915269D01*
X107934425Y-82705000D01*
X109371928Y-82705000D01*
X109371928Y-86205000D01*
X109384188Y-86329482D01*
X109420498Y-86449180D01*
X109479463Y-86559494D01*
X109558815Y-86656185D01*
X109655506Y-86735537D01*
X109765820Y-86794502D01*
X109885518Y-86830812D01*
X110010000Y-86843072D01*
X113510000Y-86843072D01*
X113634482Y-86830812D01*
X113754180Y-86794502D01*
X113864494Y-86735537D01*
X113961185Y-86656185D01*
X114040537Y-86559494D01*
X114099502Y-86449180D01*
X114135812Y-86329482D01*
X114148072Y-86205000D01*
X115621928Y-86205000D01*
X115634188Y-86329482D01*
X115670498Y-86449180D01*
X115729463Y-86559494D01*
X115808815Y-86656185D01*
X115905506Y-86735537D01*
X116015820Y-86794502D01*
X116135518Y-86830812D01*
X116260000Y-86843072D01*
X117474250Y-86840000D01*
X117633000Y-86681250D01*
X117633000Y-84582000D01*
X117887000Y-84582000D01*
X117887000Y-86681250D01*
X118045750Y-86840000D01*
X119260000Y-86843072D01*
X119384482Y-86830812D01*
X119504180Y-86794502D01*
X119614494Y-86735537D01*
X119711185Y-86656185D01*
X119790537Y-86559494D01*
X119849502Y-86449180D01*
X119885812Y-86329482D01*
X119898072Y-86205000D01*
X119895000Y-84740750D01*
X119736250Y-84582000D01*
X117887000Y-84582000D01*
X117633000Y-84582000D01*
X115783750Y-84582000D01*
X115625000Y-84740750D01*
X115621928Y-86205000D01*
X114148072Y-86205000D01*
X114148072Y-82705000D01*
X115621928Y-82705000D01*
X115625000Y-84169250D01*
X115783750Y-84328000D01*
X117633000Y-84328000D01*
X117633000Y-82228750D01*
X117887000Y-82228750D01*
X117887000Y-84328000D01*
X119736250Y-84328000D01*
X119895000Y-84169250D01*
X119898072Y-82705000D01*
X119885812Y-82580518D01*
X119849502Y-82460820D01*
X119790537Y-82350506D01*
X119711185Y-82253815D01*
X119614494Y-82174463D01*
X119504180Y-82115498D01*
X119384482Y-82079188D01*
X119260000Y-82066928D01*
X118045750Y-82070000D01*
X117887000Y-82228750D01*
X117633000Y-82228750D01*
X117474250Y-82070000D01*
X116260000Y-82066928D01*
X116135518Y-82079188D01*
X116015820Y-82115498D01*
X115905506Y-82174463D01*
X115808815Y-82253815D01*
X115729463Y-82350506D01*
X115670498Y-82460820D01*
X115634188Y-82580518D01*
X115621928Y-82705000D01*
X114148072Y-82705000D01*
X114135812Y-82580518D01*
X114099502Y-82460820D01*
X114040537Y-82350506D01*
X113961185Y-82253815D01*
X113864494Y-82174463D01*
X113787869Y-82133506D01*
X113885000Y-82143072D01*
X115635000Y-82143072D01*
X115930186Y-82113999D01*
X116214028Y-82027896D01*
X116475618Y-81888073D01*
X116704903Y-81699903D01*
X116893073Y-81470618D01*
X117032896Y-81209028D01*
X117118999Y-80925186D01*
X117148072Y-80630000D01*
X117148072Y-78880000D01*
X117118999Y-78584814D01*
X117032896Y-78300972D01*
X116893073Y-78039382D01*
X116704903Y-77810097D01*
X116475618Y-77621927D01*
X116214028Y-77482104D01*
X115930186Y-77396001D01*
X115635000Y-77366928D01*
X113885000Y-77366928D01*
X113589814Y-77396001D01*
X113305972Y-77482104D01*
X113044382Y-77621927D01*
X112815097Y-77810097D01*
X112626927Y-78039382D01*
X112487104Y-78300972D01*
X112401001Y-78584814D01*
X112371928Y-78880000D01*
X112371928Y-80630000D01*
X112401001Y-80925186D01*
X112487104Y-81209028D01*
X112626927Y-81470618D01*
X112815097Y-81699903D01*
X113044382Y-81888073D01*
X113305972Y-82027896D01*
X113434643Y-82066928D01*
X110010000Y-82066928D01*
X109885518Y-82079188D01*
X109765820Y-82115498D01*
X109655506Y-82174463D01*
X109558815Y-82253815D01*
X109479463Y-82350506D01*
X109420498Y-82460820D01*
X109384188Y-82580518D01*
X109371928Y-82705000D01*
X107934425Y-82705000D01*
X107951641Y-82681920D01*
X108076825Y-82419099D01*
X108121476Y-82271890D01*
X108000155Y-82042000D01*
X106807000Y-82042000D01*
X106553000Y-82042000D01*
X106533000Y-82042000D01*
X106533000Y-81788000D01*
X106553000Y-81788000D01*
X106553000Y-79502000D01*
X106807000Y-79502000D01*
X106807000Y-81788000D01*
X108000155Y-81788000D01*
X108121476Y-81558110D01*
X108076825Y-81410901D01*
X107951641Y-81148080D01*
X107777588Y-80914731D01*
X107561355Y-80719822D01*
X107435745Y-80645000D01*
X107561355Y-80570178D01*
X107777588Y-80375269D01*
X107951641Y-80141920D01*
X108076825Y-79879099D01*
X108121476Y-79731890D01*
X108000155Y-79502000D01*
X106807000Y-79502000D01*
X106553000Y-79502000D01*
X106533000Y-79502000D01*
X106533000Y-79248000D01*
X106553000Y-79248000D01*
X106553000Y-76962000D01*
X106807000Y-76962000D01*
X106807000Y-79248000D01*
X108000155Y-79248000D01*
X108121476Y-79018110D01*
X108076825Y-78870901D01*
X107951641Y-78608080D01*
X107777588Y-78374731D01*
X107561355Y-78179822D01*
X107435745Y-78105000D01*
X107561355Y-78030178D01*
X107777588Y-77835269D01*
X107951641Y-77601920D01*
X108076825Y-77339099D01*
X108121476Y-77191890D01*
X108000155Y-76962000D01*
X106807000Y-76962000D01*
X106553000Y-76962000D01*
X106533000Y-76962000D01*
X106533000Y-76708000D01*
X106553000Y-76708000D01*
X106553000Y-74422000D01*
X106807000Y-74422000D01*
X106807000Y-76708000D01*
X108000155Y-76708000D01*
X108121476Y-76478110D01*
X108076825Y-76330901D01*
X107951641Y-76068080D01*
X107777588Y-75834731D01*
X107561355Y-75639822D01*
X107435745Y-75565000D01*
X107561355Y-75490178D01*
X107777588Y-75295269D01*
X107951641Y-75061920D01*
X108076825Y-74799099D01*
X108121476Y-74651890D01*
X108000155Y-74422000D01*
X106807000Y-74422000D01*
X106553000Y-74422000D01*
X106533000Y-74422000D01*
X106533000Y-74168000D01*
X106553000Y-74168000D01*
X106553000Y-71882000D01*
X106807000Y-71882000D01*
X106807000Y-74168000D01*
X108000155Y-74168000D01*
X108046595Y-74080000D01*
X111541928Y-74080000D01*
X111541928Y-75780000D01*
X111554188Y-75904482D01*
X111590498Y-76024180D01*
X111649463Y-76134494D01*
X111728815Y-76231185D01*
X111825506Y-76310537D01*
X111935820Y-76369502D01*
X112055518Y-76405812D01*
X112180000Y-76418072D01*
X113880000Y-76418072D01*
X114004482Y-76405812D01*
X114124180Y-76369502D01*
X114234494Y-76310537D01*
X114331185Y-76231185D01*
X114410537Y-76134494D01*
X114469502Y-76024180D01*
X114493966Y-75943534D01*
X114569731Y-76027588D01*
X114803080Y-76201641D01*
X115065901Y-76326825D01*
X115213110Y-76371476D01*
X115443000Y-76250155D01*
X115443000Y-75057000D01*
X115697000Y-75057000D01*
X115697000Y-76250155D01*
X115926890Y-76371476D01*
X116074099Y-76326825D01*
X116336920Y-76201641D01*
X116570269Y-76027588D01*
X116765178Y-75811355D01*
X116914157Y-75561252D01*
X117011481Y-75286891D01*
X116890814Y-75057000D01*
X115697000Y-75057000D01*
X115443000Y-75057000D01*
X115423000Y-75057000D01*
X115423000Y-74803000D01*
X115443000Y-74803000D01*
X115443000Y-73609845D01*
X115697000Y-73609845D01*
X115697000Y-74803000D01*
X116890814Y-74803000D01*
X117011481Y-74573109D01*
X116914157Y-74298748D01*
X116765178Y-74048645D01*
X116570269Y-73832412D01*
X116336920Y-73658359D01*
X116074099Y-73533175D01*
X115926890Y-73488524D01*
X115697000Y-73609845D01*
X115443000Y-73609845D01*
X115213110Y-73488524D01*
X115065901Y-73533175D01*
X114803080Y-73658359D01*
X114569731Y-73832412D01*
X114493966Y-73916466D01*
X114469502Y-73835820D01*
X114410537Y-73725506D01*
X114331185Y-73628815D01*
X114234494Y-73549463D01*
X114124180Y-73490498D01*
X114004482Y-73454188D01*
X113880000Y-73441928D01*
X112180000Y-73441928D01*
X112055518Y-73454188D01*
X111935820Y-73490498D01*
X111825506Y-73549463D01*
X111728815Y-73628815D01*
X111649463Y-73725506D01*
X111590498Y-73835820D01*
X111554188Y-73955518D01*
X111541928Y-74080000D01*
X108046595Y-74080000D01*
X108121476Y-73938110D01*
X108076825Y-73790901D01*
X107951641Y-73528080D01*
X107777588Y-73294731D01*
X107561355Y-73099822D01*
X107435745Y-73025000D01*
X107561355Y-72950178D01*
X107777588Y-72755269D01*
X107951641Y-72521920D01*
X108076825Y-72259099D01*
X108121476Y-72111890D01*
X108000155Y-71882000D01*
X106807000Y-71882000D01*
X106553000Y-71882000D01*
X106533000Y-71882000D01*
X106533000Y-71628000D01*
X106553000Y-71628000D01*
X106553000Y-69342000D01*
X106807000Y-69342000D01*
X106807000Y-71628000D01*
X108000155Y-71628000D01*
X108121476Y-71398110D01*
X108076825Y-71250901D01*
X107951641Y-70988080D01*
X107777588Y-70754731D01*
X107561355Y-70559822D01*
X107435745Y-70485000D01*
X107561355Y-70410178D01*
X107777588Y-70215269D01*
X107951641Y-69981920D01*
X108076825Y-69719099D01*
X108121476Y-69571890D01*
X108000155Y-69342000D01*
X106807000Y-69342000D01*
X106553000Y-69342000D01*
X106533000Y-69342000D01*
X106533000Y-69088000D01*
X106553000Y-69088000D01*
X106553000Y-66802000D01*
X106807000Y-66802000D01*
X106807000Y-69088000D01*
X108000155Y-69088000D01*
X108121476Y-68858110D01*
X108076825Y-68710901D01*
X107951641Y-68448080D01*
X107777588Y-68214731D01*
X107561355Y-68019822D01*
X107435745Y-67945000D01*
X107561355Y-67870178D01*
X107777588Y-67675269D01*
X107951641Y-67441920D01*
X108076825Y-67179099D01*
X108121476Y-67031890D01*
X108000155Y-66802000D01*
X106807000Y-66802000D01*
X106553000Y-66802000D01*
X106533000Y-66802000D01*
X106533000Y-66548000D01*
X106553000Y-66548000D01*
X106553000Y-64262000D01*
X106807000Y-64262000D01*
X106807000Y-66548000D01*
X108000155Y-66548000D01*
X108121476Y-66318110D01*
X108076825Y-66170901D01*
X107951641Y-65908080D01*
X107777588Y-65674731D01*
X107561355Y-65479822D01*
X107435745Y-65405000D01*
X107561355Y-65330178D01*
X107777588Y-65135269D01*
X107951641Y-64901920D01*
X108076825Y-64639099D01*
X108121476Y-64491890D01*
X108000155Y-64262000D01*
X106807000Y-64262000D01*
X106553000Y-64262000D01*
X106533000Y-64262000D01*
X106533000Y-64008000D01*
X106553000Y-64008000D01*
X106553000Y-61722000D01*
X106807000Y-61722000D01*
X106807000Y-64008000D01*
X108000155Y-64008000D01*
X108121476Y-63778110D01*
X108076825Y-63630901D01*
X107951641Y-63368080D01*
X107777588Y-63134731D01*
X107561355Y-62939822D01*
X107435745Y-62865000D01*
X107561355Y-62790178D01*
X107777588Y-62595269D01*
X107951641Y-62361920D01*
X108076825Y-62099099D01*
X108121476Y-61951890D01*
X108000155Y-61722000D01*
X106807000Y-61722000D01*
X106553000Y-61722000D01*
X106533000Y-61722000D01*
X106533000Y-61468000D01*
X106553000Y-61468000D01*
X106553000Y-60274186D01*
X106807000Y-60274186D01*
X106807000Y-61468000D01*
X108000155Y-61468000D01*
X108121476Y-61238110D01*
X108076825Y-61090901D01*
X107951641Y-60828080D01*
X107777588Y-60594731D01*
X107561355Y-60399822D01*
X107311252Y-60250843D01*
X107036891Y-60153519D01*
X106807000Y-60274186D01*
X106553000Y-60274186D01*
X106323109Y-60153519D01*
X106048748Y-60250843D01*
X105798645Y-60399822D01*
X105602498Y-60576626D01*
X105579502Y-60500820D01*
X105520537Y-60390506D01*
X105441185Y-60293815D01*
X105344494Y-60214463D01*
X105234180Y-60155498D01*
X105114482Y-60119188D01*
X104990000Y-60106928D01*
X103290000Y-60106928D01*
X103165518Y-60119188D01*
X103045820Y-60155498D01*
X102935506Y-60214463D01*
X102838815Y-60293815D01*
X102759463Y-60390506D01*
X102700498Y-60500820D01*
X102664188Y-60620518D01*
X102651928Y-60745000D01*
X102651928Y-62445000D01*
X102664188Y-62569482D01*
X102700498Y-62689180D01*
X102759463Y-62799494D01*
X102838815Y-62896185D01*
X102935506Y-62975537D01*
X103045820Y-63034502D01*
X103114687Y-63055393D01*
X103084866Y-63079866D01*
X102899294Y-63305986D01*
X102761401Y-63563966D01*
X102676487Y-63843889D01*
X102647815Y-64135000D01*
X101815000Y-64135000D01*
X101815000Y-64007998D01*
X101650156Y-64007998D01*
X101771476Y-63778110D01*
X101726825Y-63630901D01*
X101601641Y-63368080D01*
X101427588Y-63134731D01*
X101211355Y-62939822D01*
X101085745Y-62865000D01*
X101211355Y-62790178D01*
X101427588Y-62595269D01*
X101601641Y-62361920D01*
X101726825Y-62099099D01*
X101771476Y-61951890D01*
X101650155Y-61722000D01*
X100457000Y-61722000D01*
X100203000Y-61722000D01*
X100183000Y-61722000D01*
X100183000Y-61468000D01*
X100203000Y-61468000D01*
X100203000Y-60274186D01*
X100457000Y-60274186D01*
X100457000Y-61468000D01*
X101650155Y-61468000D01*
X101771476Y-61238110D01*
X101726825Y-61090901D01*
X101601641Y-60828080D01*
X101427588Y-60594731D01*
X101211355Y-60399822D01*
X100961252Y-60250843D01*
X100686891Y-60153519D01*
X100457000Y-60274186D01*
X100203000Y-60274186D01*
X99973109Y-60153519D01*
X99698748Y-60250843D01*
X99448645Y-60399822D01*
X99252498Y-60576626D01*
X99229502Y-60500820D01*
X99170537Y-60390506D01*
X99091185Y-60293815D01*
X98994494Y-60214463D01*
X98884180Y-60155498D01*
X98764482Y-60119188D01*
X98640000Y-60106928D01*
X96940000Y-60106928D01*
X96815518Y-60119188D01*
X96695820Y-60155498D01*
X96585506Y-60214463D01*
X96488815Y-60293815D01*
X96409463Y-60390506D01*
X96390000Y-60426918D01*
X96390000Y-56592467D01*
X96406511Y-56617177D01*
X96912823Y-57123489D01*
X97508182Y-57521295D01*
X98169710Y-57795309D01*
X98871984Y-57935000D01*
X99588016Y-57935000D01*
X100290290Y-57795309D01*
X100951818Y-57521295D01*
X101547177Y-57123489D01*
X102053489Y-56617177D01*
X102451295Y-56021818D01*
X102725309Y-55360290D01*
X102865000Y-54658016D01*
X102865000Y-53941984D01*
X102725309Y-53239710D01*
X102451295Y-52578182D01*
X102053489Y-51982823D01*
X101547177Y-51476511D01*
X101522467Y-51460000D01*
X111047705Y-51460000D01*
X111014463Y-51500506D01*
M02*
