G04 #@! TF.GenerationSoftware,KiCad,Pcbnew,(5.1.0)-1*
G04 #@! TF.CreationDate,2019-05-06T16:05:47+08:00*
G04 #@! TF.ProjectId,rpi0_extern_board,72706930-5f65-4787-9465-726e5f626f61,rev?*
G04 #@! TF.SameCoordinates,Original*
G04 #@! TF.FileFunction,Copper,L1,Top*
G04 #@! TF.FilePolarity,Positive*
%FSLAX46Y46*%
G04 Gerber Fmt 4.6, Leading zero omitted, Abs format (unit mm)*
G04 Created by KiCad (PCBNEW (5.1.0)-1) date 2019-05-06 16:05:47*
%MOMM*%
%LPD*%
G04 APERTURE LIST*
%ADD10C,0.100000*%
%ADD11C,1.150000*%
%ADD12C,3.500000*%
%ADD13C,3.000000*%
%ADD14R,3.500000X3.500000*%
%ADD15O,1.700000X1.700000*%
%ADD16R,1.700000X1.700000*%
%ADD17C,1.425000*%
%ADD18R,1.750000X0.450000*%
%ADD19C,6.000000*%
%ADD20C,0.800000*%
%ADD21C,1.524000*%
%ADD22C,0.508000*%
%ADD23C,0.250000*%
G04 APERTURE END LIST*
D10*
G36*
X117539506Y-64691205D02*
G01*
X117563774Y-64694805D01*
X117587573Y-64700766D01*
X117610672Y-64709031D01*
X117632851Y-64719521D01*
X117653894Y-64732133D01*
X117673600Y-64746748D01*
X117691778Y-64763224D01*
X117708254Y-64781402D01*
X117722869Y-64801108D01*
X117735481Y-64822151D01*
X117745971Y-64844330D01*
X117754236Y-64867429D01*
X117760197Y-64891228D01*
X117763797Y-64915496D01*
X117765001Y-64940000D01*
X117765001Y-65840002D01*
X117763797Y-65864506D01*
X117760197Y-65888774D01*
X117754236Y-65912573D01*
X117745971Y-65935672D01*
X117735481Y-65957851D01*
X117722869Y-65978894D01*
X117708254Y-65998600D01*
X117691778Y-66016778D01*
X117673600Y-66033254D01*
X117653894Y-66047869D01*
X117632851Y-66060481D01*
X117610672Y-66070971D01*
X117587573Y-66079236D01*
X117563774Y-66085197D01*
X117539506Y-66088797D01*
X117515002Y-66090001D01*
X116865000Y-66090001D01*
X116840496Y-66088797D01*
X116816228Y-66085197D01*
X116792429Y-66079236D01*
X116769330Y-66070971D01*
X116747151Y-66060481D01*
X116726108Y-66047869D01*
X116706402Y-66033254D01*
X116688224Y-66016778D01*
X116671748Y-65998600D01*
X116657133Y-65978894D01*
X116644521Y-65957851D01*
X116634031Y-65935672D01*
X116625766Y-65912573D01*
X116619805Y-65888774D01*
X116616205Y-65864506D01*
X116615001Y-65840002D01*
X116615001Y-64940000D01*
X116616205Y-64915496D01*
X116619805Y-64891228D01*
X116625766Y-64867429D01*
X116634031Y-64844330D01*
X116644521Y-64822151D01*
X116657133Y-64801108D01*
X116671748Y-64781402D01*
X116688224Y-64763224D01*
X116706402Y-64746748D01*
X116726108Y-64732133D01*
X116747151Y-64719521D01*
X116769330Y-64709031D01*
X116792429Y-64700766D01*
X116816228Y-64694805D01*
X116840496Y-64691205D01*
X116865000Y-64690001D01*
X117515002Y-64690001D01*
X117539506Y-64691205D01*
X117539506Y-64691205D01*
G37*
D11*
X117190001Y-65390001D03*
D10*
G36*
X115489506Y-64691205D02*
G01*
X115513774Y-64694805D01*
X115537573Y-64700766D01*
X115560672Y-64709031D01*
X115582851Y-64719521D01*
X115603894Y-64732133D01*
X115623600Y-64746748D01*
X115641778Y-64763224D01*
X115658254Y-64781402D01*
X115672869Y-64801108D01*
X115685481Y-64822151D01*
X115695971Y-64844330D01*
X115704236Y-64867429D01*
X115710197Y-64891228D01*
X115713797Y-64915496D01*
X115715001Y-64940000D01*
X115715001Y-65840002D01*
X115713797Y-65864506D01*
X115710197Y-65888774D01*
X115704236Y-65912573D01*
X115695971Y-65935672D01*
X115685481Y-65957851D01*
X115672869Y-65978894D01*
X115658254Y-65998600D01*
X115641778Y-66016778D01*
X115623600Y-66033254D01*
X115603894Y-66047869D01*
X115582851Y-66060481D01*
X115560672Y-66070971D01*
X115537573Y-66079236D01*
X115513774Y-66085197D01*
X115489506Y-66088797D01*
X115465002Y-66090001D01*
X114815000Y-66090001D01*
X114790496Y-66088797D01*
X114766228Y-66085197D01*
X114742429Y-66079236D01*
X114719330Y-66070971D01*
X114697151Y-66060481D01*
X114676108Y-66047869D01*
X114656402Y-66033254D01*
X114638224Y-66016778D01*
X114621748Y-65998600D01*
X114607133Y-65978894D01*
X114594521Y-65957851D01*
X114584031Y-65935672D01*
X114575766Y-65912573D01*
X114569805Y-65888774D01*
X114566205Y-65864506D01*
X114565001Y-65840002D01*
X114565001Y-64940000D01*
X114566205Y-64915496D01*
X114569805Y-64891228D01*
X114575766Y-64867429D01*
X114584031Y-64844330D01*
X114594521Y-64822151D01*
X114607133Y-64801108D01*
X114621748Y-64781402D01*
X114638224Y-64763224D01*
X114656402Y-64746748D01*
X114676108Y-64732133D01*
X114697151Y-64719521D01*
X114719330Y-64709031D01*
X114742429Y-64700766D01*
X114766228Y-64694805D01*
X114790496Y-64691205D01*
X114815000Y-64690001D01*
X115465002Y-64690001D01*
X115489506Y-64691205D01*
X115489506Y-64691205D01*
G37*
D11*
X115140001Y-65390001D03*
D10*
G36*
X115489506Y-67246204D02*
G01*
X115513774Y-67249804D01*
X115537573Y-67255765D01*
X115560672Y-67264030D01*
X115582851Y-67274520D01*
X115603894Y-67287132D01*
X115623600Y-67301747D01*
X115641778Y-67318223D01*
X115658254Y-67336401D01*
X115672869Y-67356107D01*
X115685481Y-67377150D01*
X115695971Y-67399329D01*
X115704236Y-67422428D01*
X115710197Y-67446227D01*
X115713797Y-67470495D01*
X115715001Y-67494999D01*
X115715001Y-68395001D01*
X115713797Y-68419505D01*
X115710197Y-68443773D01*
X115704236Y-68467572D01*
X115695971Y-68490671D01*
X115685481Y-68512850D01*
X115672869Y-68533893D01*
X115658254Y-68553599D01*
X115641778Y-68571777D01*
X115623600Y-68588253D01*
X115603894Y-68602868D01*
X115582851Y-68615480D01*
X115560672Y-68625970D01*
X115537573Y-68634235D01*
X115513774Y-68640196D01*
X115489506Y-68643796D01*
X115465002Y-68645000D01*
X114815000Y-68645000D01*
X114790496Y-68643796D01*
X114766228Y-68640196D01*
X114742429Y-68634235D01*
X114719330Y-68625970D01*
X114697151Y-68615480D01*
X114676108Y-68602868D01*
X114656402Y-68588253D01*
X114638224Y-68571777D01*
X114621748Y-68553599D01*
X114607133Y-68533893D01*
X114594521Y-68512850D01*
X114584031Y-68490671D01*
X114575766Y-68467572D01*
X114569805Y-68443773D01*
X114566205Y-68419505D01*
X114565001Y-68395001D01*
X114565001Y-67494999D01*
X114566205Y-67470495D01*
X114569805Y-67446227D01*
X114575766Y-67422428D01*
X114584031Y-67399329D01*
X114594521Y-67377150D01*
X114607133Y-67356107D01*
X114621748Y-67336401D01*
X114638224Y-67318223D01*
X114656402Y-67301747D01*
X114676108Y-67287132D01*
X114697151Y-67274520D01*
X114719330Y-67264030D01*
X114742429Y-67255765D01*
X114766228Y-67249804D01*
X114790496Y-67246204D01*
X114815000Y-67245000D01*
X115465002Y-67245000D01*
X115489506Y-67246204D01*
X115489506Y-67246204D01*
G37*
D11*
X115140001Y-67945000D03*
D10*
G36*
X117539506Y-67246204D02*
G01*
X117563774Y-67249804D01*
X117587573Y-67255765D01*
X117610672Y-67264030D01*
X117632851Y-67274520D01*
X117653894Y-67287132D01*
X117673600Y-67301747D01*
X117691778Y-67318223D01*
X117708254Y-67336401D01*
X117722869Y-67356107D01*
X117735481Y-67377150D01*
X117745971Y-67399329D01*
X117754236Y-67422428D01*
X117760197Y-67446227D01*
X117763797Y-67470495D01*
X117765001Y-67494999D01*
X117765001Y-68395001D01*
X117763797Y-68419505D01*
X117760197Y-68443773D01*
X117754236Y-68467572D01*
X117745971Y-68490671D01*
X117735481Y-68512850D01*
X117722869Y-68533893D01*
X117708254Y-68553599D01*
X117691778Y-68571777D01*
X117673600Y-68588253D01*
X117653894Y-68602868D01*
X117632851Y-68615480D01*
X117610672Y-68625970D01*
X117587573Y-68634235D01*
X117563774Y-68640196D01*
X117539506Y-68643796D01*
X117515002Y-68645000D01*
X116865000Y-68645000D01*
X116840496Y-68643796D01*
X116816228Y-68640196D01*
X116792429Y-68634235D01*
X116769330Y-68625970D01*
X116747151Y-68615480D01*
X116726108Y-68602868D01*
X116706402Y-68588253D01*
X116688224Y-68571777D01*
X116671748Y-68553599D01*
X116657133Y-68533893D01*
X116644521Y-68512850D01*
X116634031Y-68490671D01*
X116625766Y-68467572D01*
X116619805Y-68443773D01*
X116616205Y-68419505D01*
X116615001Y-68395001D01*
X116615001Y-67494999D01*
X116616205Y-67470495D01*
X116619805Y-67446227D01*
X116625766Y-67422428D01*
X116634031Y-67399329D01*
X116644521Y-67377150D01*
X116657133Y-67356107D01*
X116671748Y-67336401D01*
X116688224Y-67318223D01*
X116706402Y-67301747D01*
X116726108Y-67287132D01*
X116747151Y-67274520D01*
X116769330Y-67264030D01*
X116792429Y-67255765D01*
X116816228Y-67249804D01*
X116840496Y-67246204D01*
X116865000Y-67245000D01*
X117515002Y-67245000D01*
X117539506Y-67246204D01*
X117539506Y-67246204D01*
G37*
D11*
X117190001Y-67945000D03*
D10*
G36*
X115720765Y-78009213D02*
G01*
X115805704Y-78021813D01*
X115888999Y-78042677D01*
X115969848Y-78071605D01*
X116047472Y-78108319D01*
X116121124Y-78152464D01*
X116190094Y-78203616D01*
X116253718Y-78261282D01*
X116311384Y-78324906D01*
X116362536Y-78393876D01*
X116406681Y-78467528D01*
X116443395Y-78545152D01*
X116472323Y-78626001D01*
X116493187Y-78709296D01*
X116505787Y-78794235D01*
X116510000Y-78880000D01*
X116510000Y-80630000D01*
X116505787Y-80715765D01*
X116493187Y-80800704D01*
X116472323Y-80883999D01*
X116443395Y-80964848D01*
X116406681Y-81042472D01*
X116362536Y-81116124D01*
X116311384Y-81185094D01*
X116253718Y-81248718D01*
X116190094Y-81306384D01*
X116121124Y-81357536D01*
X116047472Y-81401681D01*
X115969848Y-81438395D01*
X115888999Y-81467323D01*
X115805704Y-81488187D01*
X115720765Y-81500787D01*
X115635000Y-81505000D01*
X113885000Y-81505000D01*
X113799235Y-81500787D01*
X113714296Y-81488187D01*
X113631001Y-81467323D01*
X113550152Y-81438395D01*
X113472528Y-81401681D01*
X113398876Y-81357536D01*
X113329906Y-81306384D01*
X113266282Y-81248718D01*
X113208616Y-81185094D01*
X113157464Y-81116124D01*
X113113319Y-81042472D01*
X113076605Y-80964848D01*
X113047677Y-80883999D01*
X113026813Y-80800704D01*
X113014213Y-80715765D01*
X113010000Y-80630000D01*
X113010000Y-78880000D01*
X113014213Y-78794235D01*
X113026813Y-78709296D01*
X113047677Y-78626001D01*
X113076605Y-78545152D01*
X113113319Y-78467528D01*
X113157464Y-78393876D01*
X113208616Y-78324906D01*
X113266282Y-78261282D01*
X113329906Y-78203616D01*
X113398876Y-78152464D01*
X113472528Y-78108319D01*
X113550152Y-78071605D01*
X113631001Y-78042677D01*
X113714296Y-78021813D01*
X113799235Y-78009213D01*
X113885000Y-78005000D01*
X115635000Y-78005000D01*
X115720765Y-78009213D01*
X115720765Y-78009213D01*
G37*
D12*
X114760000Y-79755000D03*
D10*
G36*
X118583513Y-82708611D02*
G01*
X118656318Y-82719411D01*
X118727714Y-82737295D01*
X118797013Y-82762090D01*
X118863548Y-82793559D01*
X118926678Y-82831398D01*
X118985795Y-82875242D01*
X119040330Y-82924670D01*
X119089758Y-82979205D01*
X119133602Y-83038322D01*
X119171441Y-83101452D01*
X119202910Y-83167987D01*
X119227705Y-83237286D01*
X119245589Y-83308682D01*
X119256389Y-83381487D01*
X119260000Y-83455000D01*
X119260000Y-85455000D01*
X119256389Y-85528513D01*
X119245589Y-85601318D01*
X119227705Y-85672714D01*
X119202910Y-85742013D01*
X119171441Y-85808548D01*
X119133602Y-85871678D01*
X119089758Y-85930795D01*
X119040330Y-85985330D01*
X118985795Y-86034758D01*
X118926678Y-86078602D01*
X118863548Y-86116441D01*
X118797013Y-86147910D01*
X118727714Y-86172705D01*
X118656318Y-86190589D01*
X118583513Y-86201389D01*
X118510000Y-86205000D01*
X117010000Y-86205000D01*
X116936487Y-86201389D01*
X116863682Y-86190589D01*
X116792286Y-86172705D01*
X116722987Y-86147910D01*
X116656452Y-86116441D01*
X116593322Y-86078602D01*
X116534205Y-86034758D01*
X116479670Y-85985330D01*
X116430242Y-85930795D01*
X116386398Y-85871678D01*
X116348559Y-85808548D01*
X116317090Y-85742013D01*
X116292295Y-85672714D01*
X116274411Y-85601318D01*
X116263611Y-85528513D01*
X116260000Y-85455000D01*
X116260000Y-83455000D01*
X116263611Y-83381487D01*
X116274411Y-83308682D01*
X116292295Y-83237286D01*
X116317090Y-83167987D01*
X116348559Y-83101452D01*
X116386398Y-83038322D01*
X116430242Y-82979205D01*
X116479670Y-82924670D01*
X116534205Y-82875242D01*
X116593322Y-82831398D01*
X116656452Y-82793559D01*
X116722987Y-82762090D01*
X116792286Y-82737295D01*
X116863682Y-82719411D01*
X116936487Y-82708611D01*
X117010000Y-82705000D01*
X118510000Y-82705000D01*
X118583513Y-82708611D01*
X118583513Y-82708611D01*
G37*
D13*
X117760000Y-84455000D03*
D14*
X111760000Y-84455000D03*
D10*
G36*
X111084505Y-64706204D02*
G01*
X111108773Y-64709804D01*
X111132572Y-64715765D01*
X111155671Y-64724030D01*
X111177850Y-64734520D01*
X111198893Y-64747132D01*
X111218599Y-64761747D01*
X111236777Y-64778223D01*
X111253253Y-64796401D01*
X111267868Y-64816107D01*
X111280480Y-64837150D01*
X111290970Y-64859329D01*
X111299235Y-64882428D01*
X111305196Y-64906227D01*
X111308796Y-64930495D01*
X111310000Y-64954999D01*
X111310000Y-65855001D01*
X111308796Y-65879505D01*
X111305196Y-65903773D01*
X111299235Y-65927572D01*
X111290970Y-65950671D01*
X111280480Y-65972850D01*
X111267868Y-65993893D01*
X111253253Y-66013599D01*
X111236777Y-66031777D01*
X111218599Y-66048253D01*
X111198893Y-66062868D01*
X111177850Y-66075480D01*
X111155671Y-66085970D01*
X111132572Y-66094235D01*
X111108773Y-66100196D01*
X111084505Y-66103796D01*
X111060001Y-66105000D01*
X110409999Y-66105000D01*
X110385495Y-66103796D01*
X110361227Y-66100196D01*
X110337428Y-66094235D01*
X110314329Y-66085970D01*
X110292150Y-66075480D01*
X110271107Y-66062868D01*
X110251401Y-66048253D01*
X110233223Y-66031777D01*
X110216747Y-66013599D01*
X110202132Y-65993893D01*
X110189520Y-65972850D01*
X110179030Y-65950671D01*
X110170765Y-65927572D01*
X110164804Y-65903773D01*
X110161204Y-65879505D01*
X110160000Y-65855001D01*
X110160000Y-64954999D01*
X110161204Y-64930495D01*
X110164804Y-64906227D01*
X110170765Y-64882428D01*
X110179030Y-64859329D01*
X110189520Y-64837150D01*
X110202132Y-64816107D01*
X110216747Y-64796401D01*
X110233223Y-64778223D01*
X110251401Y-64761747D01*
X110271107Y-64747132D01*
X110292150Y-64734520D01*
X110314329Y-64724030D01*
X110337428Y-64715765D01*
X110361227Y-64709804D01*
X110385495Y-64706204D01*
X110409999Y-64705000D01*
X111060001Y-64705000D01*
X111084505Y-64706204D01*
X111084505Y-64706204D01*
G37*
D11*
X110735000Y-65405000D03*
D10*
G36*
X113134505Y-64706204D02*
G01*
X113158773Y-64709804D01*
X113182572Y-64715765D01*
X113205671Y-64724030D01*
X113227850Y-64734520D01*
X113248893Y-64747132D01*
X113268599Y-64761747D01*
X113286777Y-64778223D01*
X113303253Y-64796401D01*
X113317868Y-64816107D01*
X113330480Y-64837150D01*
X113340970Y-64859329D01*
X113349235Y-64882428D01*
X113355196Y-64906227D01*
X113358796Y-64930495D01*
X113360000Y-64954999D01*
X113360000Y-65855001D01*
X113358796Y-65879505D01*
X113355196Y-65903773D01*
X113349235Y-65927572D01*
X113340970Y-65950671D01*
X113330480Y-65972850D01*
X113317868Y-65993893D01*
X113303253Y-66013599D01*
X113286777Y-66031777D01*
X113268599Y-66048253D01*
X113248893Y-66062868D01*
X113227850Y-66075480D01*
X113205671Y-66085970D01*
X113182572Y-66094235D01*
X113158773Y-66100196D01*
X113134505Y-66103796D01*
X113110001Y-66105000D01*
X112459999Y-66105000D01*
X112435495Y-66103796D01*
X112411227Y-66100196D01*
X112387428Y-66094235D01*
X112364329Y-66085970D01*
X112342150Y-66075480D01*
X112321107Y-66062868D01*
X112301401Y-66048253D01*
X112283223Y-66031777D01*
X112266747Y-66013599D01*
X112252132Y-65993893D01*
X112239520Y-65972850D01*
X112229030Y-65950671D01*
X112220765Y-65927572D01*
X112214804Y-65903773D01*
X112211204Y-65879505D01*
X112210000Y-65855001D01*
X112210000Y-64954999D01*
X112211204Y-64930495D01*
X112214804Y-64906227D01*
X112220765Y-64882428D01*
X112229030Y-64859329D01*
X112239520Y-64837150D01*
X112252132Y-64816107D01*
X112266747Y-64796401D01*
X112283223Y-64778223D01*
X112301401Y-64761747D01*
X112321107Y-64747132D01*
X112342150Y-64734520D01*
X112364329Y-64724030D01*
X112387428Y-64715765D01*
X112411227Y-64709804D01*
X112435495Y-64706204D01*
X112459999Y-64705000D01*
X113110001Y-64705000D01*
X113134505Y-64706204D01*
X113134505Y-64706204D01*
G37*
D11*
X112785000Y-65405000D03*
D10*
G36*
X113134505Y-67246204D02*
G01*
X113158773Y-67249804D01*
X113182572Y-67255765D01*
X113205671Y-67264030D01*
X113227850Y-67274520D01*
X113248893Y-67287132D01*
X113268599Y-67301747D01*
X113286777Y-67318223D01*
X113303253Y-67336401D01*
X113317868Y-67356107D01*
X113330480Y-67377150D01*
X113340970Y-67399329D01*
X113349235Y-67422428D01*
X113355196Y-67446227D01*
X113358796Y-67470495D01*
X113360000Y-67494999D01*
X113360000Y-68395001D01*
X113358796Y-68419505D01*
X113355196Y-68443773D01*
X113349235Y-68467572D01*
X113340970Y-68490671D01*
X113330480Y-68512850D01*
X113317868Y-68533893D01*
X113303253Y-68553599D01*
X113286777Y-68571777D01*
X113268599Y-68588253D01*
X113248893Y-68602868D01*
X113227850Y-68615480D01*
X113205671Y-68625970D01*
X113182572Y-68634235D01*
X113158773Y-68640196D01*
X113134505Y-68643796D01*
X113110001Y-68645000D01*
X112459999Y-68645000D01*
X112435495Y-68643796D01*
X112411227Y-68640196D01*
X112387428Y-68634235D01*
X112364329Y-68625970D01*
X112342150Y-68615480D01*
X112321107Y-68602868D01*
X112301401Y-68588253D01*
X112283223Y-68571777D01*
X112266747Y-68553599D01*
X112252132Y-68533893D01*
X112239520Y-68512850D01*
X112229030Y-68490671D01*
X112220765Y-68467572D01*
X112214804Y-68443773D01*
X112211204Y-68419505D01*
X112210000Y-68395001D01*
X112210000Y-67494999D01*
X112211204Y-67470495D01*
X112214804Y-67446227D01*
X112220765Y-67422428D01*
X112229030Y-67399329D01*
X112239520Y-67377150D01*
X112252132Y-67356107D01*
X112266747Y-67336401D01*
X112283223Y-67318223D01*
X112301401Y-67301747D01*
X112321107Y-67287132D01*
X112342150Y-67274520D01*
X112364329Y-67264030D01*
X112387428Y-67255765D01*
X112411227Y-67249804D01*
X112435495Y-67246204D01*
X112459999Y-67245000D01*
X113110001Y-67245000D01*
X113134505Y-67246204D01*
X113134505Y-67246204D01*
G37*
D11*
X112785000Y-67945000D03*
D10*
G36*
X111084505Y-67246204D02*
G01*
X111108773Y-67249804D01*
X111132572Y-67255765D01*
X111155671Y-67264030D01*
X111177850Y-67274520D01*
X111198893Y-67287132D01*
X111218599Y-67301747D01*
X111236777Y-67318223D01*
X111253253Y-67336401D01*
X111267868Y-67356107D01*
X111280480Y-67377150D01*
X111290970Y-67399329D01*
X111299235Y-67422428D01*
X111305196Y-67446227D01*
X111308796Y-67470495D01*
X111310000Y-67494999D01*
X111310000Y-68395001D01*
X111308796Y-68419505D01*
X111305196Y-68443773D01*
X111299235Y-68467572D01*
X111290970Y-68490671D01*
X111280480Y-68512850D01*
X111267868Y-68533893D01*
X111253253Y-68553599D01*
X111236777Y-68571777D01*
X111218599Y-68588253D01*
X111198893Y-68602868D01*
X111177850Y-68615480D01*
X111155671Y-68625970D01*
X111132572Y-68634235D01*
X111108773Y-68640196D01*
X111084505Y-68643796D01*
X111060001Y-68645000D01*
X110409999Y-68645000D01*
X110385495Y-68643796D01*
X110361227Y-68640196D01*
X110337428Y-68634235D01*
X110314329Y-68625970D01*
X110292150Y-68615480D01*
X110271107Y-68602868D01*
X110251401Y-68588253D01*
X110233223Y-68571777D01*
X110216747Y-68553599D01*
X110202132Y-68533893D01*
X110189520Y-68512850D01*
X110179030Y-68490671D01*
X110170765Y-68467572D01*
X110164804Y-68443773D01*
X110161204Y-68419505D01*
X110160000Y-68395001D01*
X110160000Y-67494999D01*
X110161204Y-67470495D01*
X110164804Y-67446227D01*
X110170765Y-67422428D01*
X110179030Y-67399329D01*
X110189520Y-67377150D01*
X110202132Y-67356107D01*
X110216747Y-67336401D01*
X110233223Y-67318223D01*
X110251401Y-67301747D01*
X110271107Y-67287132D01*
X110292150Y-67274520D01*
X110314329Y-67264030D01*
X110337428Y-67255765D01*
X110361227Y-67249804D01*
X110385495Y-67246204D01*
X110409999Y-67245000D01*
X111060001Y-67245000D01*
X111084505Y-67246204D01*
X111084505Y-67246204D01*
G37*
D11*
X110735000Y-67945000D03*
D15*
X106680000Y-84455000D03*
X104140000Y-84455000D03*
X106680000Y-81915000D03*
X104140000Y-81915000D03*
X106680000Y-79375000D03*
X104140000Y-79375000D03*
X106680000Y-76835000D03*
X104140000Y-76835000D03*
X106680000Y-74295000D03*
X104140000Y-74295000D03*
X106680000Y-71755000D03*
X104140000Y-71755000D03*
X106680000Y-69215000D03*
X104140000Y-69215000D03*
X106680000Y-66675000D03*
X104140000Y-66675000D03*
X106680000Y-64135000D03*
X104140000Y-64135000D03*
X106680000Y-61595000D03*
D16*
X104140000Y-61595000D03*
D15*
X100330000Y-84455000D03*
X97790000Y-84455000D03*
X100330000Y-81915000D03*
X97790000Y-81915000D03*
X100330000Y-79375000D03*
X97790000Y-79375000D03*
X100330000Y-76835000D03*
X97790000Y-76835000D03*
X100330000Y-74295000D03*
X97790000Y-74295000D03*
X100330000Y-71755000D03*
X97790000Y-71755000D03*
X100330000Y-69215000D03*
X97790000Y-69215000D03*
X100330000Y-66675000D03*
X97790000Y-66675000D03*
X100330000Y-64135000D03*
X97790000Y-64135000D03*
X100330000Y-61595000D03*
D16*
X97790000Y-61595000D03*
D10*
G36*
X116274504Y-70881204D02*
G01*
X116298773Y-70884804D01*
X116322571Y-70890765D01*
X116345671Y-70899030D01*
X116367849Y-70909520D01*
X116388893Y-70922133D01*
X116408598Y-70936747D01*
X116426777Y-70953223D01*
X116443253Y-70971402D01*
X116457867Y-70991107D01*
X116470480Y-71012151D01*
X116480970Y-71034329D01*
X116489235Y-71057429D01*
X116495196Y-71081227D01*
X116498796Y-71105496D01*
X116500000Y-71130000D01*
X116500000Y-72380000D01*
X116498796Y-72404504D01*
X116495196Y-72428773D01*
X116489235Y-72452571D01*
X116480970Y-72475671D01*
X116470480Y-72497849D01*
X116457867Y-72518893D01*
X116443253Y-72538598D01*
X116426777Y-72556777D01*
X116408598Y-72573253D01*
X116388893Y-72587867D01*
X116367849Y-72600480D01*
X116345671Y-72610970D01*
X116322571Y-72619235D01*
X116298773Y-72625196D01*
X116274504Y-72628796D01*
X116250000Y-72630000D01*
X115325000Y-72630000D01*
X115300496Y-72628796D01*
X115276227Y-72625196D01*
X115252429Y-72619235D01*
X115229329Y-72610970D01*
X115207151Y-72600480D01*
X115186107Y-72587867D01*
X115166402Y-72573253D01*
X115148223Y-72556777D01*
X115131747Y-72538598D01*
X115117133Y-72518893D01*
X115104520Y-72497849D01*
X115094030Y-72475671D01*
X115085765Y-72452571D01*
X115079804Y-72428773D01*
X115076204Y-72404504D01*
X115075000Y-72380000D01*
X115075000Y-71130000D01*
X115076204Y-71105496D01*
X115079804Y-71081227D01*
X115085765Y-71057429D01*
X115094030Y-71034329D01*
X115104520Y-71012151D01*
X115117133Y-70991107D01*
X115131747Y-70971402D01*
X115148223Y-70953223D01*
X115166402Y-70936747D01*
X115186107Y-70922133D01*
X115207151Y-70909520D01*
X115229329Y-70899030D01*
X115252429Y-70890765D01*
X115276227Y-70884804D01*
X115300496Y-70881204D01*
X115325000Y-70880000D01*
X116250000Y-70880000D01*
X116274504Y-70881204D01*
X116274504Y-70881204D01*
G37*
D17*
X115787500Y-71755000D03*
D10*
G36*
X113299504Y-70881204D02*
G01*
X113323773Y-70884804D01*
X113347571Y-70890765D01*
X113370671Y-70899030D01*
X113392849Y-70909520D01*
X113413893Y-70922133D01*
X113433598Y-70936747D01*
X113451777Y-70953223D01*
X113468253Y-70971402D01*
X113482867Y-70991107D01*
X113495480Y-71012151D01*
X113505970Y-71034329D01*
X113514235Y-71057429D01*
X113520196Y-71081227D01*
X113523796Y-71105496D01*
X113525000Y-71130000D01*
X113525000Y-72380000D01*
X113523796Y-72404504D01*
X113520196Y-72428773D01*
X113514235Y-72452571D01*
X113505970Y-72475671D01*
X113495480Y-72497849D01*
X113482867Y-72518893D01*
X113468253Y-72538598D01*
X113451777Y-72556777D01*
X113433598Y-72573253D01*
X113413893Y-72587867D01*
X113392849Y-72600480D01*
X113370671Y-72610970D01*
X113347571Y-72619235D01*
X113323773Y-72625196D01*
X113299504Y-72628796D01*
X113275000Y-72630000D01*
X112350000Y-72630000D01*
X112325496Y-72628796D01*
X112301227Y-72625196D01*
X112277429Y-72619235D01*
X112254329Y-72610970D01*
X112232151Y-72600480D01*
X112211107Y-72587867D01*
X112191402Y-72573253D01*
X112173223Y-72556777D01*
X112156747Y-72538598D01*
X112142133Y-72518893D01*
X112129520Y-72497849D01*
X112119030Y-72475671D01*
X112110765Y-72452571D01*
X112104804Y-72428773D01*
X112101204Y-72404504D01*
X112100000Y-72380000D01*
X112100000Y-71130000D01*
X112101204Y-71105496D01*
X112104804Y-71081227D01*
X112110765Y-71057429D01*
X112119030Y-71034329D01*
X112129520Y-71012151D01*
X112142133Y-70991107D01*
X112156747Y-70971402D01*
X112173223Y-70953223D01*
X112191402Y-70936747D01*
X112211107Y-70922133D01*
X112232151Y-70909520D01*
X112254329Y-70899030D01*
X112277429Y-70890765D01*
X112301227Y-70884804D01*
X112325496Y-70881204D01*
X112350000Y-70880000D01*
X113275000Y-70880000D01*
X113299504Y-70881204D01*
X113299504Y-70881204D01*
G37*
D17*
X112812500Y-71755000D03*
D15*
X123500000Y-76950000D03*
X120960000Y-76950000D03*
X123500000Y-74410000D03*
X120960000Y-74410000D03*
X123500000Y-71870000D03*
X120960000Y-71870000D03*
X123500000Y-69330000D03*
X120960000Y-69330000D03*
X123500000Y-66790000D03*
X120960000Y-66790000D03*
X123500000Y-64250000D03*
X120960000Y-64250000D03*
X123500000Y-61710000D03*
X120960000Y-61710000D03*
X123500000Y-59170000D03*
D16*
X120960000Y-59170000D03*
X112395000Y-52705000D03*
D15*
X114935000Y-52705000D03*
D16*
X113030000Y-74930000D03*
D15*
X115570000Y-74930000D03*
D18*
X117265000Y-61980000D03*
X117265000Y-61330000D03*
X117265000Y-60680000D03*
X117265000Y-60030000D03*
X117265000Y-59380000D03*
X117265000Y-58730000D03*
X117265000Y-58080000D03*
X117265000Y-57430000D03*
X117265000Y-56780000D03*
X117265000Y-56130000D03*
X110065000Y-56130000D03*
X110065000Y-56780000D03*
X110065000Y-57430000D03*
X110065000Y-58080000D03*
X110065000Y-58730000D03*
X110065000Y-59380000D03*
X110065000Y-60030000D03*
X110065000Y-60680000D03*
X110065000Y-61330000D03*
X110065000Y-61980000D03*
D19*
X99230000Y-54300000D03*
X122230000Y-54300000D03*
D20*
X118110000Y-63500000D03*
D21*
X115787500Y-74712500D02*
X115570000Y-74930000D01*
X115787500Y-71755000D02*
X115787500Y-74712500D01*
D22*
X114935000Y-52705000D02*
X114935000Y-55245000D01*
X115790999Y-56100999D02*
X116026799Y-56100999D01*
X114935000Y-55245000D02*
X115790999Y-56100999D01*
X116026799Y-56100999D02*
X117265000Y-56100999D01*
D23*
X106945000Y-61330000D02*
X106680000Y-61595000D01*
X110065000Y-61330000D02*
X106945000Y-61330000D01*
X107950000Y-65405000D02*
X106680000Y-64135000D01*
X110735000Y-65405000D02*
X107950000Y-65405000D01*
D22*
X117190001Y-64419999D02*
X118110000Y-63500000D01*
X117190001Y-67945000D02*
X117190001Y-64419999D01*
D23*
X113030000Y-71337500D02*
X112812500Y-71120000D01*
X115140001Y-67945000D02*
X115140001Y-65390001D01*
X116615000Y-61980000D02*
X117265000Y-61980000D01*
X115140001Y-65390001D02*
X115140001Y-63454999D01*
X110065000Y-61980000D02*
X113665002Y-61980000D01*
X116147501Y-62168499D02*
X116336000Y-61980000D01*
X113853501Y-62168499D02*
X116147501Y-62168499D01*
X116336000Y-61980000D02*
X117265000Y-61980000D01*
X113665002Y-61980000D02*
X116336000Y-61980000D01*
X113665002Y-61980000D02*
X113853501Y-62168499D01*
X115957001Y-62358999D02*
X116147501Y-62168499D01*
X114044001Y-62358999D02*
X115957001Y-62358999D01*
X113853501Y-62168499D02*
X114044001Y-62358999D01*
X116045501Y-62549499D02*
X116094500Y-62500500D01*
X116094500Y-62500500D02*
X116615000Y-61980000D01*
X114044001Y-62358999D02*
X114234501Y-62549499D01*
X115695001Y-62739999D02*
X115885501Y-62549499D01*
X114425001Y-62739999D02*
X115695001Y-62739999D01*
X115885501Y-62549499D02*
X116045501Y-62549499D01*
X114234501Y-62549499D02*
X114425001Y-62739999D01*
X115504501Y-62930499D02*
X115695001Y-62739999D01*
X114615501Y-62930499D02*
X115504501Y-62930499D01*
X114425001Y-62739999D02*
X114615501Y-62930499D01*
X115314001Y-63120999D02*
X115504501Y-62930499D01*
X114806001Y-63120999D02*
X115314001Y-63120999D01*
X114615501Y-62930499D02*
X114806001Y-63120999D01*
X115317999Y-63247999D02*
X115332500Y-63262500D01*
X114933001Y-63247999D02*
X115317999Y-63247999D01*
X115332500Y-63262500D02*
X116094500Y-62500500D01*
X115140001Y-63454999D02*
X115332500Y-63262500D01*
X114933001Y-63247999D02*
X115140001Y-63454999D01*
X114806001Y-63120999D02*
X114933001Y-63247999D01*
D21*
X112395000Y-74930000D02*
X113030000Y-74930000D01*
X109855000Y-77470000D02*
X112395000Y-74930000D01*
X111760000Y-84455000D02*
X109855000Y-82550000D01*
X109855000Y-82550000D02*
X109855000Y-77470000D01*
X111760000Y-84455000D02*
X111760000Y-86360000D01*
X111760000Y-86360000D02*
X110490000Y-87630000D01*
X97790000Y-86360000D02*
X97790000Y-84455000D01*
X99060000Y-87630000D02*
X97790000Y-86360000D01*
X104140000Y-86360000D02*
X102870000Y-87630000D01*
X102870000Y-87630000D02*
X99060000Y-87630000D01*
X104140000Y-85725000D02*
X104140000Y-86995000D01*
X104140000Y-84455000D02*
X104140000Y-85725000D01*
X104140000Y-86360000D02*
X105410000Y-87630000D01*
X104140000Y-85725000D02*
X104140000Y-86360000D01*
X110490000Y-87630000D02*
X105410000Y-87630000D01*
X105410000Y-87630000D02*
X102870000Y-87630000D01*
X97790000Y-84455000D02*
X97790000Y-61595000D01*
X104140000Y-84455000D02*
X104140000Y-61595000D01*
D22*
X123500000Y-59170000D02*
X123500000Y-61710000D01*
X114141510Y-69790990D02*
X114082500Y-69850000D01*
X118110000Y-70485000D02*
X117415990Y-69790990D01*
X123500000Y-61710000D02*
X125095000Y-63305000D01*
X125095000Y-63305000D02*
X125095000Y-78105000D01*
X125095000Y-78105000D02*
X123825000Y-79375000D01*
X123825000Y-79375000D02*
X119380000Y-79375000D01*
X119380000Y-79375000D02*
X118110000Y-78105000D01*
X118110000Y-78105000D02*
X118110000Y-70485000D01*
X112812500Y-67972500D02*
X112785000Y-67945000D01*
X112812500Y-71755000D02*
X112812500Y-67972500D01*
X115140001Y-62663997D02*
X115254499Y-62549499D01*
X115140001Y-67945000D02*
X115140001Y-62663997D01*
D23*
X114234501Y-62549499D02*
X115254499Y-62549499D01*
X115254499Y-62549499D02*
X115885501Y-62549499D01*
D22*
X115140001Y-68785001D02*
X116145990Y-69790990D01*
X115140001Y-67945000D02*
X115140001Y-68785001D01*
X117415990Y-69790990D02*
X116145990Y-69790990D01*
X113238750Y-70693750D02*
X112812500Y-71120000D01*
X114082500Y-69850000D02*
X113238750Y-70693750D01*
X115510990Y-69790990D02*
X114141510Y-69790990D01*
X116145990Y-69790990D02*
X115510990Y-69790990D01*
X113238750Y-70276250D02*
X113238750Y-70693750D01*
X113238750Y-70276250D02*
X113238750Y-68788750D01*
X113665000Y-68825000D02*
X112785000Y-67945000D01*
X113665000Y-69850000D02*
X113665000Y-68825000D01*
X113665000Y-69850000D02*
X113238750Y-70276250D01*
X114935000Y-69596000D02*
X115125500Y-69405500D01*
X113919000Y-69596000D02*
X114935000Y-69596000D01*
X115510990Y-69790990D02*
X115125500Y-69405500D01*
X113919000Y-69596000D02*
X113665000Y-69850000D01*
X114173000Y-69215000D02*
X114554000Y-69215000D01*
X113783000Y-68825000D02*
X114173000Y-69215000D01*
X113665000Y-68825000D02*
X113783000Y-68825000D01*
X112785000Y-67945000D02*
X113284000Y-67945000D01*
X113284000Y-67945000D02*
X115140001Y-67945000D01*
X113538000Y-68199000D02*
X113284000Y-67945000D01*
X115140001Y-69293001D02*
X115140001Y-69390999D01*
X114554000Y-68707000D02*
X114554000Y-68326000D01*
X114554000Y-68707000D02*
X115140001Y-69293001D01*
X114427000Y-68199000D02*
X113538000Y-68199000D01*
X114554000Y-68326000D02*
X114427000Y-68199000D01*
X113792000Y-68453000D02*
X114300000Y-68453000D01*
X113792000Y-68453000D02*
X114554000Y-69215000D01*
X113538000Y-68199000D02*
X113792000Y-68453000D01*
X115140001Y-69390999D02*
X115140001Y-67945000D01*
X114935000Y-69596000D02*
X115140001Y-69390999D01*
X114516629Y-68998371D02*
X114681000Y-68834000D01*
X114516629Y-69177629D02*
X114516629Y-68998371D01*
X114554000Y-69215000D02*
X114516629Y-69177629D01*
X114300000Y-68453000D02*
X114681000Y-68834000D01*
X114681000Y-68834000D02*
X115140001Y-69293001D01*
X113030000Y-71972500D02*
X112812500Y-71755000D01*
X113030000Y-74930000D02*
X113030000Y-71972500D01*
D23*
X112785000Y-65895000D02*
X112785000Y-65405000D01*
X110735000Y-67945000D02*
X112785000Y-65895000D01*
X122135001Y-70505001D02*
X123500000Y-71870000D01*
X120395999Y-70505001D02*
X122135001Y-70505001D01*
X119380000Y-69489002D02*
X120395999Y-70505001D01*
X119380000Y-62320000D02*
X119380000Y-69489002D01*
X117265000Y-61330000D02*
X118390000Y-61330000D01*
X118390000Y-61330000D02*
X119380000Y-62320000D01*
X112395000Y-53805000D02*
X112395000Y-52705000D01*
X112395000Y-59475000D02*
X112395000Y-53805000D01*
X111190000Y-60680000D02*
X112395000Y-59475000D01*
X110065000Y-60680000D02*
X111190000Y-60680000D01*
M02*
